<svg width="24" height="28" viewBox="0 0 24 28" fill="none" xmlns="http://www.w3.org/2000/svg">
<path d="M12.8169 25.2471H11.0435L8.25586 17.4369L16.0047 16.9886L12.8169 25.2471Z" fill="#6B7DEF"/>
<path d="M3.53868 2.92625C3.52993 3.58546 3.52993 16.4923 10.4091 18.5882C17.2882 20.6842 20.3954 9.76367 20.1488 1.98621L3.53868 2.92625Z" fill="url(#paint0_linear_271_726)"/>
<path d="M17.4295 26.432H6.43164V27.7038H17.4295V26.432Z" fill="#6B7DEF"/>
<path d="M17.4295 26.432H6.43164L9.21502 25.0098H14.6461L17.4295 26.432Z" fill="#4E56E6"/>
<path d="M2.7414 1.09492C2.13755 1.12991 1.64355 1.55569 1.64355 2.04113V3.03384C1.64355 3.51925 2.13785 3.89105 2.74201 3.86012L21.5952 2.89397C22.1994 2.86301 22.6937 2.44054 22.6937 1.95514V0.821243C22.6937 0.335803 22.1997 -0.0327134 21.5958 0.00230285L2.7414 1.09492Z" fill="#6B7DEF"/>
<path d="M15.2805 19.614C14.8411 19.614 14.4621 19.3496 14.411 18.9912C14.3561 18.6058 14.7011 18.2576 15.1816 18.2134C15.2732 18.2046 21.5997 17.5684 22.1996 14.2703C22.3008 13.7142 22.2895 12.9877 21.6617 12.6846C21.1435 12.4343 20.2951 12.5139 19.6886 12.8696C19.3437 13.0718 18.9663 13.4261 19.1268 13.9653C19.2391 14.3427 18.9486 14.7218 18.4778 14.8119C18.0072 14.9019 17.5344 14.669 17.4221 14.2915C17.1311 13.314 17.5915 12.3584 18.6538 11.7354C19.834 11.0431 21.4427 10.9385 22.5659 11.4808C23.2223 11.7978 24.273 12.6081 23.9338 14.473C23.5984 16.3171 21.9817 17.7943 19.2585 18.7449C17.303 19.4275 15.4586 19.6024 15.3811 19.6095C15.3473 19.6125 15.3138 19.614 15.2805 19.614Z" fill="#4E56E6"/>
<path d="M8.71914 19.614C9.15854 19.614 9.53758 19.3496 9.58865 18.9912C9.64355 18.6058 9.29852 18.2576 8.818 18.2134C8.72647 18.2046 2.39985 17.5684 1.80002 14.2703C1.69884 13.7142 1.71011 12.9877 2.33789 12.6846C2.85608 12.4343 3.70447 12.5139 4.31107 12.8696C4.65593 13.0718 5.03333 13.4261 4.87283 13.9653C4.76046 14.3427 5.05096 14.7218 5.52176 14.8119C5.99236 14.9019 6.46513 14.669 6.57751 14.2915C6.86854 13.314 6.40806 12.3584 5.34574 11.7354C4.16556 11.0431 2.55686 10.9385 1.43372 11.4808C0.777251 11.7978 -0.273435 12.6081 0.0657909 14.473C0.401163 16.3171 2.0179 17.7943 4.74109 18.7449C6.69655 19.4275 8.54095 19.6024 8.6185 19.6095C8.65231 19.6125 8.68589 19.614 8.71914 19.614Z" fill="#4E56E6"/>
<path opacity="0.68" d="M16.4176 1.91243C16.342 1.91243 16.2788 1.85605 16.2746 1.78328C16.2704 1.70804 16.331 1.64376 16.41 1.63967L18.0937 1.55345C18.1729 1.55052 18.2402 1.60711 18.2444 1.68238C18.2487 1.75761 18.1881 1.8219 18.1091 1.82599L16.4254 1.9122C16.4228 1.91236 16.4202 1.91243 16.4176 1.91243Z" fill="white"/>
<path opacity="0.68" d="M3.53866 2.57246C3.46309 2.57246 3.39984 2.51609 3.39572 2.44331C3.39146 2.36808 3.45209 2.30376 3.53108 2.29971L13.5897 1.78429C13.6683 1.77989 13.7361 1.83798 13.7404 1.91322C13.7447 1.98845 13.684 2.05274 13.605 2.05683L3.54647 2.57224C3.54392 2.5724 3.54124 2.57246 3.53866 2.57246Z" fill="white"/>
<path opacity="0.68" d="M11.3271 17.1251C11.3216 17.1251 11.316 17.1248 11.3105 17.1242C9.48907 16.9247 8.03296 15.512 6.98271 12.9255C6.1154 10.7896 5.70607 8.29002 5.51544 6.56927C5.5072 6.49433 5.56421 6.42713 5.64293 6.41922C5.72179 6.41207 5.79217 6.46566 5.80048 6.54061C6.12777 9.49455 7.32297 16.4126 11.3433 16.853C11.4219 16.8617 11.4783 16.9293 11.4693 17.0042C11.4608 17.0738 11.3989 17.1251 11.3271 17.1251Z" fill="white"/>
<path opacity="0.68" d="M5.53565 5.34174C5.46071 5.34174 5.39774 5.28629 5.39281 5.21412C5.36593 4.82026 5.35873 4.59369 5.35846 4.58424C5.35608 4.50888 5.41835 4.44603 5.49741 4.44376C5.5822 4.43878 5.64259 4.5008 5.6449 4.5761C5.64497 4.57837 5.65231 4.80791 5.67882 5.1964C5.68394 5.27164 5.62405 5.33653 5.54513 5.34148C5.54195 5.34167 5.5388 5.34174 5.53565 5.34174Z" fill="white"/>
<defs>
<linearGradient id="paint0_linear_271_726" x1="11.8502" y1="1.98621" x2="11.8502" y2="18.8505" gradientUnits="userSpaceOnUse">
<stop stop-color="#7D97F4"/>
<stop offset="1" stop-color="#4042E2"/>
</linearGradient>
</defs>
</svg>
