<svg width="600" height="594" viewBox="0 0 600 594" fill="none" xmlns="http://www.w3.org/2000/svg">
<g clip-path="url(#clip0_182_1916)">
<path d="M526.972 510C418.643 624.237 252.245 590.443 227.649 585.01C196.662 578.17 122.94 561.891 67.9253 497.619C-16.3018 399.22 -7.79623 245.435 57.2518 141.757C76.1789 111.589 139.875 21.9361 259.49 2.44318C266.482 1.30396 391.387 -16.9972 491.888 67.2692C505.439 78.6313 527.31 99.2068 546.48 129.167C605.944 222.107 634.086 397.041 526.972 510Z" fill="url(#paint0_linear_182_1916)"/>
<path d="M292.243 30.6924C293.469 24.7047 299.708 21.1846 305.469 23.2373C343.675 36.8507 475.445 81.82 589.075 96.7929C594.258 97.4757 597.869 102.269 597.065 107.43L530.959 531.26C530.052 537.071 524.624 541.06 518.804 540.19C471.187 533.066 275.237 503.026 207.678 481.245C203.566 479.919 201.121 475.709 201.987 471.48L292.243 30.6924Z" fill="#91B3FA"/>
<path opacity="0.6" d="M294.66 42.1714C295.841 36.4091 301.845 33.0218 307.389 34.9972C344.157 48.098 470.966 91.3739 580.316 105.783C585.303 106.44 588.778 111.053 588.004 116.019L524.387 523.889C523.516 529.483 518.292 533.321 512.69 532.483C466.867 525.628 278.295 496.718 213.28 475.759C209.323 474.482 206.969 470.431 207.803 466.361L294.66 42.1714Z" fill="white"/>
<path opacity="0.78" d="M330.477 75.8094C327.086 74.9706 323.701 77.2035 323.14 80.6487L308.923 167.97C308.449 170.874 310.292 173.651 313.155 174.339C329.086 178.166 378.768 189.9 407.275 194.37C410.499 194.876 413.566 192.829 414.344 189.661C418.303 173.557 429.434 126.603 429.897 106.093C429.972 102.779 427.725 99.8666 424.505 99.0702L330.477 75.8094Z" fill="white"/>
<path d="M371.127 142.043C381.626 142.043 390.138 133.538 390.138 123.046C390.138 112.553 381.626 104.048 371.127 104.048C360.628 104.048 352.116 112.553 352.116 123.046C352.116 133.538 360.628 142.043 371.127 142.043Z" fill="url(#paint1_linear_182_1916)"/>
<path d="M331.361 171.672L390.626 184.154C394.258 184.919 397.282 181.369 395.97 177.897C392.596 168.965 384.503 155.183 366.153 151.863C348.467 148.664 335.843 156.915 329.026 163.303C326.131 166.015 327.477 170.855 331.361 171.672Z" fill="url(#paint2_linear_182_1916)"/>
<g opacity="0.6">
<path d="M558.542 138.089C560.4 138.48 562.155 137.487 562.445 135.881C562.736 134.276 561.458 132.616 559.611 132.192L456.127 108.465C454.277 108.041 452.968 109.232 453.215 111.111L453.415 112.626C453.662 114.505 455.383 116.363 457.239 116.754L558.542 138.089Z" fill="white"/>
</g>
<g opacity="0.6">
<path d="M452.727 124.586C450.878 124.162 449.568 125.353 449.815 127.232L450.015 128.747C450.262 130.627 451.983 132.484 453.839 132.875L555.142 154.211C557 154.602 558.755 153.608 559.045 152.003C559.336 150.397 558.058 148.737 556.211 148.313L452.727 124.586Z" fill="white"/>
</g>
<g opacity="0.6">
<path d="M449.277 140.941C447.428 140.517 446.118 141.708 446.366 143.587L446.566 145.102C446.813 146.982 448.533 148.839 450.389 149.23L551.693 170.566C553.551 170.957 555.305 169.963 555.596 168.358C555.886 166.752 554.609 165.092 552.761 164.668L449.277 140.941Z" fill="white"/>
</g>
<g opacity="0.6">
<path d="M545.148 251.565C547.004 251.956 548.712 250.952 548.944 249.334C549.174 247.716 547.847 246.061 545.993 245.655L303.049 192.486C301.196 192.08 300.374 193.135 301.226 194.829L302.688 197.744C303.538 199.438 305.753 201.144 307.608 201.535L545.148 251.565Z" fill="white"/>
</g>
<g opacity="0.6">
<path d="M299.649 208.607C297.796 208.201 296.974 209.256 297.826 210.95L299.288 213.864C300.138 215.559 302.353 217.266 304.209 217.657L541.748 267.685C543.604 268.076 545.312 267.072 545.544 265.454C545.774 263.838 544.447 262.181 542.594 261.777L299.649 208.607Z" fill="white"/>
</g>
<path opacity="0.6" d="M292.873 235.292C298.819 236.076 309.819 238.176 315.869 239.362C318.432 239.865 320.31 242.066 320.385 244.675C320.531 249.744 320.372 258.454 318.299 267.285C317.677 269.928 315.052 271.592 312.398 271.003L290.191 266.075C287.46 265.469 285.628 262.901 285.948 260.122L288.404 238.786C288.658 236.579 290.669 235 292.873 235.292Z" fill="white"/>
<g opacity="0.6">
<path d="M332.222 252.553C330.383 252.085 328.789 253.249 328.677 255.143L328.46 258.841C328.348 260.735 329.776 262.602 331.632 262.993L385.688 274.379C387.546 274.77 389.366 273.567 389.733 271.708L389.914 270.792C390.282 268.933 389.08 267.029 387.241 266.561L332.222 252.553Z" fill="white"/>
</g>
<path opacity="0.6" d="M414.131 260.829C420.075 261.613 431.077 263.713 437.127 264.899C439.69 265.402 441.566 267.605 441.641 270.214C441.789 275.282 441.628 283.994 439.555 292.822C438.933 295.468 436.31 297.129 433.656 296.54L411.449 291.614C408.718 291.008 406.886 288.438 407.206 285.661L409.662 264.323C409.916 262.116 411.927 260.539 414.131 260.829Z" fill="white"/>
<g opacity="0.6">
<path d="M453.48 278.09C451.641 277.622 450.045 278.789 449.935 280.68L449.716 284.381C449.606 286.272 451.034 288.139 452.89 288.531L506.946 299.916C508.802 300.307 510.622 299.106 510.989 297.247L511.17 296.332C511.54 294.473 510.335 292.566 508.499 292.1L453.48 278.09Z" fill="white"/>
</g>
<path d="M306.77 324.925C306.751 324.921 306.731 324.916 306.714 324.912L286.217 320.39C283.288 319.744 281.29 317.216 281.572 314.511L283.398 296.91C283.505 295.876 284.03 294.943 284.875 294.281C285.822 293.542 287.086 293.218 288.344 293.394C290.101 293.641 292.581 293.946 295.206 294.271C300.736 294.952 307.619 295.801 311.432 296.553C314.196 297.12 316.191 299.246 316.336 301.786C316.572 305.964 314.899 313.427 313.015 321.355C312.402 323.93 309.609 325.522 306.77 324.925ZM288.12 294.989C287.295 294.872 286.473 295.079 285.869 295.549C285.37 295.938 285.062 296.482 285 297.075L283.174 314.676C282.979 316.567 284.437 318.347 286.563 318.817L307.06 323.339C307.073 323.343 307.088 323.345 307.101 323.348C309.093 323.767 311.037 322.714 311.447 320.984C313.303 313.174 314.951 305.839 314.727 301.876C314.626 300.099 313.123 298.562 311.12 298.135C307.363 297.391 300.514 296.547 295.011 295.867C292.376 295.543 289.89 295.238 288.12 294.989Z" fill="white"/>
<path opacity="0.6" d="M289.955 297.232C294.333 297.845 303.912 298.87 308.37 299.751C310.26 300.125 311.673 301.61 311.77 303.335C311.959 306.688 310.512 312.987 309.133 318.789C308.72 320.528 306.819 321.585 304.862 321.153L288.484 317.538C286.469 317.094 285.084 315.366 285.273 313.535L286.731 299.469C286.884 298.014 288.333 297.004 289.955 297.232Z" fill="white"/>
<g opacity="0.6">
<path d="M327.219 317.289C327.34 319.666 329.058 321.663 331.394 322.133L521.766 360.537C523.921 360.971 526.013 359.561 526.419 357.404C526.813 355.306 525.465 353.275 523.376 352.826L333.523 311.936C330.172 311.214 327.047 313.868 327.219 317.289Z" fill="white"/>
</g>
<path d="M290.26 300.116C291.974 299.544 293.824 300.49 294.359 302.214L296.88 310.324C297.133 311.137 298.202 311.315 298.703 310.627L313.467 290.389C314.202 289.379 315.785 290.106 315.51 291.324C313.964 298.141 309.407 310.756 296.181 319.333C296.181 319.333 290.65 315.725 288.043 304.055C287.667 302.368 288.622 300.664 290.26 300.116Z" fill="url(#paint3_linear_182_1916)"/>
<path d="M297.492 368.912C297.473 368.91 297.454 368.905 297.436 368.901L276.94 364.377C274.011 363.733 272.013 361.203 272.295 358.5L274.12 340.899C274.228 339.865 274.753 338.932 275.598 338.27C276.544 337.531 277.808 337.207 279.067 337.383C280.824 337.63 283.303 337.935 285.929 338.258C291.458 338.941 298.342 339.79 302.155 340.542C302.183 340.548 302.211 340.553 302.239 340.559C304.94 341.129 306.916 343.261 307.058 345.773C307.294 349.953 305.621 357.416 303.738 365.344C303.125 367.919 300.331 369.511 297.492 368.912ZM278.843 338.978C278.017 338.861 277.196 339.066 276.591 339.538C276.092 339.927 275.785 340.469 275.722 341.064L273.897 358.665C273.701 360.556 275.159 362.336 277.286 362.806L297.783 367.328C297.796 367.33 297.811 367.334 297.824 367.337C299.815 367.756 301.759 366.703 302.17 364.973C304.026 357.163 305.673 349.826 305.449 345.863C305.348 344.088 303.828 342.508 301.843 342.122C298.086 341.38 291.236 340.536 285.731 339.856C283.099 339.532 280.613 339.225 278.843 338.978Z" fill="white"/>
<path opacity="0.6" d="M280.678 341.221C285.056 341.834 294.635 342.859 299.093 343.74C300.983 344.114 302.396 345.599 302.493 347.325C302.682 350.677 301.234 356.976 299.856 362.778C299.443 364.517 297.542 365.574 295.585 365.142L279.207 361.528C277.192 361.083 275.807 359.355 275.996 357.524L277.454 343.458C277.607 342.003 279.056 340.993 280.678 341.221Z" fill="white"/>
<g opacity="0.6">
<path d="M317.942 361.278C318.062 363.655 319.781 365.65 322.116 366.122L512.488 404.526C514.643 404.96 516.735 403.55 517.142 401.393C517.535 399.295 516.187 397.264 514.099 396.815L324.245 355.925C320.895 355.203 317.77 357.857 317.942 361.278Z" fill="white"/>
</g>
<path d="M280.983 344.105C282.697 343.531 284.546 344.479 285.082 346.203L287.602 354.313C287.856 355.126 288.925 355.302 289.426 354.616L304.189 334.379C304.925 333.369 306.507 334.095 306.232 335.313C304.686 342.13 300.131 354.745 286.903 363.322C286.903 363.322 281.372 359.712 278.766 348.042C278.389 346.357 279.344 344.653 280.983 344.105Z" fill="url(#paint4_linear_182_1916)"/>
<path d="M288.215 412.901C288.196 412.897 288.176 412.895 288.159 412.89L267.662 408.366C264.733 407.722 262.735 405.194 263.017 402.489L264.843 384.888C264.95 383.854 265.475 382.922 266.323 382.26C267.269 381.518 268.533 381.196 269.791 381.372C271.546 381.617 274.026 381.924 276.652 382.247C282.183 382.93 289.064 383.779 292.877 384.531C292.905 384.538 292.933 384.542 292.961 384.548C295.662 385.118 297.639 387.25 297.781 389.762C298.017 393.942 296.346 401.403 294.46 409.334C293.847 411.908 291.054 413.501 288.215 412.901ZM269.566 382.967C268.74 382.851 267.918 383.055 267.314 383.528C266.817 383.917 266.507 384.458 266.447 385.053L264.619 402.654C264.424 404.545 265.882 406.325 268.009 406.793L288.505 411.317C288.52 411.319 288.533 411.324 288.548 411.326C290.538 411.745 292.482 410.69 292.892 408.96C294.748 401.152 296.396 393.815 296.172 389.852C296.071 388.077 294.553 386.491 292.566 386.111C288.809 385.369 281.959 384.525 276.456 383.846C273.821 383.521 271.335 383.214 269.566 382.967Z" fill="white"/>
<path opacity="0.6" d="M271.402 385.21C275.778 385.823 285.357 386.848 289.815 387.729C291.705 388.101 293.118 389.588 293.215 391.314C293.404 394.666 291.957 400.965 290.578 406.768C290.166 408.506 288.264 409.563 286.307 409.132L269.929 405.517C267.914 405.072 266.529 403.344 266.718 401.513L268.176 387.447C268.329 385.993 269.778 384.983 271.402 385.21Z" fill="white"/>
<g opacity="0.6">
<path d="M308.665 405.268C308.785 407.644 310.503 409.639 312.839 410.112L503.211 448.515C505.366 448.949 507.458 447.54 507.865 445.382C508.258 443.284 506.91 441.254 504.821 440.804L314.97 399.914C311.617 399.192 308.492 401.844 308.665 405.268Z" fill="white"/>
</g>
<path d="M271.705 388.094C273.419 387.521 275.269 388.468 275.804 390.192L278.325 398.302C278.579 399.115 279.647 399.291 280.148 398.605L294.912 378.368C295.647 377.358 297.23 378.084 296.955 379.303C295.409 386.119 290.854 398.734 277.626 407.311C277.626 407.311 272.095 403.701 269.488 392.031C269.112 390.347 270.067 388.642 271.705 388.094Z" fill="url(#paint5_linear_182_1916)"/>
<path d="M278.938 456.89C278.918 456.886 278.899 456.884 278.882 456.879L258.385 452.356C255.456 451.711 253.458 449.184 253.74 446.478L255.566 428.877C255.673 427.843 256.198 426.911 257.045 426.249C257.991 425.507 259.256 425.185 260.514 425.359C262.269 425.606 264.748 425.911 267.374 426.236C272.905 426.917 279.787 427.766 283.6 428.52C283.628 428.527 283.656 428.531 283.684 428.538C286.385 429.105 288.361 431.239 288.503 433.751C288.74 437.929 287.069 445.393 285.183 453.323C284.57 455.897 281.776 457.488 278.938 456.89ZM260.288 426.956C259.462 426.84 258.641 427.044 258.037 427.517C257.54 427.906 257.23 428.447 257.17 429.043L255.342 446.643C255.146 448.535 256.604 450.314 258.731 450.782L279.228 455.306C279.243 455.308 279.256 455.31 279.271 455.315C281.26 455.734 283.204 454.679 283.615 452.949C285.471 445.141 287.118 437.804 286.895 433.841C286.794 432.066 285.277 430.474 283.288 430.1C279.531 429.358 272.682 428.514 267.179 427.835C264.544 427.51 262.058 427.203 260.288 426.956Z" fill="white"/>
<path opacity="0.6" d="M262.125 429.197C266.501 429.812 276.08 430.835 280.538 431.718C282.428 432.09 283.841 433.577 283.938 435.303C284.127 438.655 282.68 444.954 281.301 450.757C280.888 452.495 278.987 453.552 277.03 453.121L260.652 449.506C258.637 449.061 257.252 447.333 257.441 445.502L258.901 431.437C259.052 429.982 260.501 428.972 262.125 429.197Z" fill="white"/>
<g opacity="0.6">
<path d="M299.387 449.254C299.508 451.633 301.226 453.628 303.561 454.098L493.933 492.502C496.088 492.938 498.181 491.529 498.587 489.371C498.981 487.273 497.632 485.243 495.544 484.793L305.693 443.903C302.34 443.181 299.215 445.833 299.387 449.254Z" fill="white"/>
</g>
<path d="M262.428 432.083C264.142 431.51 265.991 432.457 266.527 434.181L269.047 442.291C269.301 443.104 270.37 443.28 270.871 442.594L285.634 422.355C286.37 421.347 287.953 422.073 287.677 423.292C286.131 430.108 281.576 442.721 268.348 451.298C268.348 451.298 262.817 447.69 260.211 436.021C259.834 434.336 260.789 432.631 262.428 432.083Z" fill="url(#paint6_linear_182_1916)"/>
<path d="M5.84475 87.8624C4.59206 81.8803 8.92088 76.1749 15.0237 75.7743C55.4989 73.1175 194.307 62.1343 304.553 30.8126C309.579 29.3841 314.798 32.3515 316.108 37.4078L423.753 452.648C425.228 458.343 421.83 464.156 416.142 465.667C369.606 478.011 177.817 528.151 107.157 534.952C102.856 535.365 98.9394 532.472 98.0546 528.245L5.84475 87.8624Z" fill="#91B3FA"/>
<path opacity="0.6" d="M12.6224 97.4399C11.4171 91.683 15.5827 86.1926 21.4558 85.807C60.4068 83.2501 193.988 72.6806 300.082 42.5383C304.92 41.1637 309.942 44.0194 311.202 48.8853L414.794 448.489C416.213 453.969 412.944 459.566 407.469 461.016C362.686 472.898 178.119 521.149 110.119 527.695C105.981 528.093 102.212 525.307 101.36 521.241L12.6224 97.4399Z" fill="white"/>
<path opacity="0.78" d="M54.0441 121.463L75.6727 207.252C76.392 210.105 79.186 211.923 82.0871 211.418C98.2296 208.613 148.492 199.681 176.432 192.478C179.593 191.663 181.595 188.568 181.052 185.351C178.289 169 169.859 121.488 162.139 102.478C160.892 99.4069 157.671 97.6251 154.4 98.171L58.8563 114.111C55.4109 114.686 53.1907 118.078 54.0441 121.463Z" fill="white"/>
<path d="M133.9 142.637C134.614 132.169 126.7 123.104 116.225 122.391C105.75 121.677 96.6791 129.585 95.9652 140.053C95.2512 150.521 103.164 159.585 113.64 160.299C124.115 161.012 133.186 153.105 133.9 142.637Z" fill="#484BF2"/>
<path d="M97.7385 201.751L157.093 189.704C160.732 188.965 162.096 184.507 159.514 181.841C152.87 174.981 139.967 165.54 121.806 169.771C104.301 173.848 95.992 186.427 92.2707 194.995C90.6911 198.632 93.8505 202.54 97.7385 201.751Z" fill="#484BF2"/>
<g opacity="0.6">
<path d="M292.927 80.8267C294.785 80.4493 296.002 78.841 295.63 77.2526C295.26 75.6642 293.43 74.646 291.563 74.9901L187.156 94.2527C185.29 94.5968 184.561 96.2095 185.534 97.8361L186.319 99.1474C187.293 100.774 189.61 101.797 191.469 101.419L292.927 80.8267Z" fill="white"/>
</g>
<g opacity="0.6">
<path d="M190.437 110.398C188.572 110.742 187.842 112.355 188.816 113.982L189.601 115.293C190.574 116.92 192.892 117.942 194.751 117.565L296.209 96.972C298.067 96.5946 299.284 94.9862 298.912 93.3979C298.542 91.8095 296.712 90.7913 294.845 91.1353L190.437 110.398Z" fill="white"/>
</g>
<g opacity="0.6">
<path d="M193.766 126.778C191.901 127.122 191.172 128.735 192.145 130.362L192.93 131.673C193.904 133.3 196.221 134.322 198.08 133.945L299.538 113.352C301.396 112.975 302.613 111.366 302.241 109.778C301.871 108.19 300.041 107.171 298.174 107.516L193.766 126.778Z" fill="white"/>
</g>
<g opacity="0.6">
<path d="M325.697 190.295C327.557 189.917 328.725 188.319 328.295 186.742C327.864 185.166 325.989 184.173 324.127 184.535L80.0171 232.083C78.1554 232.447 77.821 233.738 79.2743 234.957L81.7736 237.052C83.227 238.271 85.9369 238.958 87.7958 238.582L325.697 190.295Z" fill="white"/>
</g>
<g opacity="0.6">
<path d="M83.2988 248.229C81.4371 248.59 81.1027 249.884 82.556 251.102L85.0554 253.198C86.5087 254.416 89.2186 255.104 91.0775 254.726L328.979 206.44C330.839 206.062 332.007 204.464 331.576 202.887C331.146 201.311 329.271 200.318 327.409 200.68L83.2988 248.229Z" fill="white"/>
</g>
<path opacity="0.6" d="M87.6774 275.408C93.4462 273.771 104.378 271.336 110.401 270.025C112.954 269.471 115.551 270.747 116.656 273.111C118.804 277.706 122.117 285.765 123.72 294.692C124.2 297.365 122.451 299.931 119.781 300.443L97.4411 304.728C94.6937 305.255 91.9922 303.623 91.1828 300.948L84.9636 280.388C84.3204 278.262 85.5389 276.017 87.6774 275.408Z" fill="white"/>
<g opacity="0.6">
<path d="M130.65 275.647C128.777 275.946 127.775 277.648 128.425 279.429L129.695 282.913C130.344 284.692 132.396 285.842 134.255 285.464L188.394 274.476C190.253 274.098 191.446 272.273 191.045 270.42L190.848 269.509C190.447 267.657 188.587 266.387 186.714 266.685L130.65 275.647Z" fill="white"/>
</g>
<path opacity="0.6" d="M209.118 250.761C214.887 249.121 225.819 246.686 231.843 245.375C234.396 244.821 236.991 246.097 238.097 248.464C240.245 253.056 243.557 261.117 245.161 270.042C245.641 272.716 243.892 275.284 241.221 275.795L218.882 280.08C216.135 280.607 213.433 278.974 212.624 276.298L206.404 255.74C205.761 253.613 206.98 251.367 209.118 250.761Z" fill="white"/>
<g opacity="0.6">
<path d="M252.09 250.997C250.217 251.298 249.217 253 249.867 254.78L251.135 258.263C251.785 260.045 253.837 261.192 255.697 260.814L309.834 249.826C311.695 249.45 312.886 247.625 312.486 245.773L312.288 244.859C311.888 243.007 310.028 241.737 308.155 242.036L252.09 250.997Z" fill="white"/>
</g>
<path d="M136.029 352.169C136.01 352.173 135.992 352.177 135.973 352.181L115.363 356.159C112.418 356.727 109.582 355.199 108.765 352.605L103.451 335.724C103.139 334.733 103.251 333.669 103.764 332.726C104.339 331.671 105.371 330.874 106.596 330.534C108.305 330.065 110.703 329.363 113.242 328.617C118.588 327.05 125.242 325.101 129.042 324.28C131.803 323.704 134.48 324.863 135.62 327.136C137.497 330.878 138.926 338.391 140.344 346.416C140.806 349.024 138.873 351.593 136.029 352.169ZM107.024 332.088C106.219 332.309 105.547 332.823 105.18 333.498C104.877 334.052 104.809 334.671 104.989 335.24L110.302 352.121C110.873 353.935 112.918 354.99 115.058 354.578L135.667 350.6C135.681 350.598 135.695 350.593 135.709 350.591C137.702 350.187 139.067 348.449 138.758 346.697C137.361 338.795 135.959 331.406 134.18 327.858C133.382 326.268 131.393 325.454 129.383 325.853C125.64 326.664 119.018 328.604 113.696 330.164C111.15 330.91 108.745 331.615 107.024 332.088Z" fill="white"/>
<path opacity="0.6" d="M109.599 333.42C113.86 332.247 123.058 329.388 127.501 328.428C129.383 328.022 131.271 328.825 132.046 330.371C133.551 333.373 134.724 339.728 135.762 345.601C136.073 347.361 134.749 349.085 132.781 349.465L116.311 352.643C114.286 353.035 112.328 351.997 111.775 350.241L107.528 336.753C107.089 335.356 108.019 333.854 109.599 333.42Z" fill="white"/>
<g opacity="0.6">
<path d="M151.768 337.05C152.822 339.186 155.192 340.336 157.523 339.842L347.512 299.592C349.662 299.136 351.024 297.013 350.54 294.87C350.069 292.788 348.024 291.46 345.929 291.877L155.428 329.638C152.065 330.304 150.251 333.979 151.768 337.05Z" fill="white"/>
</g>
<path d="M144.983 396.226C144.965 396.228 144.946 396.233 144.927 396.237L124.317 400.215C121.372 400.782 118.536 399.254 117.719 396.66L112.405 379.78C112.093 378.789 112.205 377.725 112.718 376.782C113.293 375.726 114.325 374.929 115.55 374.592C117.259 374.121 119.657 373.418 122.196 372.675C127.543 371.106 134.197 369.157 137.996 368.336C138.024 368.329 138.052 368.323 138.079 368.319C140.784 367.769 143.446 368.942 144.575 371.192C146.451 374.933 147.88 382.447 149.299 390.473C149.76 393.08 147.827 395.648 144.983 396.226ZM115.978 376.143C115.173 376.365 114.501 376.878 114.134 377.553C113.831 378.108 113.764 378.727 113.943 379.296L119.256 396.177C119.827 397.989 121.872 399.046 124.012 398.633L144.621 394.655C144.635 394.651 144.649 394.649 144.663 394.647C146.656 394.243 148.021 392.504 147.712 390.753C146.314 382.848 144.913 375.462 143.134 371.914C142.336 370.324 140.314 369.475 138.337 369.909C134.594 370.717 127.972 372.66 122.651 374.22C120.105 374.966 117.7 375.671 115.978 376.143Z" fill="white"/>
<path opacity="0.6" d="M118.553 377.476C122.814 376.302 132.012 373.444 136.455 372.484C138.338 372.077 140.225 372.881 141 374.426C142.505 377.428 143.678 383.783 144.717 389.657C145.028 391.417 143.703 393.14 141.735 393.521L125.265 396.699C123.24 397.09 121.282 396.052 120.729 394.296L116.483 380.809C116.044 379.412 116.973 377.91 118.553 377.476Z" fill="white"/>
<g opacity="0.6">
<path d="M160.722 381.106C161.777 383.242 164.146 384.391 166.477 383.897L356.467 343.647C358.615 343.192 359.979 341.069 359.493 338.926C359.022 336.844 356.979 335.515 354.882 335.932L164.382 373.693C161.02 374.36 159.206 378.035 160.722 381.106Z" fill="white"/>
</g>
<path d="M153.937 440.28C153.919 440.284 153.9 440.289 153.881 440.293L133.271 444.271C130.327 444.838 127.49 443.31 126.673 440.716L121.36 423.835C121.048 422.845 121.159 421.781 121.673 420.837C122.248 419.782 123.28 418.985 124.504 418.645C126.213 418.177 128.612 417.474 131.151 416.728C136.497 415.162 143.151 413.212 146.951 412.392C146.978 412.385 147.006 412.379 147.033 412.372C149.738 411.824 152.4 412.998 153.529 415.248C155.405 418.989 156.834 426.502 158.253 434.527C158.714 437.136 156.781 439.704 153.937 440.28ZM124.932 420.199C124.127 420.42 123.455 420.934 123.088 421.607C122.785 422.163 122.718 422.782 122.897 423.352L128.211 440.233C128.782 442.046 130.826 443.102 132.966 442.689L153.576 438.711C153.589 438.707 153.603 438.705 153.617 438.702C155.61 438.298 156.975 436.56 156.666 434.808C155.269 426.904 153.867 419.518 152.088 415.97C151.29 414.379 149.267 413.524 147.291 413.965C143.548 414.775 136.926 416.715 131.605 418.276C129.059 419.021 126.654 419.726 124.932 420.199Z" fill="white"/>
<path opacity="0.6" d="M127.507 421.532C131.768 420.358 140.966 417.5 145.409 416.539C147.292 416.133 149.179 416.937 149.954 418.482C151.459 421.484 152.632 427.839 153.671 433.712C153.982 435.473 152.657 437.196 150.689 437.576L134.219 440.755C132.194 441.146 130.236 440.108 129.683 438.352L125.437 424.865C124.998 423.468 125.927 421.966 127.507 421.532Z" fill="white"/>
<g opacity="0.6">
<path d="M169.677 425.161C170.731 427.297 173.1 428.447 175.431 427.953L365.421 387.703C367.57 387.248 368.931 385.124 368.447 382.982C367.976 380.899 365.931 379.571 363.837 379.988L173.337 417.749C169.974 418.415 168.16 422.09 169.677 425.161Z" fill="white"/>
</g>
<path d="M162.891 484.336C162.873 484.34 162.854 484.344 162.835 484.349L142.225 488.326C139.281 488.894 136.444 487.366 135.627 484.772L130.314 467.891C130.002 466.9 130.113 465.837 130.627 464.893C131.202 463.838 132.234 463.041 133.458 462.701C135.167 462.233 137.566 461.53 140.105 460.784C145.451 459.217 152.105 457.268 155.905 456.447C155.932 456.441 155.96 456.434 155.987 456.428C158.693 455.88 161.354 457.053 162.483 459.303C164.359 463.045 165.788 470.558 167.207 478.583C167.668 481.192 165.735 483.76 162.891 484.336ZM133.887 464.255C133.081 464.476 132.409 464.99 132.042 465.663C131.739 466.219 131.672 466.838 131.851 467.408L137.165 484.288C137.736 486.102 139.78 487.157 141.92 486.745L162.53 482.767C162.543 482.763 162.557 482.76 162.571 482.758C164.564 482.354 165.93 480.616 165.62 478.864C164.223 470.96 162.821 463.574 161.042 460.026C160.244 458.435 158.22 457.576 156.246 458.02C152.502 458.831 145.88 460.771 140.559 462.331C138.013 463.077 135.608 463.782 133.887 464.255Z" fill="white"/>
<path opacity="0.6" d="M136.461 465.587C140.722 464.414 149.921 461.556 154.364 460.595C156.246 460.189 158.133 460.993 158.908 462.538C160.414 465.54 161.587 471.895 162.625 477.768C162.936 479.528 161.611 481.252 159.644 481.632L143.174 484.811C141.148 485.202 139.19 484.164 138.637 482.408L134.391 468.92C133.952 467.524 134.882 466.021 136.461 465.587Z" fill="white"/>
<g opacity="0.6">
<path d="M178.631 469.217C179.685 471.353 182.054 472.503 184.386 472.009L374.374 431.759C376.525 431.303 377.886 429.18 377.402 427.037C376.931 424.955 374.886 423.627 372.791 424.042L182.291 461.805C178.928 462.471 177.114 466.146 178.631 469.217Z" fill="white"/>
</g>
<path d="M137.887 468.115C139.232 466.909 141.306 467.044 142.482 468.413L148.017 474.858C148.571 475.503 149.624 475.241 149.811 474.411L155.324 449.981C155.599 448.762 157.34 448.803 157.57 450.03C158.859 456.901 159.687 470.285 150.952 483.403C150.952 483.403 144.441 482.285 137.415 472.608C136.4 471.209 136.6 469.266 137.887 468.115Z" fill="url(#paint7_linear_182_1916)"/>
<path opacity="0.9" d="M129.067 447.12C130.953 466.902 135.382 493.056 140.706 515.596H144.049C137.166 488.397 130.83 451.15 132.696 408.214C134.577 364.915 145.189 312.342 125.401 287.228C108.932 266.329 39.0494 263.204 16.0694 262.742C13.198 262.686 11.5542 265.991 13.3415 268.237C22.1513 279.315 40.5995 304.971 42.2063 327.373C44.3248 356.901 67.2896 380.076 90.1083 389.723C112.927 399.373 125.215 406.731 129.067 447.12Z" fill="#4F52FF"/>
<path opacity="0.5" d="M44.8012 280.996C58.9362 284.581 72.3057 291.023 84.0031 299.85C89.8629 304.247 95.1735 309.411 99.7528 315.177C104.284 320.975 108.088 327.398 110.729 334.299L111.707 336.889C112.027 337.755 112.266 338.647 112.549 339.526C112.809 340.407 113.104 341.294 113.336 342.169L114.034 344.793C114.973 348.292 115.895 351.792 116.781 355.304C118.563 362.323 120.234 369.37 121.795 376.442C124.923 390.585 127.614 404.823 129.429 419.219C129.473 419.565 129.228 419.879 128.882 419.924C128.549 419.965 128.243 419.739 128.183 419.413L128.179 419.393C126.889 412.308 125.462 405.22 123.901 398.176C122.371 391.12 120.757 384.086 119.066 377.07L116.495 366.552L113.806 356.065C112.912 352.57 111.982 349.082 111.036 345.599L110.332 342.986C110.098 342.115 109.818 341.288 109.563 340.437C109.296 339.594 109.074 338.735 108.771 337.905L107.846 335.417C105.365 328.78 101.707 322.636 97.4431 316.973C95.2483 314.186 92.9522 311.465 90.4038 308.977L89.4664 308.027L88.4924 307.114C87.8403 306.507 87.2036 305.884 86.5384 305.291C85.1915 304.124 83.8584 302.938 82.4479 301.842C76.8887 297.357 70.7825 293.549 64.4369 290.209C58.0904 286.878 51.4132 284.065 44.5605 281.98L44.5289 281.97C44.2614 281.888 44.1107 281.606 44.1919 281.338C44.2713 281.08 44.541 280.929 44.8012 280.996Z" fill="white"/>
<path opacity="0.9" d="M129.726 473.915C141.677 491.449 140.143 501.262 140.51 509.572C140.575 511.046 140.656 513.133 140.827 515.596H144.091C143.425 512.213 142.952 508.803 142.783 505.457C141.62 482.507 136.439 443.334 116.633 419.9C96.8271 396.467 75.1379 394.329 47.8086 415.632C25.0338 433.384 10.8276 442.343 2.49596 444.009C0.43317 444.421 -0.619518 446.749 0.384353 448.597C5.72779 458.429 20.836 481.018 46.2024 479.427C78.5594 477.399 117.774 456.379 129.726 473.915Z" fill="#FF928E"/>
<path opacity="0.5" d="M57.0665 443.856C58.8564 442.152 60.7525 440.62 62.7095 439.139C64.6654 437.662 66.6815 436.257 68.7802 434.974C72.9632 432.393 77.4271 430.19 82.1809 428.673C84.5583 427.923 87.0071 427.345 89.5116 427.025C92.0159 426.722 94.5753 426.681 97.1149 426.997C97.7467 427.098 98.385 427.158 99.0112 427.298C99.6325 427.446 100.275 427.564 100.878 427.736L104.445 428.843L107.935 430.199L111.318 431.823C115.752 434.157 119.764 437.312 123.102 441.03C126.466 444.737 129.098 449.007 131.263 453.432L132.076 455.093C132.355 455.644 132.557 456.226 132.802 456.791C133.262 457.932 133.757 459.058 134.186 460.208L135.387 463.688C135.812 464.839 136.083 466.034 136.426 467.21C137.783 471.912 138.717 476.709 139.524 481.51C139.569 481.776 139.388 482.03 139.12 482.075C138.864 482.118 138.621 481.957 138.56 481.707L138.556 481.692C137.417 476.988 136.321 472.277 134.753 467.719C134.043 465.415 133.141 463.189 132.303 460.941C131.851 459.83 131.336 458.749 130.857 457.653C130.604 457.111 130.391 456.548 130.105 456.024L129.271 454.44C127.065 450.213 124.386 446.25 121.186 442.786C117.984 439.322 114.185 436.463 110.023 434.273L106.832 432.763L103.526 431.497L100.131 430.465C99.5669 430.304 99.014 430.199 98.4553 430.061C97.8981 429.932 97.3235 429.876 96.7585 429.78C94.4794 429.481 92.1482 429.498 89.8325 429.763C87.5138 430.01 85.2058 430.497 82.9392 431.162C78.3989 432.481 74.0211 434.454 69.8153 436.749C67.7204 437.912 65.6448 439.128 63.6297 440.445C61.6213 441.765 59.6364 443.158 57.7452 444.621L57.7327 444.63C57.5093 444.804 57.1878 444.763 57.0149 444.539C56.8531 444.331 56.88 444.034 57.0665 443.856Z" fill="white"/>
<path d="M130.4 130.419C130.4 112.452 144.975 97.8862 162.955 97.8862H439.807C455.08 97.8862 467.675 109.847 468.452 125.091L488.888 526.199C489.495 538.127 480.099 548.189 468.148 548.406L150.841 554.169C139.612 554.373 130.4 545.332 130.4 534.11V130.419Z" fill="url(#paint8_linear_182_1916)"/>
<path d="M153.081 104.06C153.047 98.3115 158.106 93.8623 163.806 94.6349C201.613 99.7582 331.619 115.604 439.107 107.359C444.011 106.983 448.264 110.694 448.525 115.6L469.953 518.495C470.247 524.02 466.026 528.744 460.499 529.07C415.292 531.744 229.114 542.079 162.705 535.129C158.664 534.705 155.596 531.305 155.572 527.244L153.081 104.06Z" fill="#91B3FA"/>
<path opacity="0.6" d="M157.534 114.156C157.501 108.624 162.37 104.343 167.856 105.086C204.239 110.016 329.35 125.266 432.791 117.331C437.507 116.969 441.602 120.54 441.854 125.262L462.475 512.985C462.757 518.302 458.695 522.849 453.376 523.163C409.871 525.735 230.703 535.681 166.796 528.993C162.907 528.585 159.954 525.312 159.931 521.405L157.534 114.156Z" fill="white"/>
<path opacity="0.78" d="M191.215 144.049L195.079 227.173C195.207 229.939 197.442 232.137 200.211 232.214C215.615 232.649 263.619 233.818 290.725 232.406C293.789 232.247 296.215 229.769 296.316 226.702C296.834 211.113 297.966 165.74 294.411 146.773C293.837 143.709 291.2 141.464 288.084 141.355L197.028 138.173C193.744 138.059 191.062 140.77 191.215 144.049Z" fill="white"/>
<path d="M243.611 191.637C253.486 191.637 261.49 183.637 261.49 173.768C261.49 163.899 253.486 155.899 243.611 155.899C233.733 155.899 225.729 163.899 225.729 173.768C225.729 183.637 233.733 191.637 243.611 191.637Z" fill="#4042E2"/>
<path d="M216.45 226.231H273.417C276.91 226.231 279.002 222.378 277.123 219.436C272.284 211.87 262.159 200.754 244.626 201.256C227.727 201.739 217.71 211.78 212.675 218.981C210.538 222.039 212.718 226.231 216.45 226.231Z" fill="#4042E2"/>
<g opacity="0.6">
<path d="M419.022 151.285C420.806 151.285 422.23 150.03 422.185 148.497C422.14 146.963 420.643 145.682 418.86 145.65L319.011 143.872C317.226 143.84 316.252 145.19 316.845 146.872L317.323 148.228C317.914 149.909 319.86 151.285 321.643 151.285H419.022Z" fill="white"/>
</g>
<g opacity="0.6">
<path d="M319.011 159.368C317.226 159.337 316.252 160.687 316.845 162.368L317.323 163.724C317.916 165.406 319.86 166.781 321.643 166.781H419.024C420.806 166.781 422.23 165.527 422.185 163.993C422.14 162.459 420.643 161.178 418.86 161.147L319.011 159.368Z" fill="white"/>
</g>
<g opacity="0.6">
<path d="M319.011 175.09C317.226 175.058 316.252 176.408 316.845 178.09L317.323 179.446C317.916 181.127 319.86 182.503 321.643 182.503H419.024C420.806 182.503 422.23 181.248 422.185 179.714C422.14 178.181 420.643 176.9 418.86 176.868L319.011 175.09Z" fill="white"/>
</g>
<g opacity="0.6">
<path d="M428.721 258.321C430.505 258.321 431.882 257.066 431.781 255.532C431.68 253.997 430.138 252.732 428.353 252.719L194.431 250.875C192.647 250.862 192.097 251.99 193.208 253.385L195.119 255.785C196.231 257.18 198.6 258.321 200.384 258.321H428.721Z" fill="white"/>
</g>
<g opacity="0.6">
<path d="M194.431 266.372C192.647 266.357 192.097 267.487 193.208 268.882L195.119 271.28C196.231 272.675 198.6 273.816 200.384 273.816H428.721C430.505 273.816 431.882 272.561 431.781 271.029C431.68 269.494 430.138 268.228 428.353 268.213L194.431 266.372Z" fill="white"/>
</g>
<path d="M193.376 292.244C199 291.814 209.533 291.614 215.331 291.533C217.787 291.498 219.942 293.162 220.518 295.549C221.637 300.185 223.181 308.233 222.985 316.763C222.927 319.316 220.834 321.355 218.277 321.327L196.882 321.097C194.251 321.069 192.067 319.06 191.822 316.44L189.941 296.327C189.746 294.247 191.291 292.405 193.376 292.244Z" fill="url(#paint9_linear_182_1916)"/>
<g opacity="0.6">
<path d="M232.942 300.505C231.159 300.43 229.916 301.812 230.183 303.574L230.701 307.021C230.966 308.785 232.641 310.227 234.426 310.227H286.387C288.172 310.227 289.613 308.768 289.591 306.987L289.581 306.11C289.557 304.326 288.082 302.807 286.299 302.732L232.942 300.505Z" fill="white"/>
</g>
<path d="M309.933 292.244C315.559 291.814 326.09 291.614 331.888 291.533C334.346 291.498 336.501 293.162 337.075 295.549C338.196 300.185 339.74 308.233 339.544 316.763C339.486 319.316 337.393 321.355 334.836 321.327L313.441 321.097C310.811 321.069 308.626 319.06 308.381 316.44L306.499 296.327C306.305 294.247 307.849 292.405 309.933 292.244Z" fill="url(#paint10_linear_182_1916)"/>
<g opacity="0.6">
<path d="M349.499 300.505C347.716 300.43 346.475 301.812 346.74 303.574L347.258 307.021C347.522 308.785 349.2 310.227 350.985 310.227H402.946C404.729 310.227 406.172 308.768 406.148 306.987L406.138 306.11C406.116 304.326 404.639 302.807 402.856 302.732L349.499 300.505Z" fill="white"/>
</g>
<path d="M223.563 372.047C223.546 372.047 223.527 372.047 223.51 372.047L203.767 371.858C200.946 371.83 198.618 369.89 198.351 367.347L196.615 350.793C196.513 349.822 196.815 348.861 197.465 348.087C198.193 347.223 199.294 346.68 200.486 346.598C202.149 346.484 204.492 346.284 206.971 346.074C212.193 345.629 218.693 345.077 222.348 345.031C225.002 345.019 227.252 346.587 227.877 348.895C228.905 352.695 228.815 359.888 228.619 367.551C228.555 370.04 226.293 372.047 223.563 372.047ZM200.59 348.111C199.806 348.163 199.09 348.511 198.626 349.063C198.243 349.519 198.064 350.077 198.123 350.634L199.858 367.188C200.045 368.968 201.731 370.322 203.781 370.343L223.525 370.532C223.538 370.532 223.551 370.532 223.563 370.532C225.477 370.532 227.06 369.185 227.103 367.513C227.297 359.967 227.389 352.895 226.413 349.291C225.976 347.677 224.295 346.553 222.368 346.547C218.766 346.592 212.298 347.142 207.1 347.585C204.614 347.795 202.265 347.995 200.59 348.111Z" fill="white"/>
<path opacity="0.6" d="M202.714 349.82C206.861 349.536 215.875 348.62 220.151 348.567C221.961 348.545 223.551 349.639 223.976 351.208C224.8 354.257 224.692 360.335 224.548 365.944C224.505 367.622 222.961 368.963 221.077 368.946L205.3 368.794C203.359 368.776 201.749 367.455 201.568 365.731L200.181 352.504C200.038 351.135 201.176 349.923 202.714 349.82Z" fill="white"/>
<g opacity="0.6">
<path d="M240.903 361.055C241.475 363.221 243.445 364.723 245.686 364.704L428.353 363.148C430.419 363.131 432.073 361.427 432.028 359.364C431.983 357.356 430.348 355.749 428.338 355.74L245.667 354.906C242.441 354.891 240.082 357.939 240.903 361.055Z" fill="white"/>
</g>
<path d="M203.554 352.413C205.019 351.554 206.906 352.068 207.734 353.55L211.628 360.526C212.018 361.225 213.037 361.18 213.365 360.451L223.024 338.963C223.505 337.892 225.103 338.253 225.086 339.429C224.987 346.001 223.241 358.495 212.732 368.953C212.732 368.953 206.941 366.703 202.277 356.469C201.603 354.99 202.152 353.237 203.554 352.413Z" fill="url(#paint11_linear_182_1916)"/>
<path d="M223.563 414.332C223.546 414.332 223.527 414.332 223.51 414.332L203.767 414.141C200.946 414.115 198.618 412.175 198.351 409.63L196.615 393.078C196.513 392.107 196.815 391.146 197.465 390.372C198.193 389.508 199.294 388.965 200.486 388.883C202.149 388.769 204.492 388.569 206.971 388.359C212.193 387.914 218.693 387.362 222.348 387.316C222.374 387.316 222.402 387.316 222.428 387.316C225.024 387.316 227.258 388.896 227.877 391.18C228.905 394.98 228.815 402.173 228.619 409.836C228.555 412.325 226.293 414.332 223.563 414.332ZM200.59 390.394C199.806 390.448 199.09 390.796 198.626 391.348C198.243 391.801 198.064 392.36 198.123 392.919L199.858 409.473C200.045 411.25 201.731 412.607 203.781 412.626L223.525 412.817C223.538 412.817 223.551 412.817 223.563 412.817C225.477 412.817 227.06 411.47 227.103 409.798C227.297 402.25 227.389 395.18 226.413 391.576C225.976 389.962 224.271 388.801 222.368 388.832C218.766 388.877 212.297 389.427 207.1 389.869C204.614 390.08 202.265 390.28 200.59 390.394Z" fill="white"/>
<path opacity="0.6" d="M202.714 392.102C206.861 391.821 215.875 390.905 220.151 390.852C221.961 390.83 223.551 391.924 223.976 393.493C224.8 396.542 224.692 402.618 224.548 408.227C224.505 409.907 222.961 411.248 221.077 411.231L205.3 411.079C203.359 411.059 201.749 409.738 201.568 408.016L200.181 394.789C200.038 393.42 201.176 392.208 202.714 392.102Z" fill="white"/>
<g opacity="0.6">
<path d="M240.903 403.34C241.475 405.506 243.445 407.008 245.686 406.989L428.353 405.433C430.419 405.416 432.073 403.711 432.028 401.648C431.983 399.641 430.348 398.034 428.338 398.025L245.667 397.191C242.441 397.176 240.082 400.224 240.903 403.34Z" fill="white"/>
</g>
<path d="M203.554 394.698C205.019 393.839 206.906 394.352 207.734 395.835L211.628 402.811C212.018 403.51 213.037 403.464 213.365 402.736L223.024 381.247C223.505 380.175 225.103 380.538 225.086 381.714C224.987 388.286 223.241 400.78 212.732 411.238C212.732 411.238 206.941 408.987 202.277 398.754C201.603 397.275 202.152 395.521 203.554 394.698Z" fill="url(#paint12_linear_182_1916)"/>
<path d="M223.563 456.615C223.546 456.615 223.527 456.615 223.51 456.615L203.767 456.426C200.946 456.4 198.618 454.462 198.351 451.915L196.615 435.363C196.513 434.392 196.815 433.429 197.466 432.657C198.193 431.791 199.294 431.25 200.486 431.168C202.15 431.054 204.492 430.854 206.972 430.644C212.193 430.199 218.693 429.646 222.348 429.599C222.374 429.599 222.402 429.599 222.428 429.599C225.024 429.599 227.258 431.179 227.877 433.465C228.905 437.265 228.815 444.458 228.619 452.119C228.555 454.61 226.293 456.615 223.563 456.615ZM200.59 432.679C199.806 432.732 199.09 433.081 198.626 433.631C198.243 434.086 198.064 434.645 198.123 435.204L199.858 451.758C200.045 453.535 201.731 454.891 203.781 454.911L223.525 455.1C223.538 455.1 223.551 455.1 223.563 455.1C225.477 455.1 227.06 453.752 227.103 452.083C227.297 444.535 227.389 437.463 226.413 433.859C225.976 432.245 224.271 431.08 222.368 431.114C218.766 431.159 212.297 431.712 207.1 432.152C204.614 432.365 202.265 432.565 200.59 432.679Z" fill="white"/>
<path opacity="0.6" d="M202.714 434.387C206.861 434.104 215.875 433.19 220.151 433.136C221.961 433.113 223.551 434.207 223.976 435.778C224.8 438.825 224.692 444.903 224.548 450.512C224.505 452.192 222.961 453.533 221.077 453.514L205.3 453.363C203.359 453.344 201.749 452.022 201.568 450.301L200.181 437.074C200.038 435.705 201.176 434.493 202.714 434.387Z" fill="white"/>
<g opacity="0.6">
<path d="M240.903 445.625C241.475 447.791 243.445 449.293 245.686 449.274L428.353 447.718C430.419 447.698 432.073 445.996 432.028 443.931C431.983 441.924 430.348 440.319 428.338 440.308L245.667 439.476C242.441 439.461 240.082 442.508 240.903 445.625Z" fill="white"/>
</g>
<path d="M203.554 436.983C205.019 436.124 206.906 436.637 207.734 438.12L211.628 445.096C212.018 445.794 213.037 445.749 213.365 445.021L223.024 423.532C223.505 422.46 225.103 422.823 225.086 423.999C224.987 430.57 223.241 443.065 212.732 453.522C212.732 453.522 206.941 451.272 202.277 441.039C201.603 439.56 202.152 437.806 203.554 436.983Z" fill="url(#paint13_linear_182_1916)"/>
<path d="M223.563 498.9C223.546 498.9 223.527 498.9 223.51 498.9L203.767 498.711C200.946 498.685 198.618 496.744 198.351 494.2L196.615 477.648C196.513 476.676 196.815 475.714 197.466 474.942C198.193 474.076 199.294 473.535 200.486 473.451C202.15 473.339 204.492 473.139 206.972 472.928C212.193 472.484 218.693 471.931 222.348 471.884C222.374 471.884 222.402 471.884 222.428 471.884C225.024 471.884 227.258 473.464 227.877 475.75C228.905 479.55 228.815 486.743 228.619 494.404C228.555 496.893 226.293 498.9 223.563 498.9ZM200.59 474.964C199.806 475.017 199.09 475.363 198.626 475.916C198.243 476.371 198.064 476.93 198.123 477.489L199.858 494.043C200.045 495.82 201.731 497.176 203.781 497.196L223.525 497.385C223.538 497.385 223.551 497.385 223.563 497.385C225.477 497.385 227.06 496.037 227.103 494.365C227.297 486.82 227.389 479.747 226.413 476.143C225.976 474.53 224.271 473.358 222.368 473.399C218.766 473.444 212.297 473.994 207.1 474.437C204.614 474.65 202.265 474.85 200.59 474.964Z" fill="white"/>
<path opacity="0.6" d="M202.714 476.672C206.861 476.388 215.875 475.475 220.151 475.421C221.961 475.398 223.551 476.492 223.976 478.063C224.8 481.11 224.692 487.188 224.548 492.797C224.505 494.477 222.961 495.818 221.077 495.799L205.3 495.648C203.359 495.629 201.749 494.307 201.568 492.586L200.181 479.356C200.038 477.99 201.176 476.777 202.714 476.672Z" fill="white"/>
<g opacity="0.6">
<path d="M240.903 487.91C241.475 490.074 243.445 491.578 245.686 491.559L428.353 490.001C430.419 489.983 432.073 488.281 432.028 486.216C431.983 484.209 430.348 482.601 428.338 482.593L245.667 481.761C242.441 481.746 240.082 484.793 240.903 487.91Z" fill="white"/>
</g>
<path d="M203.554 479.268C205.019 478.409 206.906 478.922 207.734 480.405L211.628 487.381C212.018 488.077 213.037 488.034 213.365 487.306L223.024 465.817C223.505 464.745 225.103 465.108 225.086 466.281C224.987 472.855 223.241 485.348 212.732 495.807C212.732 495.807 206.941 493.557 202.277 483.323C201.603 481.845 202.152 480.089 203.554 479.268Z" fill="url(#paint14_linear_182_1916)"/>
<path d="M318.55 43.1972C308.55 36.245 299.856 36.3828 293.735 38.1878C288.15 39.8341 284.531 45.2214 285.062 51.0151L287.703 79.8084L319.114 82.5942C319.114 82.5942 338.163 56.8317 318.55 43.1972ZM304.738 66.4264C300.411 66.4264 296.905 62.9221 296.905 58.5993C296.905 54.2765 300.411 50.772 304.738 50.772C309.062 50.772 312.57 54.2765 312.57 58.5993C312.57 62.9221 309.062 66.4264 304.738 66.4264Z" fill="url(#paint15_linear_182_1916)"/>
<path d="M290.841 67.6962C290.454 67.6962 290.123 67.4011 290.086 67.0074L289.667 62.422C289.628 62.0055 289.936 61.6372 290.353 61.5987C290.776 61.5589 291.138 61.8673 291.176 62.2844L291.596 66.8699C291.634 67.2864 291.327 67.6547 290.912 67.6932C290.886 67.6954 290.862 67.6962 290.841 67.6962ZM290.017 58.7101C289.63 58.7101 289.299 58.4151 289.262 58.0214L288.944 54.5403C288.437 49.0213 291.912 43.8825 297.206 42.321C300.955 41.2151 304.819 41.0569 308.686 41.8497C309.097 41.9333 309.361 42.3341 309.277 42.7439C309.194 43.1531 308.796 43.4148 308.383 43.3334C304.759 42.5922 301.144 42.7394 297.634 43.7735C293.034 45.1309 290.013 49.6009 290.454 54.4026L290.772 57.8836C290.811 58.3001 290.503 58.6684 290.086 58.7069C290.062 58.7093 290.039 58.7101 290.017 58.7101Z" fill="white"/>
<path d="M244.83 98.416V83.9397C244.83 78.9425 248.974 74.9401 253.972 75.1111L353.849 78.5307C358.282 78.6824 361.871 82.1787 362.138 86.6028L362.972 100.512L244.83 98.416Z" fill="url(#paint16_linear_182_1916)"/>
<path d="M282.073 80.5657H277.776C277.359 80.5657 277.019 80.227 277.019 79.8083C277.019 79.3897 277.359 79.0508 277.776 79.0508H282.073C282.49 79.0508 282.83 79.3895 282.83 79.8083C282.83 80.227 282.49 80.5657 282.073 80.5657Z" fill="white"/>
<path d="M250.236 93.8703C249.817 93.8703 249.479 93.5316 249.479 93.1127V87.2565C249.479 82.7317 253.163 79.0508 257.69 79.0508H273.482C273.901 79.0508 274.239 79.3895 274.239 79.8083C274.239 80.227 273.901 80.5657 273.482 80.5657H257.69C253.998 80.5657 250.996 83.5675 250.996 87.2563V93.1125C250.993 93.5314 250.656 93.8703 250.236 93.8703Z" fill="white"/>
<path d="M389.413 192.976L365.901 173.817L342.389 192.976C344.264 174.955 345.138 154.85 344.146 133.032C343.83 126.083 343.342 119.353 342.716 112.854C342.636 112.019 342.912 111.188 343.477 110.568C344.041 109.947 344.843 109.595 345.682 109.595C359.32 109.595 372.957 109.595 386.593 109.595C388.176 109.595 389.484 110.832 389.566 112.411C390.088 122.393 390.428 132.722 390.542 143.378C390.727 160.762 390.292 177.323 389.413 192.976Z" fill="#10B981"/>
<path d="M204.135 102.072C204.376 97.0586 208.514 93.1179 213.536 93.1179L388.189 93.1132C394.469 93.1129 399.839 97.6292 400.91 103.813L401.058 104.666C402.23 111.439 397.013 117.635 390.133 117.635H210.95C206.833 117.635 203.552 114.195 203.75 110.086L204.135 102.072Z" fill="url(#paint17_linear_182_1916)"/>
<path d="M509.041 585.23C499.892 585.651 491.037 585.387 485.123 585.081C490.508 581.252 502.91 572.922 513.288 569.604L520.413 569.178C520.413 569.178 522.828 572.847 523.688 581.243C522.507 582.715 519.058 584.77 509.041 585.23Z" fill="url(#paint18_linear_182_1916)"/>
<path d="M485.049 585.135C485.073 585.118 485.099 585.099 485.123 585.081C491.036 585.387 499.892 585.651 509.041 585.23C519.058 584.768 522.507 582.715 523.688 581.243C523.729 581.63 523.77 582.015 523.802 582.421C523.95 584.265 522.581 585.881 520.738 586.021C513.243 586.588 494.664 587.869 485.705 587.4C484.525 587.338 484.086 585.821 485.049 585.135Z" fill="url(#paint19_linear_182_1916)"/>
<path d="M574.48 582.782C575.151 578.49 576.224 572.286 577.054 570.698C578.357 568.209 582.815 570.698 582.815 570.698C582.815 570.698 585.944 572.157 587.385 574.587C588.304 576.137 590.843 580.547 592.564 583.538C592.762 583.884 592.843 584.25 592.833 584.604L574.983 585.23C574.546 584.529 574.34 583.676 574.48 582.782Z" fill="url(#paint20_linear_182_1916)"/>
<path d="M592.835 584.604C592.804 585.625 591.996 586.549 590.856 586.579L578.138 586.93C576.794 586.966 575.63 586.268 574.983 585.23L592.835 584.604Z" fill="url(#paint21_linear_182_1916)"/>
<path d="M573.116 556.432C573.271 556.948 575.576 568.123 576.587 573.027C576.867 574.381 578.088 575.333 579.471 575.265C580.226 575.226 581.105 575.159 582.026 575.039C583.662 574.828 584.908 573.464 584.97 571.817C585.133 567.521 585.213 559.273 583.634 556.076C581.458 551.668 573.116 556.432 573.116 556.432Z" fill="url(#paint22_linear_182_1916)"/>
<path d="M521.815 559.632C520.826 559.6 522.209 564.736 520.712 569.784C520.374 570.923 519.523 571.817 518.335 571.832C517.566 571.841 516.652 571.828 515.725 571.753C514.331 571.641 513.213 570.56 513.084 569.17L511.865 556.076L521.815 559.632Z" fill="url(#paint23_linear_182_1916)"/>
<path d="M494.142 420.446C494.583 422.593 510.17 513.442 511.116 560.451C511.131 561.24 511.712 561.902 512.492 562.009C514.471 562.286 518.325 562.641 522.06 561.947C522.572 561.852 522.959 561.431 522.991 560.913C523.535 552.154 527.916 478.084 522.55 443.216C522.55 443.216 566.869 536.422 573.585 562.123C573.748 562.748 574.323 563.17 574.97 563.135C576.867 563.034 580.815 562.692 583.948 561.541C585.071 561.128 585.712 559.948 585.428 558.785C581.675 543.405 555.372 437.437 537.512 414.087L494.142 420.446Z" fill="#4B4EF7"/>
<path d="M522.551 443.798C522.699 443.798 522.845 443.742 522.957 443.63C523.187 443.407 523.191 443.039 522.968 442.809L517.032 436.745C516.809 436.515 516.439 436.513 516.211 436.736C515.981 436.96 515.976 437.329 516.202 437.557L522.135 443.622C522.249 443.738 522.4 443.798 522.551 443.798Z" fill="url(#paint24_linear_182_1916)"/>
<path d="M479.153 303.209C492.411 301.217 518.432 298.363 535.406 303.34L533.566 355.764L472.071 349.138L466.854 341.731C466.854 341.731 469.271 304.694 479.153 303.209Z" fill="white"/>
<path d="M509.781 275.142C509.781 275.142 511.009 295.994 510.776 302.48C510.776 302.48 493.695 305.274 489.628 302.353L492.841 277.635L509.781 275.142Z" fill="url(#paint25_linear_182_1916)"/>
<path d="M493.174 254.26C493.174 254.26 486.297 266.324 485.211 272.928C484.125 279.532 482.228 283.689 489.77 285.855C497.314 288.019 504.202 284.89 508.424 278.649C508.424 278.649 515.019 269.041 514.237 264.732C513.454 260.423 493.174 254.26 493.174 254.26Z" fill="url(#paint26_linear_182_1916)"/>
<path d="M506.31 273.607L505.338 273.502C505.338 273.502 510.226 265.725 506.865 263.904C503.501 262.084 489.869 257.745 487.396 252.48C485.009 247.404 488.258 241.528 492.312 240.222C492.568 240.14 492.843 240.286 492.944 240.536L493.198 241.176C493.374 241.614 493.994 241.617 494.172 241.18C494.342 240.766 494.929 240.735 495.123 241.139C495.884 242.715 498.118 245.386 504.671 247.34C513.968 250.11 519.826 254.621 519.273 261.188C519.239 261.603 519.658 261.88 520.037 261.702C520.783 261.351 521.925 261.272 523.286 262.69C525.656 265.16 523.979 270.721 517.766 274.777C517.469 274.97 517.426 275.393 517.699 275.617C518.662 276.401 520.032 278.17 515.804 279.874C511.48 281.619 509.084 281.121 508.196 280.79C507.957 280.699 507.815 280.459 507.858 280.207L508.843 274.441C508.895 274.143 508.682 273.863 508.381 273.831L506.31 273.607Z" fill="url(#paint27_linear_182_1916)"/>
<path d="M505.94 274.796C505.94 274.796 508.914 266.937 512.299 269.593C515.682 272.251 509.439 278.451 506.49 278.441L505.94 274.796Z" fill="url(#paint28_linear_182_1916)"/>
<path d="M432.282 344.219L433.912 337.813C434.72 334.645 437.873 332.668 441.08 333.321L594.658 364.631C598.155 365.344 600.402 368.766 599.665 372.256L590.303 416.608L432.282 344.219Z" fill="url(#paint29_linear_182_1916)"/>
<path d="M417.72 422.019L429.271 339.057C429.51 337.342 431.163 336.195 432.856 336.571L590.594 371.572C593.959 372.32 596.071 375.666 595.297 379.023L582.058 436.369L417.72 422.019Z" fill="white"/>
<path d="M421.886 418.261L426.31 344.213C426.424 342.309 428.206 340.95 430.073 341.346L589.469 375.052C591.716 375.527 593.196 377.678 592.837 379.945L584.346 433.435L421.886 418.261Z" fill="white"/>
<path d="M410.34 435.765L420.374 355.558C420.875 351.56 424.645 348.814 428.607 349.562L592.054 380.39C595.37 381.013 597.548 384.207 596.923 387.518L583.118 460.608C582.467 464.057 579.23 466.395 575.751 465.929L417.299 444.784C412.895 444.195 409.789 440.17 410.34 435.765Z" fill="url(#paint30_linear_182_1916)"/>
<path d="M486.12 360.408C485.48 363.812 482.198 366.049 478.791 365.407L442.348 358.534C438.942 357.891 436.703 354.612 437.346 351.208C437.989 347.806 441.271 345.569 444.675 346.209L481.118 353.084C484.525 353.727 486.763 357.006 486.12 360.408Z" fill="url(#paint31_linear_182_1916)"/>
<path d="M518.254 326.199L535.406 303.34C535.406 303.34 562.968 332.599 568.256 369.737L551.062 378.116C545.727 365.611 535.905 348.67 518.254 326.199Z" fill="white"/>
<path d="M542.83 429.174C544.862 425.776 548.83 419.309 550.759 417.289C550.759 417.289 548.994 416.176 545.611 416.593C542.228 417.008 539.576 415.357 539.677 413.518L555.824 408.568C556.548 407.053 559.744 398.459 551.062 378.116L568.256 369.737C570.236 383.641 569.101 398.646 562.219 413.638C562.219 413.638 556.879 430.209 550.744 433.886C534.735 443.482 542.049 430.476 542.83 429.174Z" fill="url(#paint32_linear_182_1916)"/>
</g>
<defs>
<linearGradient id="paint0_linear_182_1916" x1="303.017" y1="593.785" x2="303.017" y2="-0.000318531" gradientUnits="userSpaceOnUse">
<stop stop-color="#C0D2FB"/>
<stop offset="1" stop-color="#F9FBFF"/>
</linearGradient>
<linearGradient id="paint1_linear_182_1916" x1="400.4" y1="94.5868" x2="216.128" y2="273.977" gradientUnits="userSpaceOnUse">
<stop stop-color="#FDF53F"/>
<stop offset="1" stop-color="#D93C65"/>
</linearGradient>
<linearGradient id="paint2_linear_182_1916" x1="420.974" y1="115.725" x2="236.706" y2="295.111" gradientUnits="userSpaceOnUse">
<stop stop-color="#FDF53F"/>
<stop offset="1" stop-color="#D93C65"/>
</linearGradient>
<linearGradient id="paint3_linear_182_1916" x1="368.514" y1="227.71" x2="226.024" y2="384.601" gradientUnits="userSpaceOnUse">
<stop stop-color="#A737D5"/>
<stop offset="1" stop-color="#EF497A"/>
</linearGradient>
<linearGradient id="paint4_linear_182_1916" x1="385.342" y1="242.996" x2="242.852" y2="399.885" gradientUnits="userSpaceOnUse">
<stop stop-color="#A737D5"/>
<stop offset="1" stop-color="#EF497A"/>
</linearGradient>
<linearGradient id="paint5_linear_182_1916" x1="392.187" y1="290.491" x2="213.756" y2="453.825" gradientUnits="userSpaceOnUse">
<stop stop-color="#A737D5"/>
<stop offset="1" stop-color="#EF497A"/>
</linearGradient>
<linearGradient id="paint6_linear_182_1916" x1="419" y1="273.565" x2="276.507" y2="430.453" gradientUnits="userSpaceOnUse">
<stop stop-color="#A737D5"/>
<stop offset="1" stop-color="#EF497A"/>
</linearGradient>
<linearGradient id="paint7_linear_182_1916" x1="218.66" y1="260.524" x2="150.111" y2="461.017" gradientUnits="userSpaceOnUse">
<stop stop-color="#A737D5"/>
<stop offset="1" stop-color="#EF497A"/>
</linearGradient>
<linearGradient id="paint8_linear_182_1916" x1="309.54" y1="527.227" x2="284.112" y2="-225.964" gradientUnits="userSpaceOnUse">
<stop stop-color="#09005D"/>
<stop offset="1" stop-color="#1A0F91"/>
</linearGradient>
<linearGradient id="paint9_linear_182_1916" x1="160.25" y1="269.615" x2="426.62" y2="482.688" gradientUnits="userSpaceOnUse">
<stop stop-color="#4F52FF"/>
<stop offset="1" stop-color="#4042E2"/>
</linearGradient>
<linearGradient id="paint10_linear_182_1916" x1="205.692" y1="212.806" x2="472.063" y2="425.88" gradientUnits="userSpaceOnUse">
<stop stop-color="#4F52FF"/>
<stop offset="1" stop-color="#4042E2"/>
</linearGradient>
<linearGradient id="paint11_linear_182_1916" x1="261.525" y1="270.607" x2="160.814" y2="442.612" gradientUnits="userSpaceOnUse">
<stop stop-color="#4F52FF"/>
<stop offset="1" stop-color="#4042E2"/>
</linearGradient>
<linearGradient id="paint12_linear_182_1916" x1="279.981" y1="281.413" x2="179.27" y2="453.42" gradientUnits="userSpaceOnUse">
<stop stop-color="#4F52FF"/>
<stop offset="1" stop-color="#4042E2"/>
</linearGradient>
<linearGradient id="paint13_linear_182_1916" x1="295.499" y1="323.799" x2="162.97" y2="508.709" gradientUnits="userSpaceOnUse">
<stop stop-color="#4F52FF"/>
<stop offset="1" stop-color="#4042E2"/>
</linearGradient>
<linearGradient id="paint14_linear_182_1916" x1="316.892" y1="303.026" x2="216.183" y2="475.03" gradientUnits="userSpaceOnUse">
<stop stop-color="#4F52FF"/>
<stop offset="1" stop-color="#4042E2"/>
</linearGradient>
<linearGradient id="paint15_linear_182_1916" x1="349.439" y1="1.90067" x2="222.208" y2="169.385" gradientUnits="userSpaceOnUse">
<stop stop-color="#2B3582"/>
<stop offset="1" stop-color="#150E42"/>
</linearGradient>
<linearGradient id="paint16_linear_182_1916" x1="363.409" y1="12.5115" x2="236.178" y2="179.996" gradientUnits="userSpaceOnUse">
<stop stop-color="#2B3582"/>
<stop offset="1" stop-color="#150E42"/>
</linearGradient>
<linearGradient id="paint17_linear_182_1916" x1="347.361" y1="22.7512" x2="259.528" y2="184.143" gradientUnits="userSpaceOnUse">
<stop stop-color="#4F52FF"/>
<stop offset="1" stop-color="#4042E2"/>
</linearGradient>
<linearGradient id="paint18_linear_182_1916" x1="523.813" y1="577.313" x2="484.523" y2="577.313" gradientUnits="userSpaceOnUse">
<stop stop-color="#090056"/>
<stop offset="1" stop-color="#020039"/>
</linearGradient>
<linearGradient id="paint19_linear_182_1916" x1="454.766" y1="527.357" x2="536.56" y2="621.278" gradientUnits="userSpaceOnUse">
<stop stop-color="#090056"/>
<stop offset="1" stop-color="#020039"/>
</linearGradient>
<linearGradient id="paint20_linear_182_1916" x1="592.835" y1="577.411" x2="574.437" y2="577.411" gradientUnits="userSpaceOnUse">
<stop stop-color="#090056"/>
<stop offset="1" stop-color="#020039"/>
</linearGradient>
<linearGradient id="paint21_linear_182_1916" x1="499.615" y1="488.294" x2="581.412" y2="582.216" gradientUnits="userSpaceOnUse">
<stop stop-color="#090056"/>
<stop offset="1" stop-color="#020039"/>
</linearGradient>
<linearGradient id="paint22_linear_182_1916" x1="585.054" y1="564.736" x2="573.116" y2="564.736" gradientUnits="userSpaceOnUse">
<stop stop-color="#FEBBBA"/>
<stop offset="1" stop-color="#FF928E"/>
</linearGradient>
<linearGradient id="paint23_linear_182_1916" x1="521.815" y1="563.956" x2="511.865" y2="563.956" gradientUnits="userSpaceOnUse">
<stop stop-color="#FEBBBA"/>
<stop offset="1" stop-color="#FF928E"/>
</linearGradient>
<linearGradient id="paint24_linear_182_1916" x1="497.075" y1="411.102" x2="537.761" y2="463.738" gradientUnits="userSpaceOnUse">
<stop stop-color="#CB236D"/>
<stop offset="1" stop-color="#4C246D"/>
</linearGradient>
<linearGradient id="paint25_linear_182_1916" x1="501.045" y1="313.647" x2="499.49" y2="284.636" gradientUnits="userSpaceOnUse">
<stop stop-color="#FEBBBA"/>
<stop offset="1" stop-color="#FF928E"/>
</linearGradient>
<linearGradient id="paint26_linear_182_1916" x1="490.819" y1="265.278" x2="519.727" y2="292.791" gradientUnits="userSpaceOnUse">
<stop stop-color="#FEBBBA"/>
<stop offset="1" stop-color="#FF928E"/>
</linearGradient>
<linearGradient id="paint27_linear_182_1916" x1="482.873" y1="255.76" x2="562.085" y2="277.276" gradientUnits="userSpaceOnUse">
<stop stop-color="#090056"/>
<stop offset="1" stop-color="#020039"/>
</linearGradient>
<linearGradient id="paint28_linear_182_1916" x1="495.278" y1="260.591" x2="524.188" y2="288.103" gradientUnits="userSpaceOnUse">
<stop stop-color="#FEBBBA"/>
<stop offset="1" stop-color="#FF928E"/>
</linearGradient>
<linearGradient id="paint29_linear_182_1916" x1="437.267" y1="268.95" x2="663.205" y2="519.939" gradientUnits="userSpaceOnUse">
<stop stop-color="#FF928E"/>
<stop offset="1" stop-color="#FE7062"/>
</linearGradient>
<linearGradient id="paint30_linear_182_1916" x1="424.03" y1="305.375" x2="560.843" y2="488.675" gradientUnits="userSpaceOnUse">
<stop stop-color="#FF928E"/>
<stop offset="1" stop-color="#FE7062"/>
</linearGradient>
<linearGradient id="paint31_linear_182_1916" x1="424.034" y1="305.371" x2="560.849" y2="488.67" gradientUnits="userSpaceOnUse">
<stop stop-color="#FF928E"/>
<stop offset="1" stop-color="#FE7062"/>
</linearGradient>
<linearGradient id="paint32_linear_182_1916" x1="540.574" y1="421.641" x2="588.345" y2="352.907" gradientUnits="userSpaceOnUse">
<stop stop-color="#FEBBBA"/>
<stop offset="1" stop-color="#FF928E"/>
</linearGradient>
<clipPath id="clip0_182_1916">
<rect width="600" height="594" fill="white"/>
</clipPath>
</defs>
</svg>
