<svg width="1200" height="681" viewBox="0 0 1200 681" fill="none" xmlns="http://www.w3.org/2000/svg">
<g clip-path="url(#clip0_182_1787)">
<path d="M91.9681 678.842C91.9681 678.842 -50.4385 507.428 19.1588 330.957C64.5237 215.931 234.695 152.902 330.731 215.931C371.634 242.775 502.862 216.836 572.93 105.696C709.089 -110.276 1184.29 20.8869 1097.78 352.479C1055.91 512.946 1225.19 518.779 1138.93 679.181L91.9681 678.842Z" fill="url(#paint0_linear_182_1787)"/>
<path d="M197.38 396.727C197.38 396.727 183.019 379.983 196.495 369.348C196.495 369.348 206.338 363.393 214.365 363.877C214.365 363.877 202.991 382.934 206.671 384.83C210.351 386.725 217.813 362.68 217.813 362.68C217.813 362.68 240.215 360.51 247.421 363.972C247.421 363.972 228.27 379.632 232.302 380.565C236.337 381.496 257.021 366.126 257.021 366.126C257.021 366.126 277.87 369.672 276.759 382.381C275.647 395.089 268.463 399.014 265.305 398.677C262.148 398.339 243.678 391.294 243.275 393.879C242.873 396.463 253.992 404.912 261.777 405.307C261.777 405.307 247.077 421.507 237.307 416.831C227.539 412.157 226.706 404.747 220.615 401.967C214.525 399.186 209.327 399.194 211.842 402.028C214.356 404.863 225.376 407.618 228.859 413.773C232.342 419.929 235.467 424.079 225.358 422.56C215.252 421.041 198.822 413.651 198.101 405.189C197.38 396.727 197.38 396.727 197.38 396.727Z" fill="#4042E2"/>
<path d="M266.514 382.725C266.514 382.725 209.886 380.543 197.38 396.727C197.38 396.727 194.614 405.003 186.103 412.541L184.777 416.152C184.777 416.152 194.589 405.815 198.101 405.189C198.101 405.189 192.61 385.141 266.514 382.725Z" fill="#C8DBF4"/>
<path d="M186.105 412.541C186.105 412.541 173.949 421.523 173.105 437.572L175.311 437.769C175.311 437.769 179.193 421.174 186.21 414.684C193.227 408.194 186.105 412.541 186.105 412.541Z" fill="#C8DBF4"/>
<path d="M147.165 375.671C147.165 375.671 170.012 362.886 159.35 345.536C159.35 345.536 150.82 334.882 141.682 332.142C141.682 332.142 146.556 358.015 141.682 358.625C136.808 359.233 138.331 329.402 138.331 329.402C138.331 329.402 114.266 317.836 104.822 318.749C104.822 318.749 119.749 344.013 114.875 343.404C110.001 342.796 93.2465 317.226 93.2465 317.226C93.2465 317.226 68.5723 312.661 64.612 327.271C60.6519 341.883 67.0488 349.188 70.7047 350.101C74.36 351.014 97.8162 350.71 97.2068 353.754C96.5974 356.798 80.7569 361.669 71.9232 358.929C71.9232 358.929 81.6711 382.976 94.4652 381.758C107.259 380.541 111.219 372.627 119.139 372.017C127.06 371.41 132.848 373.54 128.887 375.671C124.927 377.801 111.524 376.368 105.127 381.804C98.7298 387.237 93.5515 390.586 105.432 393.021C117.312 395.457 138.635 393.934 142.9 384.802C147.165 375.671 147.165 375.671 147.165 375.671Z" fill="#4042E2"/>
<path d="M75.8838 331.838C75.8838 331.838 139.854 352.537 147.165 375.671C147.165 375.671 146.861 386.019 153.257 397.891V402.458C153.257 402.458 146.556 386.933 142.901 384.802C142.901 384.802 157.217 364.713 75.8838 331.838Z" fill="#C8DBF4"/>
<path d="M153.258 397.891C153.258 397.891 163.123 412.861 157.499 431.082L154.961 430.402C154.961 430.402 157.425 410.33 152.263 400.236C147.101 390.142 153.258 397.891 153.258 397.891Z" fill="#C8DBF4"/>
<path d="M183.512 358.039C183.512 358.039 153.396 341.186 167.45 318.316C167.45 318.316 178.694 304.272 190.74 300.661C190.74 300.661 184.315 334.767 190.74 335.569C197.165 336.372 195.157 297.049 195.157 297.049C195.157 297.049 226.878 281.803 239.326 283.007C239.326 283.007 219.65 316.309 226.076 315.507C232.501 314.705 254.585 281 254.585 281C254.585 281 287.112 274.982 292.331 294.24C297.553 313.5 289.12 323.13 284.3 324.335C279.483 325.537 248.563 325.137 249.366 329.149C250.168 333.162 271.05 339.581 282.695 335.97C282.695 335.97 269.846 367.669 252.98 366.064C236.115 364.46 230.895 354.027 220.455 353.225C210.015 352.421 202.385 355.23 207.605 358.039C212.827 360.848 230.494 358.96 238.926 366.123C247.359 373.285 254.185 377.699 238.523 380.909C222.864 384.12 194.755 382.113 189.134 370.076C183.512 358.039 183.512 358.039 183.512 358.039Z" fill="#10B981"/>
<path d="M277.475 300.259C277.475 300.259 193.149 327.544 183.512 358.039C183.512 358.039 183.913 371.681 175.481 387.329V393.348C175.481 393.348 184.315 372.885 189.134 370.076C189.134 370.076 170.261 343.593 277.475 300.259Z" fill="#D4E4F8"/>
<path d="M175.481 387.329C175.481 387.329 162.477 407.063 169.89 431.082L173.236 430.185C173.236 430.185 169.988 403.728 176.792 390.422C183.596 377.115 175.481 387.329 175.481 387.329Z" fill="#D4E4F8"/>
<path d="M182.498 483.173C215.079 483.173 241.491 456.781 241.491 424.225H123.505C123.505 456.781 149.917 483.173 182.498 483.173Z" fill="#FE8179"/>
<path d="M242.305 486.172H122.69C122.69 482.155 125.949 478.9 129.968 478.9H235.026C239.046 478.9 242.305 482.155 242.305 486.172Z" fill="#D4E4F8"/>
<path d="M242.831 424.223H121.565V426.032H242.831V424.223Z" fill="#9FC1F4"/>
<path d="M486.9 677.616L487.193 677.61C489.577 677.567 491.417 675.62 491.193 673.38L475.292 514.689L461.415 515.926L484.249 675.471C484.426 676.717 485.567 677.64 486.9 677.616Z" fill="#8CB4F4"/>
<path d="M333.782 677.616L333.489 677.61C331.106 677.567 329.265 675.62 329.489 673.38L345.393 514.689L359.268 515.926L336.435 675.471C336.257 676.717 335.115 677.64 333.782 677.616Z" fill="#8CB4F4"/>
<path d="M599.086 677.616L599.377 677.61C601.761 677.567 603.601 675.62 603.377 673.38L587.476 514.689L573.6 515.926L596.433 675.471C596.612 676.717 597.753 677.64 599.086 677.616Z" fill="#8CB4F4"/>
<path d="M338.518 491.604L310.29 352.317C306.667 333.459 322.307 316.215 342.613 316.679L397.049 317.921C415.829 318.349 432.156 330.908 437.376 348.94L478.673 491.604H338.518Z" fill="#8CB4F4"/>
<path d="M355.594 491.604L327.368 352.317C323.745 333.459 339.383 316.215 359.689 316.679L414.127 317.921C432.905 318.349 449.233 330.908 454.452 348.94L495.749 491.604H355.594Z" fill="#8CB4F4"/>
<path d="M346.385 517.009H561.761C566.087 517.009 569.628 513.47 569.628 509.147V499.466C569.628 495.141 566.088 491.604 561.761 491.604H338.518V509.147C338.518 513.47 342.057 517.009 346.385 517.009Z" fill="#8CB4F4"/>
<path d="M447.456 517.009H584.752C588.237 517.009 591.09 514.16 591.09 510.675V497.938C591.09 494.454 588.239 491.604 584.752 491.604H447.456C443.969 491.604 441.118 494.454 441.118 497.938V510.675C441.118 514.16 443.969 517.009 447.456 517.009Z" fill="#8CB4F4"/>
<path d="M274.254 489.791V494.543C274.254 496.206 273.715 497.565 273.058 497.565H99.5173C98.8597 497.565 98.3206 496.206 98.3206 494.543V489.791C98.3206 488.129 98.8597 486.769 99.5173 486.769H273.058C273.715 486.769 274.254 488.129 274.254 489.791Z" fill="#4042E2"/>
<path d="M274.254 489.791V494.543C274.254 496.206 273.761 497.565 273.156 497.565H135.384C134.78 497.565 134.286 496.206 134.286 494.543V489.791C134.286 488.129 134.78 486.769 135.384 486.769H273.156C273.761 486.769 274.254 488.129 274.254 489.791Z" fill="#4F52FF"/>
<path d="M230.332 497.567H107.129V677.006H230.332V497.567Z" fill="#7D97F4"/>
<path d="M264.858 497.567H141.655V677.006H264.858V497.567Z" fill="#B0C8FB"/>
<path d="M258.24 667.1H148.277V502.635H258.24V667.1ZM149.464 665.912H257.052V503.822H149.464V665.912Z" fill="#B7D3F3"/>
<path d="M257.646 557.041H148.87V558.227H257.646V557.041Z" fill="#B7D3F3"/>
<path d="M257.646 612.507H148.87V613.693H257.646V612.507Z" fill="#B7D3F3"/>
<path d="M214.405 513.243H194.219C193.24 513.243 192.439 512.44 192.439 511.461C192.439 510.483 193.24 509.682 194.219 509.682H214.405C215.385 509.682 216.186 510.483 216.186 511.461C216.186 512.44 215.383 513.243 214.405 513.243Z" fill="#4F52FF"/>
<path d="M214.405 567.482H194.219C193.24 567.482 192.439 566.68 192.439 565.703C192.439 564.724 193.24 563.922 194.219 563.922H214.405C215.385 563.922 216.186 564.724 216.186 565.703C216.186 566.682 215.383 567.482 214.405 567.482Z" fill="#4F52FF"/>
<path d="M214.405 624.024H194.219C193.24 624.024 192.439 623.223 192.439 622.244C192.439 621.266 193.24 620.465 194.219 620.465H214.405C215.385 620.465 216.186 621.266 216.186 622.244C216.186 623.223 215.383 624.024 214.405 624.024Z" fill="#4F52FF"/>
<path d="M526.143 462.456C514.491 482.72 499.836 490.542 499.836 490.542H438.869C438.869 490.542 535.031 446.997 526.143 462.456Z" fill="#233862"/>
<path d="M601.34 663.776C600.681 670.167 609.579 671.818 619.896 672.443C630.216 673.067 627.073 675.147 641.194 677.86C655.316 680.571 661.027 676.763 662.072 674.863C663.002 673.178 656.452 670.458 649.475 667.387C648.595 667.003 647.716 666.609 646.837 666.214C638.984 662.662 634.633 655.543 628.552 648.922C622.793 642.651 617.473 622.71 617.473 622.71L598.291 618.402C598.291 618.402 603.498 636.352 605.289 644.012C606.343 648.517 604.663 653.523 603.179 657.33C602.378 659.402 601.57 661.523 601.34 663.776Z" fill="#FFB27D"/>
<path d="M619.896 672.443C630.216 673.067 627.073 675.147 641.194 677.86C655.315 680.571 661.027 676.763 662.072 674.863C663.002 673.178 656.452 670.458 649.475 667.387L649.364 667.506C649.364 667.506 639.379 670.773 627.929 667.531C618.596 664.891 609.608 659.205 603.179 657.33C602.378 659.402 601.569 661.523 601.34 663.776C600.681 670.167 609.579 671.817 619.896 672.443Z" fill="#0F2549"/>
<path d="M572.277 441.699C561.955 434.455 493.675 421.545 458.829 417.81L420.317 384.402C420.317 384.402 387.536 432.922 387.275 470.039C387.153 487.345 395.131 489.065 395.133 489.068C395.133 489.068 518.596 489.983 524.007 490.542C532.867 491.454 544.552 513.505 547.472 533.591C550.39 553.675 601.875 635.364 601.875 635.364C601.875 635.364 612.612 638.801 617.577 638.51C622.917 638.197 625.389 636.41 625.389 636.41C625.389 636.41 595.556 458.033 572.277 441.699Z" fill="#3840F7"/>
<path d="M569.406 663.776C568.746 670.167 577.644 671.818 587.962 672.443C598.281 673.067 595.139 675.147 609.258 677.86C623.381 680.571 629.092 676.763 630.136 674.863C631.066 673.178 624.517 670.458 617.539 667.387C616.661 667.003 615.782 666.609 614.902 666.214C607.05 662.662 602.698 655.543 596.617 648.922C590.857 642.651 585.538 622.71 585.538 622.71L566.356 618.402C566.356 618.402 571.563 636.352 573.355 644.012C574.409 648.517 572.728 653.523 571.243 657.33C570.443 659.402 569.635 661.523 569.406 663.776Z" fill="#FFB27D"/>
<path d="M587.962 672.443C598.281 673.067 595.139 675.147 609.258 677.86C623.381 680.571 629.092 676.763 630.136 674.863C631.066 673.178 624.517 670.458 617.538 667.387L617.427 667.506C617.427 667.506 607.443 670.773 595.995 667.531C586.662 664.891 577.671 659.205 571.243 657.33C570.443 659.402 569.635 661.523 569.406 663.776C568.746 670.167 577.644 671.817 587.962 672.443Z" fill="#233862"/>
<path d="M540.06 441.699C531.092 435.407 504.122 430.529 474.349 426.909C466.117 425.908 459.359 419.928 457.349 411.888L388.1 384.402C388.1 384.402 355.317 432.922 355.059 470.039C354.937 487.345 362.915 489.065 362.917 489.068C362.917 489.068 486.378 489.983 491.791 490.542C500.65 491.454 512.335 513.505 515.255 533.591C518.174 553.675 569.659 635.364 569.659 635.364C569.659 635.364 580.395 638.801 585.36 638.51C590.7 638.197 593.171 636.41 593.171 636.41C593.171 636.41 563.337 458.033 540.06 441.699Z" fill="#4F52FF"/>
<path d="M447.396 182.817C437.879 177.824 423.399 177.149 421.047 176.833C392.898 173.052 375.956 213.925 374.959 226.311C373.123 249.139 361.038 252.62 344.027 266.915C309.919 295.581 319.92 328.89 338.571 341.268C349.761 348.695 369.486 341.266 369.486 341.266C369.764 341.461 423.428 311.29 449.881 296.736C489.539 291.103 471.645 195.541 447.396 182.817Z" fill="#233862"/>
<path d="M441.524 282.674C441.648 282.738 429.016 288.478 419.898 285.469C411.321 282.643 403.765 269.74 403.887 269.72C407.61 269.181 411.394 265.512 412.452 243.763L414.099 244.178L441.821 251.179C441.821 251.179 440.723 259.953 440.271 268.252C439.889 275.218 439.967 281.848 441.524 282.674Z" fill="#FFB27D"/>
<path d="M441.819 251.18C441.819 251.18 441.819 252.985 440.783 261.149C425.107 257.197 418.192 252.003 413.318 246.057L441.819 251.18Z" fill="#ED975D"/>
<path d="M447.734 252.285C447.734 252.285 411.077 258.249 407.712 235.381C404.346 212.513 397.349 197.881 420.61 193.107C443.873 188.331 449.715 196.387 452.695 203.749C455.678 211.108 457.182 250.143 447.734 252.285Z" fill="#FFB27D"/>
<path d="M447.769 192.148C447.769 192.148 431.122 218.406 416.26 224.624C401.4 230.843 394.099 227.686 394.099 227.686C394.099 227.686 400.859 217.443 402.622 203.689C403.141 199.635 405.784 196.16 409.582 194.639C420.246 190.372 440.874 183.643 447.769 192.148Z" fill="#233862"/>
<path d="M433.145 194.686C433.145 194.686 442.904 199.684 446.922 204.369C450.798 208.89 455.277 221.157 454.959 226.666C454.959 226.666 459.771 200.266 449.746 191.191C439.115 181.568 433.145 194.686 433.145 194.686Z" fill="#233862"/>
<path d="M470.851 338.542C469.737 412.997 470.545 397.44 462.394 404.505C460.43 406.206 454.91 407.219 447.643 407.698C424.796 409.213 384.632 405.452 383.104 401.233C377.835 386.634 381.555 382.099 377.158 359.747C376.699 357.371 376.133 354.799 375.467 351.997C371.802 336.645 368.233 331.423 381.238 306.761C393.034 284.421 406.904 266.272 408.006 266.927C439.124 285.385 440.189 269.913 440.189 269.913C440.189 269.913 471.396 302.225 470.851 338.542Z" fill="white"/>
<path d="M440.189 269.913C440.189 269.913 472.037 275.307 475.796 289.084C479.558 302.858 501.682 383.843 501.682 383.843C501.682 383.843 485.406 386.765 477.886 379.251C470.365 371.737 451.72 309.537 451.72 309.537L440.189 269.913Z" fill="white"/>
<path d="M447.643 407.698C424.796 409.213 384.632 405.452 383.104 401.233C377.835 386.634 381.555 382.099 377.158 359.747L388.178 328.741C388.178 328.741 386.356 363.27 396.546 372.352C406.726 381.433 438.27 389.884 443.224 397.471C445.613 401.113 447.184 404.765 447.643 407.698Z" fill="#EBF3FF"/>
<path d="M421.466 393.175C421.466 393.175 444.005 388.161 447.643 390.159C451.281 392.158 460.169 399.438 461.282 401.97C462.394 404.505 453.185 400.047 450.188 399.245C448.249 398.724 443.142 400.498 440.614 401.341C429.975 404.885 423.457 403.062 423.457 403.062L421.466 393.175Z" fill="#FFB27D"/>
<path d="M408.006 266.927C408.006 266.927 376.104 268.79 365.626 283.393C350.877 303.947 321.619 391.55 338.387 403.233C357.271 416.391 424.33 406.675 424.33 406.675C424.33 406.675 426.562 396.252 423.458 391.21C420.351 386.169 369.895 378.023 367.567 375.696C365.238 373.369 396.676 330.32 396.676 323.339C396.676 316.358 408.006 266.927 408.006 266.927Z" fill="white"/>
<path d="M448.734 396.428C448.734 396.428 453.456 402.516 455.006 403.242C456.553 403.97 457.553 403.788 457.553 403.788L454.372 398.064L448.734 396.428Z" fill="#FFB27D"/>
<path d="M447.643 390.16L461.375 396.823C461.375 396.823 460.79 397.778 459.099 397.7C457.407 397.624 453.143 396.064 453.143 396.064L447.643 390.16Z" fill="#FFB27D"/>
<path d="M498.227 405.955H434.452C434.452 403.149 436.728 400.875 439.536 400.875H498.227V405.955Z" fill="#ED7D2B"/>
<path d="M498.043 336.552H596.643L572.992 405.955H473.753L498.043 336.552Z" fill="#ED7D2B"/>
<path d="M598.094 336.55L574.443 405.955H475.204L499.496 336.55H598.094Z" fill="#F99746"/>
<path d="M544.936 370.611C544.322 373.264 541.675 375.412 539.02 375.412C536.368 375.412 534.713 373.264 535.324 370.611C535.938 367.96 538.585 365.81 541.24 365.81C543.892 365.81 545.547 367.96 544.936 370.611Z" fill="white"/>
<path d="M412.408 421.569H844.503C846.32 421.569 847.792 420.097 847.792 418.281V409.242C847.792 407.426 846.32 405.955 844.503 405.955H412.408C410.591 405.955 409.118 407.426 409.118 409.242V418.281C409.118 420.097 410.591 421.569 412.408 421.569Z" fill="#182D4F"/>
<path d="M855.08 678.777L855.266 678.755C857.48 678.48 859.048 676.506 858.767 674.345L820.262 413.9L806.167 414.304L851.47 676.157C851.76 677.834 853.353 678.99 855.08 678.777Z" fill="#182D4F"/>
<path d="M397.939 678.777L397.753 678.755C395.541 678.48 393.972 676.506 394.252 674.345L432.757 413.9L446.853 414.304L401.549 676.157C401.26 677.834 399.667 678.99 397.939 678.777Z" fill="#182D4F"/>
<path d="M487.079 678.777L486.893 678.755C484.681 678.48 483.113 676.506 483.392 674.345L521.897 413.9L535.995 414.304L490.691 676.157C490.4 677.834 488.807 678.99 487.079 678.777Z" fill="#182D4F"/>
<path d="M1198.33 680.922H1.63609C0.736324 680.922 0 680.187 0 679.288V677.953C0 677.054 0.736324 676.317 1.63609 676.317H1198.33C1199.23 676.317 1199.97 677.054 1199.97 677.953V679.288C1199.97 680.187 1199.23 680.922 1198.33 680.922Z" fill="#2E3552"/>
<path d="M714.243 678.566H790.651C794.327 674.084 792.972 657.548 792.415 652.15C792.3 651.064 792.222 650.429 792.222 650.429C792.222 650.429 766.13 629.575 762.547 645.542C762.438 646.044 762.305 646.533 762.159 647.015C757.644 661.951 737.391 668.739 725.697 670.629C718.094 671.863 715.283 675.811 714.243 678.566Z" fill="#233862"/>
<path d="M922.733 430.476C919.973 430.476 791.849 454.514 770.656 480.728C760.069 493.824 758.496 645.063 758.496 645.063C758.496 645.063 771.594 661.292 799.882 651.87C799.882 651.87 820.623 548.393 819.091 517.009C818.667 508.33 906.631 515.752 922.731 511.589C938.831 507.424 978.17 472.428 969.502 455.378C960.834 438.329 922.733 430.476 922.733 430.476Z" fill="#3840F7"/>
<path d="M771.206 393.441C771.206 393.441 745.362 393.79 739.25 396.408C733.138 399.026 720.739 405.034 724.056 405.956C727.375 406.877 743.208 405.576 746.627 406.098C750.048 406.622 754.268 405.955 756.364 405.955C758.458 405.956 768.233 405.955 768.233 405.955L771.206 393.441Z" fill="#FFB27D"/>
<path d="M740.99 331.467C740.99 331.467 732.178 325.173 723.621 323.953C718.742 323.256 713.997 322.388 711.13 321.378C703.233 318.598 687.437 304.405 688.632 302.738C692.462 297.404 710.906 308.695 714.125 307.483C717.344 306.27 707.938 299.587 711.21 297.237C712.918 296.008 716.916 302.162 720.184 302.78C724.604 303.615 728.06 309.854 729.391 310.18C731.982 310.813 743.328 319.246 743.328 319.246L740.99 331.467Z" fill="#FFB27D"/>
<path d="M909.97 257.99C909.97 257.99 890.298 264.084 870.915 317.419C851.53 370.757 844.169 373.635 837.123 375.729C830.077 377.823 768.233 390.126 768.233 390.126V405.955H863.527C863.527 405.955 899.259 371.99 909.97 349.126C920.683 326.26 909.97 257.99 909.97 257.99Z" fill="#FE7062"/>
<path d="M680.473 678.566H756.881C760.557 674.084 759.203 657.548 758.647 652.15C758.533 651.064 758.454 650.429 758.454 650.429C758.454 650.429 732.362 629.575 728.777 645.542C728.668 646.044 728.535 646.533 728.391 647.015C723.876 661.951 703.623 668.739 691.927 670.629C684.324 671.863 681.513 675.811 680.473 678.566Z" fill="#1B3051"/>
<path d="M884.976 430.476C882.218 430.476 754.094 454.514 732.901 480.728C722.314 493.824 720.739 645.063 720.739 645.063C720.739 645.063 733.839 661.292 762.127 651.87C762.127 651.87 782.868 548.393 781.335 517.009C780.91 508.33 868.876 515.752 884.976 511.589C901.076 507.424 940.413 472.428 931.745 455.378C923.079 438.329 884.976 430.476 884.976 430.476Z" fill="#4F52FF"/>
<path d="M892.994 274.894C902.212 274.134 911.876 271.679 920.228 268.97C930.667 265.586 939.084 260.638 933.66 251.102C928.663 242.314 920.574 222.681 921.12 206.418L901.691 222.063L888.495 232.688C888.495 232.688 888.55 238.954 889.992 249.932C890.256 251.934 890.563 254.093 890.928 256.402C891.221 258.267 890.363 260.13 888.757 261.125C888.659 261.187 888.559 261.249 888.461 261.311C881.901 265.43 885.274 275.531 892.994 274.894Z" fill="#FFB27D"/>
<path d="M888.495 230.103C888.495 230.103 887.82 232.377 888.98 240.777C900.745 238.859 911.745 229.482 911.745 229.482C905.755 227.838 903.576 221.371 899.113 221.974L888.495 230.103Z" fill="#ED975D"/>
<path d="M877.613 232.019C877.613 232.019 922.869 239.531 927.119 211.297C931.366 183.062 940.069 165.016 911.354 159.026C882.638 153.035 875.388 162.964 871.678 172.043C867.965 181.123 865.95 229.337 877.613 232.019Z" fill="#FFB27D"/>
<path d="M865.021 159.548C863.077 166.347 868.279 174.629 877.009 177.355C889.97 181.402 887.106 197.286 892.938 197.072C898.769 196.855 901.123 187.94 906.332 195.063C910.775 201.138 902.633 208.341 903.194 211.674C904.155 217.392 913.122 229.097 921.202 228.509C929.282 227.921 944.402 189.55 941.378 177.678C938.354 165.807 926.258 153.288 914.809 151.562C903.361 149.835 887.463 154.774 883.791 154.774C880.118 154.774 866.072 155.876 865.021 159.548Z" fill="#2B478B"/>
<path d="M970.105 297.177C963.565 270.87 945.484 243.264 933.26 243.288C912.43 243.328 882.485 248.821 870.394 278.622C861.489 300.573 849.611 426.838 863.035 435.818C893.722 456.346 964.852 498.253 977.487 455.517C989.065 416.362 981.458 342.838 970.105 297.177Z" fill="#FF928E"/>
<path d="M919.512 270.997C913.569 255.551 894.402 250.211 881.331 260.372C874.261 265.868 865.604 273.695 855.146 284.823C816.273 326.189 808.373 325.93 801.071 325.077C793.77 324.222 732.086 311.14 732.086 311.14C732.086 311.14 728.927 313.469 727.068 317.232C724.586 322.259 725.835 325.685 725.835 325.685C723.419 324.125 747.701 340.849 759.787 347.519C775.749 356.325 799.8 364.582 809.378 367.716C812.093 368.606 815.021 368.561 817.71 367.593C831.927 362.471 879.674 343.811 918.544 311.433C928.785 302.9 925.021 285.32 919.512 270.997Z" fill="#FF928E"/>
<path d="M935.357 243.541L930.642 232.925C930.642 232.925 888.426 236.363 881.331 260.372C881.331 260.372 914.054 244.056 935.357 243.541Z" fill="white"/>
<path d="M1037.85 677.616L1038.14 677.61C1040.52 677.567 1042.36 675.62 1042.14 673.38L1026.24 514.689L1012.36 515.926L1035.2 675.471C1035.37 676.717 1036.51 677.64 1037.85 677.616Z" fill="#8CB4F4"/>
<path d="M955.998 677.616L956.289 677.61C958.673 677.567 960.515 675.62 960.289 673.38L944.388 514.689L930.512 515.926L953.345 675.471C953.524 676.717 954.665 677.64 955.998 677.616Z" fill="#8CB4F4"/>
<path d="M802.34 677.616L802.048 677.61C799.665 677.567 797.824 675.62 798.048 673.38L813.95 514.689L827.827 515.926L804.992 675.471C804.814 676.717 803.672 677.64 802.34 677.616Z" fill="#73A2E5"/>
<path d="M1033.35 492.207L1048.45 359.666C1050.43 340.566 1044.03 321.864 1016.45 320.416L967.918 317.463C939.157 316.277 926.172 340.196 922.531 358.61L893.722 504.306L1033.35 492.207Z" fill="#8CB4F4"/>
<path d="M1025.24 517.009H809.87C805.542 517.009 802.003 513.472 802.003 509.147V499.466C802.003 495.143 805.542 491.604 809.87 491.604H1033.11V509.147C1033.11 513.472 1029.57 517.009 1025.24 517.009Z" fill="#73A2E5"/>
<path d="M1027 517.009H899.833C896.472 517.009 893.722 514.261 893.722 510.903V497.709C893.722 494.352 896.472 491.604 899.833 491.604H1033.11V510.903C1033.11 514.261 1030.36 517.009 1027 517.009Z" fill="#8CB4F4"/>
</g>
<defs>
<linearGradient id="paint0_linear_182_1787" x1="581.895" y1="-5.29652e-06" x2="581.895" y2="679.181" gradientUnits="userSpaceOnUse">
<stop stop-color="#FAFBFF"/>
<stop offset="1" stop-color="#DAE3FE"/>
</linearGradient>
<clipPath id="clip0_182_1787">
<rect width="1200" height="681" fill="white"/>
</clipPath>
</defs>
</svg>
