<svg width="450" height="940" viewBox="0 0 450 940" fill="none" xmlns="http://www.w3.org/2000/svg">
<path opacity="0.8" fill-rule="evenodd" clip-rule="evenodd" d="M286.694 0L314.425 39.1667C340.616 78.3333 396.078 156.667 386.835 235C377.591 313.333 286.694 302.318 187.77 362.047C88.8452 421.776 49.3705 489.094 30.4856 530.953C11.6007 572.813 -1.60933e-05 603.167 -1.60933e-05 682.234C-1.60933e-05 761.302 19.6942 804.141 28.8669 825.682C38.0396 847.224 49.1007 867.052 49.1007 867.052C49.1007 867.052 55.4429 877.823 66.3669 891.776C76.141 904.26 91.7266 925.068 91.7266 925.068L105.486 940H450V900.833C450 861.667 450 783.333 450 705C450 626.667 450 548.333 450 470C450 391.667 450 313.333 450 235C450 156.667 450 78.3333 450 39.1667V0H286.694Z" fill="url(#paint0_linear_190_2570)"/>
<defs>
<linearGradient id="paint0_linear_190_2570" x1="448.061" y1="472.285" x2="-8.51416" y2="472.285" gradientUnits="userSpaceOnUse">
<stop stop-color="#F8F9FE"/>
<stop offset="0.5" stop-color="#F8F9FE"/>
<stop offset="1" stop-color="#7D97F4"/>
</linearGradient>
</defs>
</svg>
