<svg width="450" height="935" viewBox="0 0 450 935" fill="none" xmlns="http://www.w3.org/2000/svg">
<path opacity="0.8" fill-rule="evenodd" clip-rule="evenodd" d="M286.694 0L314.425 38.9583C340.616 77.9167 396.078 155.833 386.835 233.75C377.591 311.667 267.425 300.589 168.5 360C69.5755 419.411 47.7518 466.363 28.8669 508C9.98198 549.637 -3.69549e-06 599.958 -3.69549e-06 678.605C-3.69549e-06 757.253 19.6942 799.863 28.8669 821.29C38.0396 842.717 49.1007 862.44 49.1007 862.44C49.1007 862.44 55.4429 873.154 66.3669 887.033C76.141 899.451 91.7266 920.147 91.7266 920.147L105.486 935H450V896.042C450 857.083 450 779.167 450 701.25C450 623.333 450 545.417 450 467.5C450 389.583 450 311.667 450 233.75C450 155.833 450 77.9167 450 38.9583V0H286.694Z" fill="url(#paint0_linear_190_2570)"/>
<defs>
<linearGradient id="paint0_linear_190_2570" x1="448.061" y1="469.773" x2="-8.51416" y2="469.773" gradientUnits="userSpaceOnUse">
<stop stop-color="#F8F9FE"/>
<stop offset="0.5" stop-color="#F8F9FE"/>
<stop offset="1" stop-color="#7D97F4"/>
</linearGradient>
</defs>
</svg>
