<svg width="1920" height="834" viewBox="0 0 1920 834" fill="none" xmlns="http://www.w3.org/2000/svg">
<path opacity="0.8" fill-rule="evenodd" clip-rule="evenodd" d="M0 302.66L80 251.265C160 202.725 320 99.9349 480 117.067C640 134.198 617.5 302.66 739.5 486C861.5 669.34 999 742.5 1084.5 777.5C1170 812.5 1232 834 1393.5 834C1555 834 1642.5 797.5 1686.5 780.5C1730.5 763.5 1771 743 1771 743C1771 743 1793 731.246 1821.5 711C1847 692.885 1889.5 664 1889.5 664L1920 638.5V0H1840C1760 0 1600 0 1440 0C1280 0 1120 0 960 0C800 0 640 0 480 0C320 0 160 0 80 0H0V302.66Z" fill="url(#paint0_linear_183_2522)"/>
<defs>
<linearGradient id="paint0_linear_183_2522" x1="964.667" y1="3.5942" x2="964.667" y2="849.78" gradientUnits="userSpaceOnUse">
<stop stop-color="#F8F9FE"/>
<stop offset="0.5" stop-color="#F8F9FE"/>
<stop offset="1" stop-color="#7D97F4"/>
</linearGradient>
</defs>
</svg>
