<svg width="1920" height="811" viewBox="0 0 1920 811" fill="none" xmlns="http://www.w3.org/2000/svg">
<path opacity="0.8" fill-rule="evenodd" clip-rule="evenodd" d="M0 302.66L80 251.265C160 202.725 320 99.9349 480 117.067C640 134.198 656.604 307.179 796.5 472C936.396 636.821 1036 698 1160.5 749C1330.44 818.616 1623.17 828.144 1726.5 784.5C1726.5 784.5 1763 771.5 1784 761.5C1805 751.5 1824 740.5 1824 740.5C1824 740.5 1847.05 726.913 1861 717C1874.38 707.498 1894 691 1894 691L1920 664V0H1840C1760 0 1600 0 1440 0C1280 0 1120 0 960 0C800 0 640 0 480 0C320 0 160 0 80 0H0V302.66Z" fill="url(#paint0_linear_183_2522)"/>
<defs>
<linearGradient id="paint0_linear_183_2522" x1="964.667" y1="3.59419" x2="964.667" y2="849.779" gradientUnits="userSpaceOnUse">
<stop stop-color="#F8F9FE"/>
<stop offset="0.5" stop-color="#F8F9FE"/>
<stop offset="1" stop-color="#7D97F4"/>
</linearGradient>
</defs>
</svg>
