<svg width="600" height="587" viewBox="0 0 600 587" fill="none" xmlns="http://www.w3.org/2000/svg">
<path d="M596.593 151.793C596.286 149.114 591.679 148.31 590.386 150.712C577.884 173.933 542.637 233.878 498.288 261.893C426.081 307.505 369.902 390.615 403.593 442.961C403.593 442.961 630.099 443.644 596.593 151.793Z" fill="#FE7E74"/>
<path opacity="0.43" d="M584.839 185.83C584.624 186.646 584.361 187.297 584.12 188.017L583.349 190.114C582.821 191.506 582.297 192.899 581.749 194.283C580.662 197.054 579.53 199.807 578.389 202.554C576.106 208.052 573.698 213.494 571.269 218.928C566.343 229.762 561.112 240.459 555.644 251.035C544.745 272.208 532.588 292.73 519.459 312.607C512.867 322.53 505.883 332.191 498.666 341.672L493.156 348.709C492.247 349.889 491.299 351.038 490.349 352.186L487.506 355.634L484.664 359.083C483.706 360.224 482.714 361.336 481.739 362.463C479.777 364.706 477.847 366.976 475.845 369.181C467.829 378.007 459.415 386.461 450.67 394.56C446.18 398.481 441.765 402.486 437.07 406.161C432.51 409.998 427.636 413.438 422.859 416.991C422.71 417.1 422.498 417.071 422.389 416.921C422.277 416.772 422.307 416.563 422.455 416.452L422.465 416.446C431.935 409.266 441.04 401.634 449.724 393.537C458.339 385.37 466.616 376.854 474.496 367.977C482.323 359.055 489.909 349.921 497.096 340.474C504.263 331.009 511.13 321.323 517.763 311.478C524.347 301.597 530.672 291.543 536.733 281.332L541.231 273.645L545.614 265.892C548.5 260.702 551.373 255.503 554.144 250.25C559.714 239.758 565.01 229.123 570.076 218.376C572.59 212.996 575.082 207.602 577.451 202.154C578.636 199.431 579.803 196.7 580.943 193.958C581.518 192.59 582.072 191.212 582.63 189.837L583.443 187.766C583.694 187.084 583.982 186.353 584.172 185.737L584.2 185.647C584.253 185.472 584.441 185.374 584.616 185.427C584.787 185.48 584.885 185.658 584.839 185.83Z" fill="white"/>
<path d="M552.759 37.4127C552.205 34.3515 547.902 34.0683 546.962 37.0345C537.881 65.7115 511.709 140.162 473.94 178.883C412.442 241.93 369.462 346.179 405.677 402.1C405.677 402.1 613.273 370.961 552.759 37.4127Z" fill="#4042E2"/>
<path opacity="0.43" d="M545.494 78.5213C545.386 79.4216 545.219 80.2066 545.075 81.0357L544.599 83.486L543.595 88.3721C542.908 91.6249 542.185 94.8701 541.452 98.1134C539.972 104.595 538.408 111.059 536.787 117.507C533.524 130.4 529.926 143.206 526.129 155.953C522.342 168.704 518.225 181.357 513.848 193.92L512.215 198.634L510.522 203.326C509.378 206.449 508.291 209.594 507.095 212.697L503.571 222.035L499.908 231.319C490.008 256.017 478.809 280.223 465.932 303.534C465.149 305.003 464.316 306.444 463.476 307.879L460.968 312.199L458.462 316.516C457.607 317.945 456.717 319.351 455.846 320.77C454.079 323.59 452.38 326.453 450.56 329.242L445.052 337.57C437.5 348.535 429.464 359.175 420.721 369.215C420.599 369.354 420.386 369.37 420.245 369.249C420.107 369.127 420.091 368.92 420.207 368.779L420.209 368.777C428.679 358.546 436.552 347.847 443.892 336.795L449.295 328.437C451.079 325.643 452.745 322.77 454.476 319.942C455.328 318.519 456.201 317.109 457.038 315.676L459.49 311.347L461.944 307.018C462.767 305.578 463.581 304.133 464.346 302.662L469.048 293.892C470.597 290.958 472.064 287.982 473.577 285.03C474.322 283.549 475.089 282.078 475.818 280.588L477.976 276.103L480.131 271.618C480.856 270.125 481.569 268.629 482.247 267.114C487.864 255.089 493 242.848 498.018 230.56C507.958 205.942 516.631 180.822 524.508 155.462C528.426 142.774 532.093 130.008 535.522 117.178C537.243 110.765 538.906 104.336 540.488 97.8865C541.271 94.6597 542.044 91.4307 542.783 88.1941L543.862 83.3339L544.374 80.8997C544.53 80.0943 544.711 79.254 544.818 78.5069L544.83 78.4337C544.856 78.2509 545.026 78.1247 545.209 78.1512C545.388 78.1771 545.514 78.3421 545.494 78.5213Z" fill="white"/>
<path d="M66.8767 16.3931H489.096C500.608 16.3931 509.881 29.583 509.671 45.6601L503.731 503.178C503.452 524.709 490.773 541.885 464.823 541.615L55.8893 534.447C55.1524 534.25 46.0928 521.427 46.0996 505.686L46.296 45.1218C46.303 29.2525 55.5152 16.3931 66.8767 16.3931Z" fill="#24286D"/>
<path d="M76.1881 28.7827H481.617C492.671 28.7827 501.575 41.3149 501.376 56.5905L495.671 491.298C495.402 511.757 483.229 528.075 468.424 527.818L75.7514 521.007C64.9301 520.82 56.2307 508.638 56.2373 493.681L56.426 56.0791C56.4323 41.001 65.2781 28.7827 76.1881 28.7827Z" fill="#D3E1FD"/>
<path d="M451.239 65.5626L220.621 63.3772C215.185 63.3257 210.811 59.7378 210.809 55.3292V47.6461C210.807 44.2447 214.207 41.4871 218.402 41.4871H452.892C457.028 41.4871 460.291 44.3359 459.988 47.6799L458.88 59.8736C458.587 63.1087 455.239 65.6006 451.239 65.5626Z" fill="#4A4DF5"/>
<path opacity="0.6" d="M480.332 133.636H76.6414C73.9631 133.636 71.792 131.475 71.792 128.809V115.897C71.792 113.215 73.9894 111.046 76.6844 111.07L480.376 114.623C483.037 114.646 485.183 116.801 485.183 119.45V128.809C485.183 131.475 483.012 133.636 480.332 133.636Z" fill="white"/>
<path d="M85.1091 128.985L87.391 115.087H89.5641L87.2822 128.985H85.1091ZM78.8818 125.538L79.2416 123.366H90.1073L89.7474 125.538H78.8818ZM80.2197 128.985L82.5014 115.087H84.6745L82.3928 128.985H80.2197ZM79.6763 120.706L80.043 118.535H90.9087L90.542 120.706H79.6763ZM97.5282 128.985L99.8099 115.087H101.983L99.7014 128.985H97.5282ZM91.3008 125.538L91.6607 123.366H102.526L102.166 125.538H91.3008ZM92.6386 128.985L94.9205 115.087H97.0936L94.8117 128.985H92.6386ZM92.0954 120.706L92.4621 118.535H103.328L102.961 120.706H92.0954Z" fill="#4042E2"/>
<path opacity="0.6" d="M320.755 172.568L245.253 171.941C242.887 171.921 240.986 169.989 241.006 167.626L241.022 165.522C241.042 163.213 242.89 161.336 245.199 161.279L320.723 159.412C323.143 159.352 325.132 161.307 325.112 163.726L325.074 168.324C325.054 170.688 323.12 172.588 320.755 172.568Z" fill="white"/>
<path opacity="0.6" d="M337.026 309.657L225.868 308.733C222.111 308.702 219.091 305.634 219.123 301.882L220.048 190.634C220.079 186.949 223.044 183.96 226.731 183.896L336.5 185.977C341.147 186.065 344.858 189.877 344.819 194.523L343.884 302.917C343.852 306.671 340.783 309.689 337.026 309.657Z" fill="white"/>
<path opacity="0.6" d="M180.297 172.568L104.795 171.941C102.43 171.921 100.528 169.989 100.548 167.626L100.566 165.522C100.585 163.213 102.433 161.336 104.743 161.279L180.265 159.412C182.685 159.352 184.674 161.307 184.654 163.726L184.616 168.324C184.596 170.688 182.662 172.588 180.297 172.568Z" fill="white"/>
<path opacity="0.6" d="M196.569 309.657L85.4099 308.733C81.6537 308.702 78.634 305.634 78.6653 301.882L79.5906 190.634C79.6213 186.949 82.5854 183.96 86.2728 183.896L196.042 185.977C200.69 186.065 204.401 189.877 204.361 194.523L203.427 302.917C203.395 306.671 200.325 309.689 196.569 309.657Z" fill="white"/>
<path opacity="0.6" d="M461.629 175.199L386.127 174.572C383.761 174.553 381.858 172.621 381.878 170.257L381.896 168.153C381.916 165.845 383.765 163.967 386.073 163.91L461.595 162.043C464.016 161.983 466.006 163.938 465.986 166.357L465.946 170.955C465.926 173.319 463.994 175.219 461.629 175.199Z" fill="white"/>
<path opacity="0.6" d="M477.901 312.288L366.741 311.365C362.986 311.333 359.966 308.266 359.996 304.511L360.923 193.265C360.952 189.58 363.917 186.591 367.604 186.527L477.373 188.607C482.022 188.696 485.733 192.508 485.694 197.154L484.759 305.548C484.727 309.303 481.658 312.318 477.901 312.288Z" fill="white"/>
<path opacity="0.6" d="M481.978 348.902H85.2379C84.2491 348.902 83.4473 348.1 83.4473 347.112V331.051C83.4473 330.064 84.2489 329.261 85.2379 329.261H481.978C482.966 329.261 483.769 330.064 483.769 331.051V347.112C483.769 348.1 482.966 348.902 481.978 348.902Z" fill="white"/>
<path d="M95.0614 345.008L95.3266 340.906L91.8887 343.207L90.4668 340.705L94.17 338.901L90.4668 337.1L91.8887 334.596L95.3266 336.897L95.0614 332.795H97.9156L97.6397 336.897L101.078 334.596L102.5 337.1L98.807 338.901L102.5 340.705L101.078 343.207L97.6397 340.906L97.9156 345.008H95.0614ZM111.927 345.008L112.193 340.906L108.755 343.207L107.333 340.705L111.036 338.901L107.333 337.1L108.755 334.596L112.193 336.897L111.927 332.795H114.782L114.506 336.897L117.944 334.596L119.366 337.1L115.673 338.901L119.366 340.705L117.944 343.207L114.506 340.906L114.782 345.008H111.927Z" fill="#4042E2"/>
<path opacity="0.6" d="M482.851 379.898H86.1119C85.1231 379.898 84.3213 379.098 84.3213 378.108V362.047C84.3213 361.06 85.1229 360.258 86.1119 360.258H482.851C483.841 360.258 484.642 361.06 484.642 362.047V378.108C484.642 379.098 483.841 379.898 482.851 379.898Z" fill="white"/>
<path opacity="0.6" d="M479.904 414.778H83.1647C82.1758 414.778 81.374 413.975 81.374 412.988V396.927C81.374 395.937 82.1756 395.137 83.1647 395.137H479.904C480.892 395.137 481.695 395.937 481.695 396.927V412.988C481.695 413.975 480.892 414.778 479.904 414.778Z" fill="white"/>
<path opacity="0.6" d="M480.777 445.774H84.0377C83.0489 445.774 82.2471 444.971 82.2471 443.984V427.923C82.2471 426.933 83.0487 426.133 84.0377 426.133H480.777C481.767 426.133 482.568 426.933 482.568 427.923V443.984C482.568 444.971 481.767 445.774 480.777 445.774Z" fill="white"/>
<path opacity="0.6" d="M479.904 478.49H83.1647C82.1758 478.49 81.374 477.687 81.374 476.7V460.639C81.374 459.649 82.1756 458.849 83.1647 458.849H479.904C480.892 458.849 481.695 459.649 481.695 460.639V476.7C481.695 477.687 480.892 478.49 479.904 478.49Z" fill="white"/>
<path d="M421.217 299.042C420.988 299.472 414.106 304.318 414.106 304.318C414.106 304.318 409.321 330.643 418.096 343.603C426.869 356.565 456.769 333.487 456.769 333.487C456.769 333.487 473.586 330.86 482.034 297.817C483.972 290.238 471.853 295.998 458.351 297.393C440.938 299.195 421.217 299.042 421.217 299.042Z" fill="url(#paint0_linear_182_1394)"/>
<path d="M391.367 381.564C397.094 377.629 403.429 374.663 410.142 372.838C412.664 372.151 426.281 376.106 434.698 375.913C446.251 375.646 458.014 370.393 467.538 372.764C476.998 375.121 484.741 378.198 489.213 381.375C502.596 390.885 510.453 408.621 515.241 426.187C506.174 435.487 494.765 439.619 494.765 439.619L492.656 525.006L442.128 550.838L384.454 521.906L386.52 438.462C386.52 438.462 368.206 429.941 366.861 426.84C365.518 423.741 375.209 392.665 391.367 381.564Z" fill="white"/>
<path d="M367.715 426.468C367.715 426.468 343.174 494.455 399.138 522.398C410.757 520.856 406.289 501.572 406.289 501.572C406.289 501.572 381.97 496.195 389.275 439.48C382.55 433.952 367.715 426.468 367.715 426.468Z" fill="white"/>
<path d="M514.06 426.468C514.06 426.468 530.948 497.437 482.637 522.398C471.018 520.856 475.486 501.572 475.486 501.572C475.486 501.572 495.086 491.927 492.5 439.48C499.225 433.952 514.06 426.468 514.06 426.468Z" fill="white"/>
<path d="M493.588 527.173H384.795C384.241 527.173 383.789 526.721 383.789 526.168V453.405C383.789 452.852 384.241 452.4 384.795 452.4H493.588C494.14 452.4 494.594 452.852 494.594 453.405V526.168C494.594 526.721 494.14 527.173 493.588 527.173Z" fill="#F99746"/>
<path d="M443.761 468.897C444.148 471.519 442.751 473.898 440.148 474.286C437.542 474.674 435.118 472.862 434.733 470.243C434.347 467.621 435.54 465.02 438.144 464.632C440.749 464.244 443.377 466.278 443.761 468.897Z" fill="white"/>
<path d="M543.193 549.342C530.512 546.432 501.205 547.996 501.205 547.996L500.012 551.223L498.038 567.256C498.038 567.256 525.95 572.282 539.707 572.27C541.112 572.268 542.395 572.059 543.568 571.693C543.988 571.317 544.397 570.927 544.785 570.505C550.622 564.135 548.937 554.778 543.193 549.342Z" fill="url(#paint1_linear_182_1394)"/>
<path d="M544.45 549.658C544.052 549.547 543.632 549.441 543.193 549.342C548.936 554.778 550.622 564.135 544.785 570.505C544.397 570.929 543.986 571.319 543.568 571.693C553.889 568.484 555.11 552.656 544.45 549.658Z" fill="url(#paint2_linear_182_1394)"/>
<path d="M492.783 547.092L497.747 547.305C500.413 547.419 502.926 548.717 504.719 550.906C506.512 553.098 507.432 555.994 507.277 558.946C507.152 561.301 506.185 563.502 504.59 565.063C502.996 566.625 500.907 567.417 498.783 567.266L491.189 566.727L492.783 547.092Z" fill="url(#paint3_linear_182_1394)"/>
<path d="M325.908 547.799C338.655 545.279 367.914 547.741 367.914 547.741L369.026 551.004L370.598 567.091C370.598 567.091 342.572 571.261 328.821 570.827C327.416 570.781 326.139 570.533 324.976 570.13C324.566 569.742 324.165 569.34 323.789 568.904C318.114 562.36 320.032 553.056 325.908 547.799Z" fill="url(#paint4_linear_182_1394)"/>
<path d="M324.643 548.078C325.044 547.978 325.466 547.887 325.908 547.799C320.032 553.058 318.113 562.36 323.789 568.906C324.165 569.34 324.565 569.742 324.976 570.132C314.739 566.607 313.912 550.747 324.643 548.078Z" fill="url(#paint5_linear_182_1394)"/>
<path d="M376.354 547.098L371.388 547.156C368.721 547.188 366.175 548.41 364.328 550.544C362.482 552.678 361.488 555.546 361.571 558.502C361.637 560.859 362.549 563.088 364.103 564.698C365.657 566.309 367.727 567.165 369.852 567.079L377.456 566.772L376.354 547.098Z" fill="url(#paint6_linear_182_1394)"/>
<path d="M546.739 499.075C540.99 485.851 526.924 483.705 514.952 489.887C514.745 490.162 438.93 528.987 372.069 546.004C373.984 552.134 374.968 558.659 375.183 565.073C375.221 566.502 375.197 567.911 375.113 569.3C426.384 566.669 482.03 549.583 529.846 534.568C544.673 529.791 553.113 513.736 546.739 499.075Z" fill="url(#paint7_linear_182_1394)"/>
<path d="M493.147 566.078C492.946 558.685 494.384 551.804 497.462 545.434C497.549 545.142 497.655 544.863 497.749 544.574C493.93 543.392 488.998 541.792 482.518 539.596C435.041 523.36 398.822 506.966 364.255 488.096C350.826 480.765 335.557 485.677 331.259 501.556C327.42 515.73 336.129 527.062 348.637 532.082C391.637 549.342 454.802 565.106 493.227 567.686C493.199 567.151 493.165 566.613 493.147 566.078Z" fill="url(#paint8_linear_182_1394)"/>
<path d="M410.142 372.837C410.142 372.837 415.247 394.946 440.038 394.488C465.287 394.028 467.538 372.764 467.538 372.764L451.044 369.237L449.666 350.874L424.857 352.71L424.397 370.156L410.142 372.837Z" fill="url(#paint9_linear_182_1394)"/>
<path d="M427.24 296.747C427.24 296.747 400.821 347.881 432.158 360.285C454.263 369.036 468.122 326.329 463.989 314.763C457.596 296.878 453.387 299 453.387 299L427.24 296.747Z" fill="url(#paint10_linear_182_1394)"/>
<path d="M463.988 314.763C463.913 314.554 463.849 314.368 463.789 314.195C463.891 315.139 463.944 316.122 463.956 317.135C463.996 316.415 464.03 315.692 464.054 314.97C464.032 314.902 464.012 314.828 463.988 314.763Z" fill="white"/>
<path d="M463.789 314.195C463.753 313.847 463.711 313.501 463.66 313.162C465.02 315.423 462.405 310.151 463.789 314.195Z" fill="white"/>
<path d="M476.217 283.018C490.373 279.801 480.548 323.555 459.474 316.381C438.401 309.207 428.582 304.802 425.299 310.585C422.014 316.367 416.542 340.018 414.723 327.755C413.024 316.293 411.379 295.287 422.452 290.703C428.739 288.1 434.267 293.741 438.602 292.33C445.273 290.154 451.699 290.082 455.664 292.365C463.162 296.685 467.221 285.064 476.217 283.018Z" fill="url(#paint11_linear_182_1394)"/>
<path d="M422.94 319.092C422.94 319.092 418.371 312.197 416.289 319.253C414.207 326.31 415.53 336.057 419.717 331.525C423.907 326.994 422.94 319.092 422.94 319.092Z" fill="url(#paint12_linear_182_1394)"/>
<path d="M424.377 263.23H226.337C217.59 263.23 210.498 256.144 210.498 247.404V161.253C210.498 152.314 217.902 145.149 226.843 145.435L424.883 151.764C433.428 152.037 440.215 159.038 440.215 167.582V247.404C440.215 256.144 433.124 263.23 424.377 263.23Z" fill="#1A0F91"/>
<path d="M303.382 223.335L309.324 187.144H314.984L309.042 223.335H303.382ZM287.165 214.357L288.103 208.702H316.4L315.462 214.357H287.165ZM290.649 223.335L296.591 187.144H302.251L296.308 223.335H290.649ZM289.235 201.775L290.191 196.121H318.486L317.532 201.775H289.235ZM347.251 223.335L353.193 187.144H358.852L352.91 223.335H347.251ZM331.034 214.357L331.97 208.702H360.267L359.328 214.357H331.034ZM334.518 223.335L340.46 187.144H346.119L340.177 223.335H334.518ZM333.103 201.775L334.057 196.121H362.354L361.398 201.775H333.103Z" fill="white"/>
<path d="M356.354 262.579L382.671 294.354L392.839 262.579H356.354Z" fill="url(#paint13_linear_182_1394)"/>
<path d="M92.9288 64.8904C99.3648 64.8904 104.582 59.6325 104.582 53.1464C104.582 46.6604 99.3648 41.4025 92.9288 41.4025C86.4928 41.4025 81.2754 46.6604 81.2754 53.1464C81.2754 59.6325 86.4928 64.8904 92.9288 64.8904Z" fill="#FF827A"/>
<path d="M129.981 64.8904C136.417 64.8904 141.634 59.6325 141.634 53.1464C141.634 46.6604 136.417 41.4025 129.981 41.4025C123.545 41.4025 118.327 46.6604 118.327 53.1464C118.327 59.6325 123.545 64.8904 129.981 64.8904Z" fill="#FF827A"/>
<path d="M168.824 64.8904C175.26 64.8904 180.478 59.6325 180.478 53.1464C180.478 46.6604 175.26 41.4025 168.824 41.4025C162.388 41.4025 157.171 46.6604 157.171 53.1464C157.171 59.6325 162.388 64.8904 168.824 64.8904Z" fill="#FF827A"/>
<defs>
<linearGradient id="paint0_linear_182_1394" x1="458.986" y1="287.152" x2="415.252" y2="357.947" gradientUnits="userSpaceOnUse">
<stop stop-color="#2B3582"/>
<stop offset="1" stop-color="#150E42"/>
</linearGradient>
<linearGradient id="paint1_linear_182_1394" x1="498.098" y1="559.682" x2="550.568" y2="560.085" gradientUnits="userSpaceOnUse">
<stop stop-color="#2B3582"/>
<stop offset="1" stop-color="#150E42"/>
</linearGradient>
<linearGradient id="paint2_linear_182_1394" x1="625.982" y1="490.787" x2="503.438" y2="595.295" gradientUnits="userSpaceOnUse">
<stop stop-color="#53D8FF"/>
<stop offset="1" stop-color="#3840F7"/>
</linearGradient>
<linearGradient id="paint3_linear_182_1394" x1="532.729" y1="465.145" x2="477.417" y2="615.08" gradientUnits="userSpaceOnUse">
<stop stop-color="#F9B776"/>
<stop offset="1" stop-color="#F47960"/>
</linearGradient>
<linearGradient id="paint4_linear_182_1394" x1="370.751" y1="559.424" x2="318.269" y2="558.373" gradientUnits="userSpaceOnUse">
<stop stop-color="#2B3582"/>
<stop offset="1" stop-color="#150E42"/>
</linearGradient>
<linearGradient id="paint5_linear_182_1394" x1="249.964" y1="381.194" x2="350.065" y2="624.179" gradientUnits="userSpaceOnUse">
<stop stop-color="#53D8FF"/>
<stop offset="1" stop-color="#3840F7"/>
</linearGradient>
<linearGradient id="paint6_linear_182_1394" x1="421.761" y1="419.971" x2="366.419" y2="569.985" gradientUnits="userSpaceOnUse">
<stop stop-color="#F9B776"/>
<stop offset="1" stop-color="#F47960"/>
</linearGradient>
<linearGradient id="paint7_linear_182_1394" x1="556.205" y1="462.253" x2="412.298" y2="570.438" gradientUnits="userSpaceOnUse">
<stop stop-color="#4F52FF"/>
<stop offset="1" stop-color="#1A0F91"/>
</linearGradient>
<linearGradient id="paint8_linear_182_1394" x1="426.067" y1="559.161" x2="388.38" y2="462.986" gradientUnits="userSpaceOnUse">
<stop stop-color="#4042E2"/>
<stop offset="1" stop-color="#1A0F91"/>
</linearGradient>
<linearGradient id="paint9_linear_182_1394" x1="439.466" y1="427.324" x2="438.191" y2="316.249" gradientUnits="userSpaceOnUse">
<stop stop-color="#F9B776"/>
<stop offset="1" stop-color="#F47960"/>
</linearGradient>
<linearGradient id="paint10_linear_182_1394" x1="434.136" y1="358.836" x2="452.211" y2="270.787" gradientUnits="userSpaceOnUse">
<stop stop-color="#F9B776"/>
<stop offset="1" stop-color="#F47960"/>
</linearGradient>
<linearGradient id="paint11_linear_182_1394" x1="457.199" y1="285.994" x2="413.851" y2="356.165" gradientUnits="userSpaceOnUse">
<stop stop-color="#2B3582"/>
<stop offset="1" stop-color="#150E42"/>
</linearGradient>
<linearGradient id="paint12_linear_182_1394" x1="415.938" y1="368.674" x2="426.025" y2="228.184" gradientUnits="userSpaceOnUse">
<stop stop-color="#F9B776"/>
<stop offset="1" stop-color="#F47960"/>
</linearGradient>
<linearGradient id="paint13_linear_182_1394" x1="324.498" y1="91.4931" x2="416.354" y2="405.659" gradientUnits="userSpaceOnUse">
<stop stop-color="#2B3582"/>
<stop offset="1" stop-color="#150E42"/>
</linearGradient>
</defs>
</svg>
