<svg width="600" height="587" viewBox="0 0 600 587" fill="none" xmlns="http://www.w3.org/2000/svg">
<g clip-path="url(#clip0_182_1867)">
<path d="M530.452 504.432C518.131 517.062 506.474 525.207 497.263 531.642C388.996 607.289 260.888 585.238 233.661 579.854C193.457 571.902 115.741 556.531 59.5539 492.188C-25.4522 394.845 -12.2156 241.48 53.7211 140.243C65.782 121.725 129.491 18.9457 258.978 2.46299C337.345 -7.51213 428.691 12.6064 494.843 66.5752C633.701 179.861 623.817 408.718 530.452 504.432Z" fill="url(#paint0_linear_182_1867)"/>
<path opacity="0.9" d="M596.594 151.793C596.287 149.114 591.679 148.31 590.387 150.712C577.885 173.933 542.638 233.878 498.289 261.893C426.082 307.505 369.903 390.615 403.594 442.961C403.594 442.961 630.1 443.644 596.594 151.793Z" fill="#FE7E74"/>
<path opacity="0.43" d="M584.839 185.83C584.623 186.646 584.36 187.297 584.119 188.017L583.349 190.114C582.821 191.506 582.297 192.899 581.749 194.283C580.661 197.054 579.53 199.807 578.388 202.554C576.105 208.052 573.697 213.494 571.269 218.928C566.343 229.762 561.111 240.459 555.643 251.035C544.745 272.208 532.588 292.73 519.458 312.607C512.866 322.53 505.882 332.191 498.665 341.672L493.155 348.709C492.247 349.889 491.299 351.038 490.349 352.186L487.506 355.634L484.663 359.083C483.705 360.224 482.713 361.336 481.739 362.463C479.777 364.706 477.847 366.975 475.845 369.181C467.829 378.007 459.414 386.461 450.669 394.56C446.179 398.481 441.765 402.486 437.07 406.161C432.51 409.998 427.635 413.438 422.858 416.991C422.709 417.1 422.498 417.071 422.388 416.921C422.277 416.772 422.307 416.563 422.454 416.451L422.464 416.446C431.934 409.266 441.04 401.634 449.723 393.537C458.339 385.37 466.615 376.854 474.496 367.977C482.323 359.055 489.908 349.921 497.096 340.474C504.263 331.009 511.129 321.323 517.763 311.478C524.347 301.597 530.671 291.543 536.733 281.332L541.231 273.645L545.613 265.892C548.5 260.702 551.372 255.503 554.143 250.25C559.713 239.758 565.01 229.123 570.076 218.376C572.59 212.996 575.082 207.602 577.45 202.154C578.635 199.431 579.803 196.7 580.942 193.958C581.518 192.59 582.072 191.212 582.629 189.837L583.442 187.766C583.693 187.084 583.982 186.353 584.171 185.737L584.199 185.647C584.253 185.472 584.44 185.374 584.615 185.427C584.787 185.48 584.884 185.658 584.839 185.83Z" fill="white"/>
<path opacity="0.9" d="M552.759 37.4127C552.205 34.3515 547.902 34.0683 546.962 37.0345C537.881 65.7115 511.709 140.162 473.94 178.883C412.442 241.93 369.462 346.179 405.677 402.1C405.677 402.1 613.273 370.961 552.759 37.4127Z" fill="#4042E2"/>
<path opacity="0.43" d="M545.494 78.5213C545.386 79.4216 545.219 80.2066 545.076 81.0357L544.6 83.486L543.596 88.3721C542.908 91.6249 542.185 94.8701 541.452 98.1134C539.972 104.595 538.408 111.059 536.787 117.507C533.524 130.4 529.926 143.206 526.129 155.953C522.343 168.704 518.225 181.357 513.849 193.92L512.215 198.634L510.522 203.326C509.378 206.449 508.291 209.594 507.096 212.697L503.572 222.035L499.908 231.319C490.008 256.017 478.809 280.223 465.932 303.534C465.149 305.003 464.317 306.444 463.476 307.879L460.968 312.199L458.462 316.516C457.608 317.945 456.717 319.351 455.847 320.77C454.08 323.59 452.38 326.453 450.56 329.242L445.052 337.57C437.5 348.535 429.464 359.175 420.721 369.215C420.6 369.354 420.386 369.37 420.245 369.249C420.108 369.127 420.092 368.92 420.207 368.779L420.209 368.777C428.679 358.546 436.552 347.847 443.892 336.795L449.295 328.437C451.08 325.643 452.745 322.77 454.476 319.942C455.329 318.519 456.201 317.109 457.038 315.676L459.49 311.347L461.944 307.018C462.767 305.578 463.582 304.133 464.347 302.662L469.048 293.892C470.598 290.958 472.064 287.982 473.578 285.03C474.323 283.549 475.09 282.078 475.819 280.588L477.976 276.103L480.131 271.618C480.857 270.125 481.57 268.629 482.247 267.114C487.865 255.089 493 242.848 498.018 230.56C507.958 205.942 516.631 180.822 524.508 155.462C528.426 142.774 532.094 130.008 535.522 117.178C537.243 110.765 538.906 104.336 540.488 97.8865C541.271 94.6597 542.044 91.4307 542.783 88.1941L543.863 83.3339L544.374 80.8997C544.53 80.0943 544.711 79.254 544.819 78.5069L544.831 78.4337C544.857 78.2509 545.026 78.1247 545.209 78.1512C545.388 78.1771 545.514 78.3421 545.494 78.5213Z" fill="white"/>
<path d="M66.8767 16.393H489.096C500.608 16.393 509.881 29.5829 509.671 45.66L503.731 503.178C503.452 524.709 490.773 541.885 464.823 541.615L55.8893 534.447C55.1524 534.25 46.0928 521.427 46.0996 505.686L46.296 45.1218C46.303 29.2525 55.5152 16.393 66.8767 16.393Z" fill="#24286D"/>
<path d="M76.1884 28.7827H481.617C492.671 28.7827 501.576 41.3149 501.376 56.5905L495.671 491.298C495.402 511.757 483.229 528.075 468.424 527.818L75.7517 521.007C64.9304 520.82 56.231 508.638 56.2376 493.681L56.4262 56.0791C56.4326 41.001 65.2784 28.7827 76.1884 28.7827Z" fill="#D3E1FD"/>
<path d="M451.239 65.5627L220.622 63.3773C215.185 63.3258 210.811 59.7379 210.809 55.3293V47.6461C210.807 44.2448 214.207 41.4871 218.402 41.4871H452.893C457.028 41.4871 460.291 44.3359 459.988 47.68L458.881 59.8736C458.588 63.1088 455.239 65.6007 451.239 65.5627Z" fill="#4A4DF5"/>
<path opacity="0.6" d="M480.333 133.636H76.6419C73.9636 133.636 71.7925 131.475 71.7925 128.809V115.897C71.7925 113.215 73.9899 111.047 76.6849 111.07L480.377 114.623C483.038 114.647 485.183 116.801 485.183 119.45V128.809C485.183 131.475 483.012 133.636 480.333 133.636Z" fill="white"/>
<path d="M85.1096 128.985L87.3915 115.087H89.5646L87.2827 128.985H85.1096ZM78.8823 125.538L79.2421 123.366H90.1078L89.7479 125.538H78.8823ZM80.2202 128.985L82.5018 115.087H84.6749L82.3933 128.985H80.2202ZM79.6767 120.706L80.0435 118.535H90.9092L90.5425 120.706H79.6767ZM97.5287 128.985L99.8104 115.087H101.984L99.7018 128.985H97.5287ZM91.3012 125.538L91.6612 123.366H102.527L102.167 125.538H91.3012ZM92.6391 128.985L94.921 115.087H97.0941L94.8122 128.985H92.6391ZM92.0959 120.706L92.4626 118.535H103.328L102.961 120.706H92.0959Z" fill="#4042E2"/>
<path opacity="0.6" d="M320.755 172.568L245.253 171.941C242.887 171.921 240.986 169.989 241.006 167.626L241.022 165.522C241.042 163.213 242.89 161.336 245.199 161.279L320.723 159.412C323.143 159.352 325.132 161.307 325.112 163.726L325.074 168.324C325.054 170.688 323.12 172.588 320.755 172.568Z" fill="white"/>
<path opacity="0.6" d="M337.026 309.657L225.869 308.733C222.112 308.702 219.092 305.634 219.124 301.882L220.048 190.634C220.08 186.949 223.044 183.96 226.731 183.896L336.5 185.976C341.147 186.065 344.859 189.877 344.819 194.523L343.885 302.917C343.853 306.671 340.783 309.689 337.026 309.657Z" fill="white"/>
<path opacity="0.6" d="M180.297 172.568L104.795 171.941C102.429 171.921 100.528 169.989 100.548 167.626L100.565 165.522C100.584 163.213 102.432 161.336 104.742 161.279L180.265 159.412C182.685 159.352 184.674 161.307 184.653 163.726L184.615 168.324C184.595 170.688 182.662 172.588 180.297 172.568Z" fill="white"/>
<path opacity="0.6" d="M196.569 309.657L85.4097 308.733C81.6535 308.702 78.6338 305.634 78.665 301.882L79.5903 190.634C79.621 186.949 82.5852 183.96 86.2726 183.896L196.041 185.976C200.689 186.065 204.401 189.877 204.361 194.523L203.426 302.917C203.395 306.671 200.325 309.689 196.569 309.657Z" fill="white"/>
<path opacity="0.6" d="M461.63 175.199L386.128 174.572C383.761 174.553 381.859 172.621 381.879 170.257L381.896 168.153C381.916 165.845 383.765 163.967 386.074 163.91L461.596 162.043C464.016 161.983 466.006 163.938 465.986 166.357L465.946 170.955C465.926 173.319 463.994 175.219 461.63 175.199Z" fill="white"/>
<path opacity="0.6" d="M477.9 312.288L366.741 311.365C362.986 311.333 359.966 308.266 359.996 304.511L360.922 193.265C360.952 189.58 363.916 186.591 367.604 186.527L477.373 188.608C482.022 188.696 485.733 192.508 485.693 197.154L484.759 305.549C484.727 309.303 481.657 312.318 477.9 312.288Z" fill="white"/>
<path opacity="0.6" d="M481.978 348.902H85.2381C84.2493 348.902 83.4475 348.1 83.4475 347.112V331.051C83.4475 330.064 84.2491 329.261 85.2381 329.261H481.978C482.966 329.261 483.769 330.064 483.769 331.051V347.112C483.769 348.1 482.966 348.902 481.978 348.902Z" fill="white"/>
<path d="M95.0617 345.008L95.3268 340.906L91.889 343.207L90.467 340.705L94.1702 338.901L90.467 337.1L91.889 334.596L95.3268 336.897L95.0617 332.795H97.9158L97.64 336.897L101.078 334.596L102.5 337.1L98.8073 338.901L102.5 340.705L101.078 343.207L97.64 340.906L97.9158 345.008H95.0617ZM111.928 345.008L112.193 340.906L108.755 343.207L107.333 340.705L111.036 338.901L107.333 337.1L108.755 334.596L112.193 336.897L111.928 332.795H114.782L114.506 336.897L117.944 334.596L119.366 337.1L115.673 338.901L119.366 340.705L117.944 343.207L114.506 340.906L114.782 345.008H111.928Z" fill="#4042E2"/>
<path opacity="0.6" d="M482.85 379.898H86.1114C85.1226 379.898 84.3208 379.098 84.3208 378.108V362.047C84.3208 361.06 85.1224 360.258 86.1114 360.258H482.85C483.84 360.258 484.641 361.06 484.641 362.047V378.108C484.641 379.098 483.84 379.898 482.85 379.898Z" fill="white"/>
<path opacity="0.6" d="M479.904 414.778H83.1647C82.1758 414.778 81.374 413.975 81.374 412.988V396.927C81.374 395.937 82.1756 395.137 83.1647 395.137H479.904C480.892 395.137 481.695 395.937 481.695 396.927V412.988C481.695 413.975 480.892 414.778 479.904 414.778Z" fill="white"/>
<path opacity="0.6" d="M480.777 445.774H84.0379C83.0491 445.774 82.2473 444.971 82.2473 443.984V427.923C82.2473 426.934 83.0489 426.133 84.0379 426.133H480.777C481.767 426.133 482.568 426.934 482.568 427.923V443.984C482.568 444.971 481.767 445.774 480.777 445.774Z" fill="white"/>
<path opacity="0.6" d="M479.904 478.49H83.1647C82.1758 478.49 81.374 477.687 81.374 476.7V460.639C81.374 459.649 82.1756 458.849 83.1647 458.849H479.904C480.892 458.849 481.695 459.649 481.695 460.639V476.7C481.695 477.687 480.892 478.49 479.904 478.49Z" fill="white"/>
<path d="M421.217 299.042C420.988 299.472 414.106 304.318 414.106 304.318C414.106 304.318 409.321 330.643 418.096 343.603C426.869 356.565 456.769 333.487 456.769 333.487C456.769 333.487 473.586 330.86 482.034 297.817C483.972 290.238 471.853 295.998 458.351 297.393C440.938 299.195 421.217 299.042 421.217 299.042Z" fill="url(#paint1_linear_182_1867)"/>
<path d="M391.367 381.564C397.094 377.629 403.428 374.663 410.141 372.838C412.663 372.151 426.281 376.106 434.697 375.913C446.251 375.646 458.014 370.393 467.538 372.764C476.998 375.121 484.741 378.198 489.213 381.375C502.596 390.885 510.452 408.621 515.241 426.187C506.173 435.487 494.765 439.619 494.765 439.619L492.655 525.006L442.128 550.839L384.454 521.906L386.52 438.463C386.52 438.463 368.205 429.941 366.861 426.84C365.518 423.741 375.209 392.665 391.367 381.564Z" fill="white"/>
<path d="M367.715 426.468C367.715 426.468 343.173 494.455 399.138 522.398C410.757 520.855 406.289 501.572 406.289 501.572C406.289 501.572 381.97 496.195 389.275 439.48C382.55 433.952 367.715 426.468 367.715 426.468Z" fill="white"/>
<path d="M514.06 426.468C514.06 426.468 530.948 497.437 482.637 522.398C471.018 520.855 475.486 501.572 475.486 501.572C475.486 501.572 495.086 491.927 492.5 439.48C499.225 433.952 514.06 426.468 514.06 426.468Z" fill="white"/>
<path d="M493.588 527.173H384.795C384.241 527.173 383.789 526.722 383.789 526.168V453.405C383.789 452.852 384.241 452.4 384.795 452.4H493.588C494.139 452.4 494.594 452.852 494.594 453.405V526.168C494.594 526.722 494.139 527.173 493.588 527.173Z" fill="#10B981"/>
<path d="M443.761 468.897C444.147 471.519 442.751 473.898 440.147 474.286C437.542 474.674 435.118 472.862 434.733 470.243C434.347 467.621 435.54 465.02 438.143 464.632C440.749 464.244 443.376 466.278 443.761 468.897Z" fill="white"/>
<path d="M543.193 549.342C530.512 546.432 501.205 547.996 501.205 547.996L500.012 551.223L498.038 567.256C498.038 567.256 525.95 572.282 539.707 572.27C541.112 572.268 542.394 572.059 543.568 571.693C543.988 571.317 544.396 570.927 544.785 570.505C550.622 564.135 548.936 554.778 543.193 549.342Z" fill="url(#paint2_linear_182_1867)"/>
<path d="M544.45 549.658C544.052 549.547 543.632 549.441 543.193 549.342C548.936 554.778 550.622 564.135 544.785 570.505C544.397 570.929 543.986 571.319 543.568 571.693C553.889 568.484 555.11 552.656 544.45 549.658Z" fill="url(#paint3_linear_182_1867)"/>
<path d="M492.783 547.092L497.747 547.305C500.412 547.419 502.926 548.717 504.719 550.906C506.512 553.098 507.432 555.994 507.277 558.946C507.151 561.301 506.185 563.502 504.59 565.063C502.996 566.625 500.906 567.417 498.783 567.266L491.189 566.727L492.783 547.092Z" fill="url(#paint4_linear_182_1867)"/>
<path d="M325.908 547.799C338.655 545.279 367.914 547.741 367.914 547.741L369.026 551.004L370.598 567.091C370.598 567.091 342.572 571.261 328.821 570.827C327.416 570.781 326.139 570.533 324.976 570.131C324.566 569.742 324.165 569.34 323.789 568.904C318.114 562.36 320.032 553.056 325.908 547.799Z" fill="url(#paint5_linear_182_1867)"/>
<path d="M324.643 548.078C325.044 547.978 325.466 547.887 325.908 547.799C320.032 553.058 318.114 562.36 323.789 568.906C324.165 569.34 324.566 569.742 324.976 570.132C314.739 566.607 313.912 550.747 324.643 548.078Z" fill="url(#paint6_linear_182_1867)"/>
<path d="M376.355 547.098L371.389 547.156C368.721 547.188 366.175 548.41 364.329 550.544C362.482 552.678 361.488 555.546 361.572 558.502C361.638 560.859 362.55 563.088 364.104 564.698C365.657 566.309 367.727 567.165 369.853 567.079L377.456 566.772L376.355 547.098Z" fill="url(#paint7_linear_182_1867)"/>
<path d="M546.739 499.075C540.99 485.851 526.924 483.705 514.952 489.887C514.745 490.162 438.93 528.987 372.07 546.004C373.984 552.134 374.968 558.659 375.183 565.073C375.221 566.502 375.197 567.911 375.114 569.301C426.385 566.669 482.03 549.583 529.847 534.568C544.673 529.791 553.114 513.736 546.739 499.075Z" fill="url(#paint8_linear_182_1867)"/>
<path d="M493.147 566.078C492.946 558.685 494.384 551.804 497.462 545.434C497.55 545.142 497.655 544.863 497.749 544.574C493.93 543.392 488.998 541.792 482.518 539.596C435.042 523.36 398.823 506.966 364.255 488.096C350.827 480.765 335.558 485.677 331.259 501.556C327.42 515.73 336.129 527.062 348.637 532.082C391.637 549.342 454.803 565.106 493.227 567.686C493.199 567.151 493.165 566.613 493.147 566.078Z" fill="url(#paint9_linear_182_1867)"/>
<path d="M410.141 372.838C410.141 372.838 415.247 394.946 440.038 394.488C465.287 394.028 467.538 372.764 467.538 372.764L451.044 369.237L449.665 350.874L424.857 352.71L424.396 370.156L410.141 372.838Z" fill="url(#paint10_linear_182_1867)"/>
<path d="M427.239 296.746C427.239 296.746 400.821 347.881 432.157 360.285C454.263 369.036 468.121 326.329 463.988 314.763C457.596 296.878 453.386 299 453.386 299L427.239 296.746Z" fill="url(#paint11_linear_182_1867)"/>
<path d="M463.988 314.763C463.912 314.554 463.849 314.368 463.789 314.195C463.89 315.139 463.944 316.122 463.956 317.135C463.996 316.415 464.03 315.692 464.054 314.97C464.032 314.902 464.012 314.828 463.988 314.763Z" fill="white"/>
<path d="M463.789 314.195C463.753 313.847 463.711 313.501 463.659 313.162C465.02 315.423 462.404 310.151 463.789 314.195Z" fill="white"/>
<path d="M476.217 283.018C490.373 279.801 480.548 323.555 459.474 316.381C438.4 309.207 428.582 304.802 425.299 310.584C422.014 316.367 416.542 340.018 414.723 327.755C413.024 316.293 411.379 295.287 422.452 290.703C428.739 288.1 434.267 293.741 438.602 292.33C445.273 290.154 451.699 290.082 455.663 292.365C463.161 296.685 467.221 285.064 476.217 283.018Z" fill="url(#paint12_linear_182_1867)"/>
<path d="M422.94 319.092C422.94 319.092 418.37 312.197 416.289 319.253C414.207 326.309 415.53 336.057 419.717 331.525C423.906 326.994 422.94 319.092 422.94 319.092Z" fill="url(#paint13_linear_182_1867)"/>
<path d="M424.377 263.23H226.337C217.59 263.23 210.498 256.144 210.498 247.404V161.253C210.498 152.314 217.902 145.149 226.843 145.434L424.883 151.764C433.428 152.037 440.215 159.038 440.215 167.582V247.404C440.215 256.144 433.124 263.23 424.377 263.23Z" fill="#1A0F91"/>
<path d="M303.382 223.335L309.325 187.144H314.984L309.042 223.335H303.382ZM287.165 214.358L288.104 208.703H316.4L315.462 214.358H287.165ZM290.649 223.335L296.592 187.144H302.251L296.309 223.335H290.649ZM289.235 201.776L290.191 196.121H318.486L317.532 201.776H289.235ZM347.251 223.335L353.193 187.144H358.853L352.91 223.335H347.251ZM331.034 214.358L331.97 208.703H360.267L359.329 214.358H331.034ZM334.518 223.335L340.46 187.144H346.119L340.177 223.335H334.518ZM333.104 201.776L334.058 196.121H362.355L361.398 201.776H333.104Z" fill="white"/>
<path d="M356.354 262.579L382.671 294.354L392.839 262.579H356.354Z" fill="url(#paint14_linear_182_1867)"/>
<path d="M92.9283 64.8905C99.3643 64.8905 104.582 59.6325 104.582 53.1465C104.582 46.6605 99.3643 41.4025 92.9283 41.4025C86.4923 41.4025 81.2749 46.6605 81.2749 53.1465C81.2749 59.6325 86.4923 64.8905 92.9283 64.8905Z" fill="#4A4DF5"/>
<path d="M129.98 64.8905C136.416 64.8905 141.633 59.6325 141.633 53.1465C141.633 46.6605 136.416 41.4025 129.98 41.4025C123.544 41.4025 118.327 46.6605 118.327 53.1465C118.327 59.6325 123.544 64.8905 129.98 64.8905Z" fill="#4A4DF5"/>
<path d="M168.825 64.8905C175.261 64.8905 180.478 59.6325 180.478 53.1465C180.478 46.6605 175.261 41.4025 168.825 41.4025C162.389 41.4025 157.171 46.6605 157.171 53.1465C157.171 59.6325 162.389 64.8905 168.825 64.8905Z" fill="#4A4DF5"/>
</g>
<defs>
<linearGradient id="paint0_linear_182_1867" x1="300.008" y1="586.906" x2="300.008" y2="47.3346" gradientUnits="userSpaceOnUse">
<stop stop-color="#BDD0FB"/>
<stop offset="1" stop-color="#F8FAFF"/>
</linearGradient>
<linearGradient id="paint1_linear_182_1867" x1="458.986" y1="287.152" x2="415.252" y2="357.947" gradientUnits="userSpaceOnUse">
<stop stop-color="#2B3582"/>
<stop offset="1" stop-color="#150E42"/>
</linearGradient>
<linearGradient id="paint2_linear_182_1867" x1="498.098" y1="559.682" x2="550.568" y2="560.085" gradientUnits="userSpaceOnUse">
<stop stop-color="#2B3582"/>
<stop offset="1" stop-color="#150E42"/>
</linearGradient>
<linearGradient id="paint3_linear_182_1867" x1="625.982" y1="490.787" x2="503.438" y2="595.295" gradientUnits="userSpaceOnUse">
<stop stop-color="#53D8FF"/>
<stop offset="1" stop-color="#3840F7"/>
</linearGradient>
<linearGradient id="paint4_linear_182_1867" x1="532.729" y1="465.145" x2="477.417" y2="615.08" gradientUnits="userSpaceOnUse">
<stop stop-color="#F9B776"/>
<stop offset="1" stop-color="#F47960"/>
</linearGradient>
<linearGradient id="paint5_linear_182_1867" x1="370.751" y1="559.424" x2="318.269" y2="558.373" gradientUnits="userSpaceOnUse">
<stop stop-color="#2B3582"/>
<stop offset="1" stop-color="#150E42"/>
</linearGradient>
<linearGradient id="paint6_linear_182_1867" x1="249.964" y1="381.194" x2="350.066" y2="624.179" gradientUnits="userSpaceOnUse">
<stop stop-color="#53D8FF"/>
<stop offset="1" stop-color="#3840F7"/>
</linearGradient>
<linearGradient id="paint7_linear_182_1867" x1="421.761" y1="419.971" x2="366.42" y2="569.985" gradientUnits="userSpaceOnUse">
<stop stop-color="#F9B776"/>
<stop offset="1" stop-color="#F47960"/>
</linearGradient>
<linearGradient id="paint8_linear_182_1867" x1="556.205" y1="462.253" x2="412.299" y2="570.438" gradientUnits="userSpaceOnUse">
<stop stop-color="#4F52FF"/>
<stop offset="1" stop-color="#1A0F91"/>
</linearGradient>
<linearGradient id="paint9_linear_182_1867" x1="426.068" y1="559.161" x2="388.381" y2="462.986" gradientUnits="userSpaceOnUse">
<stop stop-color="#4042E2"/>
<stop offset="1" stop-color="#1A0F91"/>
</linearGradient>
<linearGradient id="paint10_linear_182_1867" x1="439.466" y1="427.324" x2="438.191" y2="316.249" gradientUnits="userSpaceOnUse">
<stop stop-color="#F9B776"/>
<stop offset="1" stop-color="#F47960"/>
</linearGradient>
<linearGradient id="paint11_linear_182_1867" x1="434.135" y1="358.836" x2="452.21" y2="270.787" gradientUnits="userSpaceOnUse">
<stop stop-color="#F9B776"/>
<stop offset="1" stop-color="#F47960"/>
</linearGradient>
<linearGradient id="paint12_linear_182_1867" x1="457.199" y1="285.994" x2="413.851" y2="356.165" gradientUnits="userSpaceOnUse">
<stop stop-color="#2B3582"/>
<stop offset="1" stop-color="#150E42"/>
</linearGradient>
<linearGradient id="paint13_linear_182_1867" x1="415.938" y1="368.673" x2="426.024" y2="228.184" gradientUnits="userSpaceOnUse">
<stop stop-color="#F9B776"/>
<stop offset="1" stop-color="#F47960"/>
</linearGradient>
<linearGradient id="paint14_linear_182_1867" x1="324.498" y1="91.4931" x2="416.354" y2="405.659" gradientUnits="userSpaceOnUse">
<stop stop-color="#2B3582"/>
<stop offset="1" stop-color="#150E42"/>
</linearGradient>
<clipPath id="clip0_182_1867">
<rect width="600" height="587" fill="white"/>
</clipPath>
</defs>
</svg>
