<svg width="250" height="250" viewBox="0 0 250 250" fill="none" xmlns="http://www.w3.org/2000/svg">
<g clip-path="url(#clip0_182_1613)">
<path d="M246.324 112.942C239.547 70.259 211.765 17.8193 156.878 12.3314C156.878 12.3314 115.206 7.45334 74.1253 14.8465C49.7443 19.2343 28.3657 32.296 14.8382 51.0687C1.31059 69.8415 -3.20812 92.7321 2.27583 114.556C5.83757 128.731 8.24447 143.401 7.58392 157.966C6.43435 183.315 7.0957 206.978 32.6592 222.095C55.4843 235.594 84.2102 247.499 111.615 249.585C130.239 251.001 151.125 248.708 169.075 244.042C260.553 220.261 253.099 155.626 246.324 112.942Z" fill="url(#paint0_linear_182_1613)"/>
<path d="M148.533 226.814C147.176 226.358 144.641 224.214 144.219 223.393C141.414 217.928 135.472 208.026 137.233 201.809C137.534 200.748 142.743 200.76 143.659 199.915C146.981 199.147 148.184 199.08 150.971 196.856C159.198 190.289 147.597 172.485 165.994 170.776C179.47 169.525 189.233 175.879 192.001 156.712C194.769 137.545 217.855 106.27 235.701 123.644C245.943 133.615 230.358 147.236 233.889 160.324C237.244 172.762 230.259 181.029 216.354 185.27C202.449 189.512 207.953 196.051 209.226 207.483C210.757 221.215 189.716 219.334 180.079 217.669C172.318 216.326 151.617 217.95 148.533 226.814Z" fill="#FF928E"/>
<path d="M140.781 213.175L140.708 212.897C163.657 207.347 184.219 195.181 200.173 177.714C215.353 161.094 226.161 140.026 231.427 116.788L231.718 116.849C226.441 140.134 215.61 161.246 200.397 177.903C184.402 195.415 163.788 207.612 140.781 213.175Z" fill="#FCFDFE"/>
<path d="M210.545 213.118C199.396 206.911 179.385 202.753 165.942 203.848L165.917 203.562C179.413 202.463 199.5 206.638 210.694 212.869L210.545 213.118Z" fill="#FCFDFE"/>
<path d="M149.719 210.909L149.57 210.661C155.632 207.265 159.678 201.051 161.596 192.189C163.002 185.692 163.252 177.95 162.339 169.176L162.635 169.148C163.551 177.95 163.3 185.722 161.888 192.247C159.953 201.193 155.858 207.471 149.719 210.909Z" fill="#FCFDFE"/>
<path d="M202.462 175.458L202.299 175.218C213.381 168.254 227.294 168.607 237.015 170.13L236.968 170.413C227.299 168.899 213.464 168.543 202.462 175.458Z" fill="#FCFDFE"/>
<path d="M219.179 151.136L218.893 151.057C220.66 145.135 222.32 132.717 213.582 116.078L213.848 115.948C222.631 132.674 220.958 145.174 219.179 151.136Z" fill="#FCFDFE"/>
<mask id="mask0_182_1613" style="mask-type:luminance" maskUnits="userSpaceOnUse" x="143" y="76" width="72" height="157">
<path d="M166.032 232.488C158.714 231.452 151.403 230.254 144.105 228.895C143.986 228.998 141.588 213.687 149.144 205.657C164.086 190.1 154.022 176.139 151.15 167.866C146.555 156.2 148.911 142.022 162.26 144.677C175.265 146.965 177.238 121.194 174.992 101.341C173.077 91.6789 182.549 79.9545 192.001 77.2752C201.65 74.3067 211.28 80.3828 214.231 99.6432C218.698 121.944 201.79 135.392 195.529 146.572C189.369 157.548 203.699 166.428 192.165 176.153C182.462 184.794 170.234 191.005 174.707 201.86C179.303 212.591 178.202 221.364 166.032 232.488Z" fill="white"/>
</mask>
<g mask="url(#mask0_182_1613)">
<path d="M166.032 232.488C158.714 231.452 151.403 230.254 144.105 228.895C143.986 228.998 141.588 213.687 149.144 205.657C164.086 190.1 154.022 176.139 151.15 167.866C146.602 156.209 148.995 143.586 161.32 143.399C174.992 142.934 177.47 121.154 174.992 101.341C173.077 91.6789 182.549 79.9545 192.001 77.2752C201.65 74.3067 211.28 80.3828 214.231 99.6432C218.698 121.944 201.79 135.392 195.529 146.572C189.369 157.548 203.7 166.428 192.165 176.153C182.462 184.794 170.234 191.005 174.707 201.86C179.303 212.591 178.202 221.364 166.032 232.488Z" fill="#7D97F4"/>
</g>
<path d="M156.246 233.397L155.948 233.393C155.946 233.257 162.941 201.041 174.999 169.692C176.664 164.616 178.473 159.496 180.223 154.545C184.908 141.286 189.753 127.577 192.054 113.926C194.626 98.6681 193.709 84.9259 189.252 71.9139L189.535 71.8243C194.007 84.8811 194.927 98.6673 192.348 113.972C190.043 127.647 185.195 141.368 180.505 154.637C178.756 159.587 176.947 164.705 175.28 169.785C163.127 201.382 156.263 233.209 156.246 233.397Z" fill="#FCFDFE"/>
<path d="M188.974 128.922L188.752 128.73C196.911 120.006 206.754 107.606 212.043 100.945C216.302 95.5808 216.324 95.5922 216.5 95.6158L216.453 95.8993L216.476 95.7576L216.537 95.8855C216.322 96.028 214.538 98.2747 212.28 101.119C206.989 107.783 197.14 120.188 188.974 128.922Z" fill="#FCFDFE"/>
<path d="M191.44 116.955C189.752 106.955 185.474 100.377 182.183 96.6203C178.547 92.4715 175.198 90.6623 174.855 90.6216C174.856 90.6216 174.889 90.6256 174.926 90.602L174.76 90.3633C174.836 90.3153 174.922 90.3267 175.121 90.4098C176.024 90.7877 179.401 92.8202 182.942 97.0569C187.402 102.392 190.442 109.257 191.733 116.909L191.44 116.955Z" fill="#FCFDFE"/>
<path d="M168.12 190.201L167.824 190.167C168.974 180.863 166.722 170.855 161.129 160.423C158.212 154.981 154.492 149.651 150.072 144.579C149.752 144.211 149.64 144.081 149.604 144.022L149.861 143.878C149.888 143.921 150.07 144.13 150.301 144.395C154.734 149.483 158.467 154.831 161.394 160.291C167.015 170.776 169.278 180.839 168.12 190.201Z" fill="#FCFDFE"/>
<path d="M171.418 180.406L171.165 180.256C179.777 166.863 197.771 165.707 198.571 165.707C198.587 165.707 198.595 165.708 198.598 165.709L198.709 165.842L198.607 165.984L198.56 165.85L198.547 165.99C198.546 165.99 198.546 165.99 198.544 165.99C198.25 165.99 180.054 166.975 171.418 180.406Z" fill="#FCFDFE"/>
<path d="M157.468 228.143L157.17 228.132C157.325 224.082 155.82 217.177 147.775 207.287C147.338 206.749 147.338 206.749 147.35 206.668L147.645 206.709L147.498 206.689L147.634 206.635C147.657 206.676 147.821 206.877 148.01 207.11C156.11 217.069 157.624 224.044 157.468 228.143Z" fill="#FCFDFE"/>
<path d="M159.326 220.512L159.04 220.433C159.967 217.352 163.618 211.316 177.647 205.502C177.842 205.421 177.966 205.37 178.011 205.348L178.147 205.603C178.1 205.626 177.969 205.68 177.765 205.765C163.848 211.532 160.239 217.481 159.326 220.512Z" fill="#FCFDFE"/>
<path d="M189.535 219.836L157.256 220.802C148.341 220.305 138.088 220.46 127.152 220.765C116.184 221.07 105.843 221.536 96.8136 222.538L63.6987 223.479V229.951H63.7028C63.7022 229.951 63.6987 229.958 63.6987 229.971C63.6987 234.105 92.2977 236.597 127.272 235.552C161.917 234.518 189.706 230.18 189.64 226.118C189.64 226.106 189.635 225.871 189.634 225.871L189.535 219.836Z" fill="url(#paint1_linear_182_1613)"/>
<path d="M189.538 219.913C189.604 223.968 161.836 228.065 127.22 229.067C92.274 230.08 63.699 227.559 63.699 223.431C63.699 219.308 92.219 215.2 127.099 214.26C161.649 213.329 189.473 215.862 189.538 219.913Z" fill="#3840F7"/>
<path opacity="0.5" d="M148.864 124.378L132.864 136.492L149.193 148.187C167.422 161.221 178.261 181.863 178.591 204.106L178.817 219.348C178.821 219.633 178.557 219.876 178.109 220.163L128.798 219.046L125.476 219.137L75.4099 223.034C74.9447 222.768 74.7944 222.533 74.794 222.244L74.7719 206.778C74.7397 184.211 85.4942 162.844 103.822 149.002L119.986 136.767L103.666 125.043C85.3198 111.932 74.607 91.3115 74.5757 69.4106L74.5532 53.7016L124.256 55.7309L127.534 55.7137L176.353 53.195L176.583 68.6856C176.903 90.281 166.681 110.883 148.864 124.378Z" fill="#D8DEE8"/>
<path d="M178.753 219.343C178.758 219.629 178.526 219.914 178.078 220.2C174.088 222.731 152.86 225.185 127.08 225.921C101.117 226.661 79.4294 225.409 75.2907 223.074C74.8255 222.809 74.5824 222.533 74.582 222.244C74.5781 219.387 98.1364 216.436 126.996 215.653C155.63 214.876 178.712 216.529 178.753 219.343Z" fill="#BFC8D6"/>
<path d="M127.951 173.421L125.29 173.477L124.959 131.999L127.606 131.958L127.951 173.421Z" fill="url(#paint2_linear_182_1613)"/>
<path d="M126.227 107.595L95.5493 107.975L97.1455 110.531C97.1455 110.531 108.546 126.235 126.448 134.668C144.122 125.705 155.121 109.8 155.121 109.8L156.65 107.219L126.227 107.595Z" fill="url(#paint3_linear_182_1613)"/>
<path d="M156.644 106.729C156.663 108.275 143.085 109.701 126.247 109.914C109.33 110.129 95.5534 109.04 95.5466 107.481C95.5407 105.923 109.296 104.497 126.2 104.295C143.026 104.094 156.626 105.184 156.644 106.729Z" fill="url(#paint4_linear_182_1613)"/>
<path d="M126.546 170.096C126.534 170.093 126.546 170.089 126.546 170.089C126.546 170.089 126.558 170.092 126.546 170.096Z" fill="url(#paint5_linear_182_1613)"/>
<path d="M169.621 219.577C154.454 222.84 130.809 223.844 127.368 223.942C127.368 223.942 127.142 223.948 126.985 223.952C126.828 223.956 126.602 223.963 126.602 223.963C124.773 224.015 117.204 224.136 108.179 223.873C100.22 223.636 91.145 223.111 83.8808 221.972C83.8653 221.973 83.9174 221.919 83.9174 221.916C83.9174 221.916 83.9174 221.912 83.9174 221.905C83.9174 221.811 83.9174 221.149 83.9174 220.09C83.9174 220.086 83.9174 220.086 83.9174 220.082C84.2435 214.682 85.0719 199.076 87.8986 195.707C91.2652 191.698 125.434 170.839 126.568 170.107C127.714 170.791 161.873 190.02 165.235 193.829C166.139 194.852 166.865 197.142 167.453 199.924C168.122 203.083 168.604 206.916 168.941 210.355C169.436 215.388 169.621 219.577 169.621 219.577Z" fill="url(#paint6_linear_182_1613)"/>
<path d="M97.1108 76.7656C96.7486 67.0285 97.6245 59.9589 97.6245 59.9589C97.6245 59.9589 94.874 53.8122 85.1965 56.6479C82.6656 63.8373 81.6739 70.743 81.8089 76.89L97.1108 76.7656Z" fill="white"/>
<path d="M97.3442 81.1004L82.0798 81.2335C85.4959 113.574 118.305 132.1 118.305 132.1L126.088 131.978C104.595 123.904 98.6552 99.2082 97.3442 81.1004Z" fill="white"/>
<path d="M98.3243 217.263L84.5221 217.638C82.7347 211.685 82.0109 205.711 82.1021 200.472L97.6514 200.085C97.3755 209.802 98.2836 216.889 98.3243 217.263Z" fill="white"/>
<path d="M97.8494 195.607L82.3564 195.983C85.6355 162.463 118.381 142.712 118.381 142.712L126.175 142.578C104.743 151.768 99.0106 176.998 97.8494 195.607Z" fill="white"/>
<path d="M186.834 53.221L155.239 53.4041C146.514 52.7346 136.479 52.6419 125.779 52.6941C115.046 52.7464 104.928 52.9572 96.0942 53.7186L63.6987 53.8867V59.8265H63.7027C63.7022 59.8265 63.6987 59.9343 63.6987 59.9463C63.6987 63.9019 91.6748 66.9633 125.894 66.7307C159.796 66.5002 186.998 63.1413 186.935 59.2521C186.935 59.2402 186.931 59.1987 186.931 59.1987L186.834 53.221Z" fill="#484AF0"/>
<path d="M186.836 53.1782C186.898 57.061 159.718 60.3737 125.843 60.5752C91.652 60.7786 63.699 57.7406 63.699 53.7915C63.699 49.8465 91.5995 46.5395 125.727 46.4026C159.54 46.2669 186.773 49.2993 186.836 53.1782Z" fill="url(#paint7_linear_182_1613)"/>
<path opacity="0.3" d="M169.621 219.577C154.454 222.841 130.809 223.844 127.368 223.942C127.368 223.942 127.142 223.948 126.985 223.952C126.828 223.957 126.602 223.963 126.602 223.963C124.773 224.015 117.204 224.136 108.179 223.873C100.22 223.636 91.145 223.111 83.8808 221.972C83.8653 221.973 83.9174 221.919 83.9174 221.916C83.9174 221.916 83.9174 221.912 83.9174 221.905C83.9174 221.811 83.8632 221.15 83.9107 220.09C92.4509 220.098 110.221 219.494 117.927 214.678C128.204 208.253 136.775 207.839 148.013 209.589C157.237 211.026 163.906 206.061 167.451 199.924C168.119 203.083 168.6 206.916 168.941 210.355C169.437 215.388 169.621 219.577 169.621 219.577Z" fill="url(#paint8_linear_182_1613)"/>
<path d="M157.791 18.4162C158.862 17.748 157.887 15.8047 157.829 11.6304C157.758 6.51504 159.17 5.56188 158.036 3.55495C156.649 1.1009 153.16 0.0854171 150.848 0.0375187C150.338 0.0270104 150.219 -0.240991 145.947 0.823851C138.251 2.74247 136.324 0.685776 132.877 2.74019C129.547 4.72512 131.005 6.89896 127.772 9.22678C122.53 13.0001 117.018 8.92066 113.273 12.0769C109.729 15.0622 109.648 22.6684 113.374 26.8192C117.6 31.5248 125.218 30.111 130.324 29.178C131.399 28.9817 136.825 27.8848 142.475 23.8709C145.601 21.6502 147.747 19.2788 149.112 17.5317C149.433 17.1845 149.932 16.764 150.592 16.6963C151.385 16.6149 152.022 17.0815 152.328 17.2859C153.939 18.3596 156.74 19.0723 157.791 18.4162Z" fill="url(#paint9_linear_182_1613)"/>
<path d="M150.552 13.2235C151.928 12.0166 159.778 14.6299 163.034 17.7176C166.858 21.345 166.564 24.286 169.902 28.7923C171.56 31.0327 174.405 34.0485 179.446 36.6905C179.088 37.5489 178.732 38.4077 178.375 39.266C175.938 39.407 171.154 39.3241 166.691 36.519C163.59 34.5702 161.995 31.9882 158.931 26.9035C155.855 21.8005 148.831 14.7326 150.552 13.2235Z" fill="url(#paint10_linear_182_1613)"/>
<path d="M183.552 83.7219L181.987 80.5208C181.765 80.066 181.418 79.6782 180.984 79.3986L180.209 78.8995C180.209 78.8995 178.356 78.8521 178.068 79.973C178.006 81.3963 180.88 84.5764 182.697 85.8398C182.999 86.0492 183.429 86.3286 183.691 86.1852C184.133 85.9417 183.823 84.6318 183.552 83.7219Z" fill="url(#paint11_linear_182_1613)"/>
<path d="M180.611 77.1591C180.365 78.532 180.676 79.2478 181.012 79.6487C181.249 79.9309 183.168 82.9774 182.38 83.4694C182.024 83.6909 179.585 80.7765 179.349 80.3299C179.135 79.9255 178.995 80.0209 178.983 78.919C178.975 78.1935 178.822 77.6096 178.702 77.2444C179.338 77.2158 179.975 77.1876 180.611 77.1591Z" fill="url(#paint12_linear_182_1613)"/>
<path d="M183.383 66.2784C183.383 66.2784 185.115 68.268 184.833 70.4493C184.551 72.6303 181.517 69.4414 181.094 68.3637C180.671 67.286 180.178 65.7507 180.178 65.7507C180.178 65.7507 182.305 64.4767 183.383 66.2784Z" fill="url(#paint13_linear_182_1613)"/>
<path d="M182.722 63.1652C182.722 63.1652 182.252 65.4832 183.148 66.7066C183.595 67.3159 184.197 67.8328 184.02 68.3288C183.902 68.6611 183.45 68.9 183.069 68.8623C182.338 68.7901 181.933 67.7117 181.648 66.9511C181.226 65.8277 180.99 63.4238 180.99 63.4238L182.722 63.1652Z" fill="url(#paint14_linear_182_1613)"/>
<path d="M181.341 65.1193C181.875 64.9326 182.407 64.7457 182.94 64.5589C183.771 62.7316 184.785 59.7304 184.447 56.0824C183.575 46.7012 174.561 41.7299 173.559 41.1979C171.103 42.384 168.615 44.0573 168.525 46.1667C168.412 48.8147 172.16 50.2144 175.683 54.0865C177.798 56.4106 180.058 59.8737 181.341 65.1193Z" fill="url(#paint15_linear_182_1613)"/>
<path d="M180.767 78.2322C182.527 71.6134 182.078 66.2124 181.57 63.1008C180.802 58.3981 179.242 48.8323 172.606 45.2652C171.157 44.4863 169.086 43.7888 166.561 41.6232C164.452 39.8147 163.113 37.9128 162.304 36.5727C153.43 34.0671 145.245 35.0825 141.633 39.6634C141.216 40.1927 140.172 41.3408 139.97 43.0338C139.513 46.8535 143.412 51.4521 147.788 52.4124C153.349 53.6329 156.575 48.1371 161.501 49.9656C162.879 50.4771 164.048 51.7446 166.385 54.2796C169.358 57.5045 171.028 60.4802 171.661 61.6709C173.543 65.2166 174.971 67.834 175.179 71.2261C175.228 72.0164 175.256 73.6129 176.219 75.3348C176.957 76.6566 177.957 77.5378 178.702 78.0823C179.39 78.1321 180.079 78.1822 180.767 78.2322Z" fill="url(#paint16_linear_182_1613)"/>
<path opacity="0.3" d="M139.97 43.0338C140.172 41.3408 141.216 40.1927 141.633 39.6634C145.245 35.0825 153.43 34.0671 162.304 36.5727C163.113 37.9127 164.452 39.8147 166.561 41.6232C169.086 43.7888 171.157 44.4862 172.606 45.2652C176.658 47.4434 178.815 51.8579 180.058 56.0366C178.214 53.2855 176.637 52.5543 175.416 52.5411C173.668 52.5225 172.887 53.9609 170.8 53.7645C168.569 53.5547 168.059 51.7794 166.251 51.5754C165.71 51.5144 165.044 51.5947 164.244 52.0046C163.177 50.9289 162.381 50.2921 161.501 49.9657C156.575 48.1373 153.349 53.633 147.788 52.4125C143.412 51.4521 139.513 46.8535 139.97 43.0338Z" fill="#4F52FF"/>
<path d="M176.17 48.2256C175.165 48.1742 173.618 48.1444 171.753 48.3218C162.899 49.164 160.457 53.3798 153.14 54.4083C151.408 54.6517 143.701 55.7352 140.362 51.4466C137.965 48.3675 138.328 43.062 140.949 40.9752C142.059 40.0921 143.158 40.1167 150.263 40.1785C152.938 40.2018 155.614 40.2102 158.29 40.243C169.617 40.382 171.783 39.6269 173.844 41.4301C174.805 42.2713 176.211 44.0781 176.17 48.2256Z" fill="url(#paint17_linear_182_1613)"/>
<path d="M152.258 13.2463C152.258 13.2463 143.318 10.7367 139.38 15.027C138.657 15.8146 138.086 16.8504 137.669 18.8498C135.55 29.0384 143.566 35.1582 140.408 40.5332C139.155 42.6677 136.945 43.3109 135.376 47.1469C135.11 47.7963 134.149 50.1453 135.031 50.8855C135.807 51.5373 137.085 50.161 139.354 50.4268C141.757 50.7083 142.319 52.4852 143.935 52.2265C144.99 52.0577 145.444 51.1914 146.997 49.0317C149.246 45.9048 150.37 44.3413 151.176 43.7931C154.355 41.6302 156.813 44.4509 160.438 42.3091C161.752 41.5337 166.616 35.5062 165.185 37.1619C161.778 33.0721 160.987 29.6979 160.906 27.3519C160.817 24.7799 161.587 23.6109 160.906 20.5705C160.906 20.5705 160.758 18.9716 158.017 16.0585C157.624 15.6403 156.542 13.4113 152.258 13.2463Z" fill="url(#paint18_linear_182_1613)"/>
<path d="M148.64 8.32852C148.745 8.80115 149.281 11.3376 148.202 11.9901C147.969 12.1316 147.519 12.2127 146.622 12.3747C146.033 12.4808 145.54 12.5458 145.192 12.5859C145.242 13.0112 145.391 13.7034 145.901 14.3332C147.331 16.0984 150.196 15.6417 150.605 15.5699C152.047 15.3172 153.466 14.8885 153.808 14.6264C154.331 14.2274 154.74 13.9281 154.983 13.6239C154.425 13.3644 153.299 12.6799 152.543 12.456C151.978 12.2887 151.447 12.1693 150.965 12.0836C150.886 11.5936 150.807 11.1037 150.727 10.6137C150.031 9.85206 149.336 9.09033 148.64 8.32852Z" fill="url(#paint19_linear_182_1613)"/>
<path d="M148.59 9.59262C148.59 9.59262 148.785 11.4514 150.662 11.7788C152.343 12.0722 153.608 8.16276 152.747 7.15157C152.46 6.81424 151.753 6.49337 151.138 6.51032C150.707 6.52237 149.248 7.05707 149.044 8.46204C148.753 8.16748 148.391 8.08273 148.213 8.2061C147.987 8.36258 148.108 8.81762 148.136 8.92066C148.23 9.27786 148.473 9.49927 148.59 9.59262Z" fill="url(#paint20_linear_182_1613)"/>
<path opacity="0.3" d="M165.185 37.1619C164.775 36.6698 164.404 36.1887 164.067 35.7178C162.189 35.112 160.564 34.8866 159.253 34.8253C156.296 34.6874 154.677 35.357 152.663 34.1911C150.379 32.8677 150.784 31.0307 148.578 30.0053C146.258 28.9262 144.618 30.1457 142.385 29.7517C141.037 29.5138 139.395 28.646 137.718 26.1145C139.002 32.2094 142.734 36.5744 140.408 40.5332C139.154 42.6676 136.945 43.3108 135.375 47.1468C135.109 47.7962 134.149 50.1452 135.031 50.8854C135.807 51.5372 137.085 50.161 139.354 50.4268C141.757 50.7082 142.319 52.4851 143.935 52.2265C144.99 52.0577 145.444 51.1913 146.997 49.0316C149.246 45.9047 150.37 44.3412 151.176 43.793C154.355 41.6302 156.813 44.4508 160.438 42.3091C161.752 41.5336 166.615 35.5061 165.185 37.1619Z" fill="url(#paint21_linear_182_1613)"/>
<path d="M167.878 38.2076L147.649 39.1551C147.371 39.1682 147.117 39.3117 146.969 39.5395L146.41 40.4043C146.131 40.8346 146.466 41.3899 146.992 41.3705L168.42 40.5848L167.878 38.2076Z" fill="url(#paint22_linear_182_1613)"/>
<path d="M188.918 27.3647L168.02 27.7546C167.401 27.7661 166.835 28.0903 166.529 28.6079L159.292 40.8636L181.364 40.0172C181.97 39.994 182.523 39.6782 182.834 39.1775L189.54 28.3954C189.825 27.9365 189.474 27.3544 188.918 27.3647Z" fill="url(#paint23_linear_182_1613)"/>
<path d="M166.529 28.6079C166.835 28.0903 167.401 27.7661 168.02 27.7546L168.477 27.746C168.546 28.3953 168.753 28.9893 169.166 29.4689C170.454 30.9661 172.595 30.0426 174.191 31.6271C175.944 33.3675 174.325 35.4396 175.892 37.0595C177.541 38.7644 180.209 37.3762 183.275 38.4674L182.834 39.1774C182.523 39.6782 181.97 39.994 181.364 40.0172L159.292 40.8636L166.529 28.6079Z" fill="url(#paint24_linear_182_1613)"/>
<path d="M149.298 37.5569C149.561 36.8876 149.824 36.2186 150.087 35.5492C147.178 34.7812 143.153 33.6466 139.025 32.2268C138.378 32.0043 137.61 31.7289 137.359 31.074C136.653 29.2373 141.14 27.3338 142.885 23.323C144.498 19.6135 143.61 14.4657 141.737 13.8575C137.841 12.5921 124.024 29.1462 128.959 36.1247C131.748 40.0695 140.349 40.6976 149.298 37.5569Z" fill="url(#paint25_linear_182_1613)"/>
<path d="M150.087 35.5492C151.914 34.6151 154.101 35.5726 154.243 35.6367C154.644 35.8191 155.228 36.1439 155.819 36.7243C155.885 36.8119 156.678 37.8688 156.389 38.2076C156.157 38.4789 155.261 38.254 154.184 37.6092C153.732 37.5482 153.06 37.4923 152.256 37.5637C150.777 37.695 150.099 38.1446 149.563 37.7565C149.17 37.4725 149.035 36.8717 149.177 36.4251C149.329 35.9453 149.778 35.7074 150.087 35.5492Z" fill="url(#paint26_linear_182_1613)"/>
<path d="M67.612 84.987V108.726C67.612 112.16 64.6297 114.935 60.9318 114.919L47.1988 114.866L45.3852 114.86L38.9771 122.418C38.4912 122.782 37.327 122.797 36.9356 122.343L35.9849 121.134L31.0126 114.803L30.5531 114.8L17.9952 114.753C16.645 114.747 15.4891 114.276 14.5207 113.488C13.2391 112.452 12.5005 110.867 12.5005 109.093V87.5611C12.5005 84.4469 14.9381 81.7791 18.0753 81.6007L20.7387 81.4465L61.0023 79.152C62.0132 79.0956 62.9146 79.2494 63.7789 79.5728C66.0713 80.4329 67.612 82.4919 67.612 84.987Z" fill="url(#paint27_linear_182_1613)"/>
<path d="M66.6337 84.3752V108.048C66.6337 111.473 63.5536 114.241 59.8784 114.232L46.8905 114.207L44.3342 114.2L37.9576 121.407C37.4945 121.928 36.6719 121.925 36.2219 121.401L35.9884 121.134L30.5545 114.8L30.0128 114.169L17.063 114.141C16.114 114.137 15.2676 113.902 14.4851 113.488C12.6915 112.546 11.5222 110.666 11.5222 108.504V87.0275C11.5222 83.9198 13.9827 81.2552 17.1068 81.0731L20.1632 80.8942L59.826 78.5683C61.3229 78.4805 62.77 78.8603 63.8887 79.5728C65.5158 80.6056 66.6337 82.3477 66.6337 84.3752Z" fill="#10B981"/>
<path d="M35.7086 101.53L37.9333 101.479C38.5534 101.465 39.0664 100.955 39.0989 100.354L39.9133 85.268C39.9301 84.9568 39.8139 84.7011 39.5923 84.4901C39.3708 84.2799 39.0637 84.2123 38.7429 84.2343L34.9116 84.4909C34.5976 84.5121 34.2979 84.6123 34.0824 84.8485C33.8671 85.0839 33.7546 85.3674 33.7708 85.6712L34.5632 100.482C34.595 101.074 35.0975 101.544 35.7086 101.53Z" fill="white"/>
<path d="M39.142 105.215C38.5866 104.704 37.8049 104.457 36.8 104.473C35.764 104.488 34.9786 104.752 34.4409 105.261C33.9046 105.768 33.6372 106.509 33.6372 107.486C33.6372 108.428 33.9107 109.156 34.4588 109.673C35.0085 110.191 35.7879 110.45 36.7999 110.45C37.7928 110.45 38.5713 110.182 39.1328 109.646C39.6959 109.107 39.978 108.371 39.978 107.437C39.978 106.468 39.6989 105.727 39.142 105.215Z" fill="white"/>
<path opacity="0.3" d="M47.2242 114.866L45.3979 114.86L38.9835 122.418C38.4975 122.782 37.3302 122.798 36.9388 122.343L35.9865 121.134L30.5536 114.8L17.9954 114.753C16.6453 114.747 15.4534 114.276 14.485 113.488C12.6914 112.546 11.5222 110.666 11.5222 108.504V87.0275C11.5222 83.9198 13.9826 81.2552 17.1068 81.0731L20.1631 80.8942C20.3555 81.07 20.5303 81.2519 20.7098 81.4466C22.7577 83.6152 24.2034 86.8141 23.9393 91.5282C23.1598 105.55 32.839 107.819 41.5852 110.45C44.2952 111.266 45.9144 112.665 46.8601 114.207C46.994 114.423 47.1134 114.643 47.2242 114.866Z" fill="url(#paint28_linear_182_1613)"/>
<path d="M33.8028 135.42L35.0562 133.693L37.6152 132.678C37.6152 132.678 36.5893 130.881 34.225 132.221C33.4788 132.983 32.4434 134.757 31.3139 135.595C30.1843 136.434 33.8028 135.42 33.8028 135.42Z" fill="url(#paint29_linear_182_1613)"/>
<path d="M24.5473 136.698C27.1633 133.942 30.2874 132.559 31.9468 131.94C32.4544 132.143 33.2354 132.538 33.7251 133.302C35.8581 136.631 29.1318 141.754 30.7615 145.031C31.8482 147.216 35.2666 145.797 39.6754 149.424C41.7911 151.165 41.9845 152.299 41.7254 153.143C41.3151 154.479 39.6824 155.378 39.1856 155.652C34.8707 158.027 25.9143 157.378 22.1336 152.113C18.9691 147.707 20.2578 141.218 24.5473 136.698Z" fill="white"/>
<path d="M27.9177 232.213C27.8253 231.724 26.1806 231.28 25.3663 231.936C24.9619 232.262 24.6835 232.923 24.9175 233.222C25.0026 233.33 24.654 233.521 24.988 233.525C26.0959 233.537 28.0097 232.7 27.9177 232.213Z" fill="url(#paint30_linear_182_1613)"/>
<path d="M26.1939 232.392L24.5024 232.162C25.286 231.254 25.1411 228.362 25.1411 228.362L26.9397 228.748C26.9397 228.748 26.7348 229.542 26.3862 230.713C26.2668 231.114 26.2135 231.741 26.1939 232.392Z" fill="url(#paint31_linear_182_1613)"/>
<path d="M26.344 232.191C26.344 232.191 24.3076 231.74 24.0874 232.129C23.8671 232.517 23.6961 233.558 24.988 233.525C26.28 233.491 26.4586 232.521 26.344 232.191Z" fill="url(#paint32_linear_182_1613)"/>
<path d="M51.1256 234.052C50.9628 233.579 49.2698 233.361 48.5589 234.121C48.206 234.498 48.0263 235.19 48.3015 235.454C48.4015 235.55 48.0841 235.786 48.4154 235.745C49.5141 235.608 51.2874 234.522 51.1256 234.052Z" fill="url(#paint33_linear_182_1613)"/>
<path d="M49.4445 234.461H47.7363C48.3802 233.456 47.816 230.612 47.816 230.612L49.6532 230.752C49.6532 230.752 49.5657 231.566 49.3908 232.772C49.3309 233.185 49.3694 233.813 49.4445 234.461Z" fill="url(#paint34_linear_182_1613)"/>
<path d="M53.8715 172.283C54.6628 174.799 55.7929 178.858 56.5202 183.952C58.5951 198.479 54.1851 198.943 55.0086 215.041C55.2715 220.179 50.3835 232.028 49.9527 232.29C49.7441 232.309 49.5179 232.322 49.2767 232.316C48.8516 232.303 48.2522 232.24 47.5551 232.039C46.7808 231.911 43.9891 224.633 44.6362 220.305C45.0942 217.243 44.9614 213.957 44.6959 207.383C44.6529 206.317 41.8216 186.659 41.8216 186.659C40.9603 193.935 39.9699 200.118 39.1112 204.911C36.3524 220.312 27.3823 229.633 26.9144 229.783C26.822 229.818 25.9803 230.112 25.2922 229.677C24.9859 229.482 24.8816 229.231 24.8816 229.231C24.6417 229.05 24.9523 213.856 27.6883 202.42C31.6596 185.822 29.9303 181.938 31.1885 174.524C32.2772 168.109 53.8715 172.283 53.8715 172.283Z" fill="url(#paint35_linear_182_1613)"/>
<path d="M54.9341 174.79C52.5517 175.971 46.4077 178.078 39.0894 177.032C35.7458 176.553 33.0708 175.481 31.1899 174.527C33.086 168.993 31.5965 166.03 30.8936 163.298C29.8943 159.408 29.8752 159.7 29.0507 156.61C27.6904 151.508 27.4662 146.292 28.4009 145.228C30.3502 143.004 33.5039 142.437 35.9281 142.265C36.6424 142.214 37.2921 142.196 37.8316 142.181C39.1806 142.142 41.43 141.889 43.7516 142.035C45.9631 142.181 48.239 142.69 49.8651 144.101C49.9223 144.149 49.2383 144.504 49.5765 144.88C49.888 145.235 50.9596 146.468 51.9323 148.135C52.639 149.346 53.2736 150.754 53.9157 152.854C55.0442 156.554 55.371 159.708 55.4774 161.083C56.0892 168.803 55.4813 172.369 54.9341 174.79Z" fill="white"/>
<path d="M49.5641 234.242C49.5641 234.242 47.482 234.069 47.3205 234.484C47.1589 234.898 47.1411 235.952 48.4154 235.745C49.6897 235.538 49.7256 234.553 49.5641 234.242Z" fill="url(#paint36_linear_182_1613)"/>
<path d="M39.5632 138.557C39.1896 138.341 38.905 138.804 39.0809 139.208C39.2569 139.612 39.8483 139.866 40.207 139.624C40.5657 139.383 40.0659 138.846 39.5632 138.557Z" fill="url(#paint37_linear_182_1613)"/>
<path d="M44.1963 142.602C44.1963 143.301 42.3116 143.868 39.9824 143.868C37.657 143.868 35.7725 143.301 35.7725 142.602C35.7725 142.485 35.8257 142.372 35.9283 142.265C36.6426 142.214 37.2923 142.196 37.8318 142.182C39.1808 142.142 41.43 141.889 43.7516 142.036C44.0366 142.207 44.1963 142.401 44.1963 142.602Z" fill="url(#paint38_linear_182_1613)"/>
<path d="M41.1142 142.061C40.8707 141.533 40.6271 141.005 40.3834 140.477C40.5966 140.275 41.9914 139.271 41.9626 138.134C41.9235 136.59 40.6485 135.411 40.3983 135.175C39.3508 134.185 39.1278 134.074 38.7433 133.962L38.2158 133.83C38.2158 133.83 38.1869 133.828 38.157 133.827C37.8412 133.813 36.8623 134.071 36.6786 134.17C36.0921 134.484 36.209 137.144 37.5099 140.567C37.5262 140.708 37.5438 140.849 37.5625 140.991C37.6794 141.875 37.8356 142.719 38.0206 143.523C38.0206 143.523 40.4218 143.622 41.1142 142.061Z" fill="url(#paint39_linear_182_1613)"/>
<path d="M39.7938 133.301C40.1341 134.38 39.3813 134.844 39.1715 135.108C39.1444 135.143 38.9964 135.349 38.9018 135.655C38.8889 135.696 38.8808 135.743 38.8786 135.801C38.85 136.553 40.2274 137.021 40.1079 137.389C40.0212 137.656 39.1643 137.586 39.1344 137.804C39.1061 138.008 39.8585 138.192 39.83 138.436C39.8085 138.62 39.371 138.587 39.2042 138.908C39.121 139.068 39.1884 139.155 39.1791 139.572C39.1738 139.808 39.1457 140.072 39.1077 140.226C38.9225 140.973 37.8999 141.528 37.6082 141.338C37.5269 141.284 37.5584 141.21 37.4228 140.991C37.4228 140.991 37.2971 140.788 37.0574 140.581C36.7149 140.285 36.0847 140.187 35.4101 139.968C34.161 139.561 33.6901 139.039 33.5415 138.86C33.4886 138.795 33.4526 138.746 33.4267 138.71C32.9072 137.994 32.5335 136.827 32.6757 136C32.9139 134.614 34.4986 134.77 35.2665 133.24C35.6946 132.386 35.9524 131.492 36.9831 131.141C37.7853 130.868 38.5251 131.144 39.0041 131.799C39.3203 132.233 39.6339 132.794 39.7938 133.301Z" fill="#26264F"/>
<path d="M39.6244 137.255C39.234 136.973 38.8605 137.457 39.0076 137.927C39.1546 138.398 39.7834 138.746 40.2125 138.517C40.6418 138.289 40.1498 137.634 39.6244 137.255Z" fill="url(#paint40_linear_182_1613)"/>
<path d="M43.2099 131.663L41.475 130.635C41.475 130.635 39.867 129.932 38.1054 131.048C36.3438 132.163 37.0984 132.971 37.0984 132.971L38.3943 132.407C38.3943 132.407 39.2291 132.038 40.5221 132.59C42.0135 133.006 43.0525 132.902 43.0525 132.902L43.2099 131.663Z" fill="url(#paint41_linear_182_1613)"/>
<path d="M51.3239 130.209C47.6474 129.019 44.2182 129.267 42.4557 129.501C42.1136 129.914 41.6295 130.625 41.5861 131.522C41.3969 135.428 49.8603 136.771 50.0853 140.397C50.2353 142.815 46.5307 143.169 44.5018 148.399C43.5281 150.909 43.93 151.991 44.5817 152.608C45.6136 153.586 47.4946 153.61 48.0668 153.618C53.037 153.681 60.5437 148.934 61.1988 142.566C61.7471 137.234 57.352 132.161 51.3239 130.209Z" fill="white"/>
</g>
<defs>
<linearGradient id="paint0_linear_182_1613" x1="125" y1="10.7527" x2="125" y2="250" gradientUnits="userSpaceOnUse">
<stop stop-color="#FAFBFF"/>
<stop offset="1" stop-color="#C0D2FB"/>
</linearGradient>
<linearGradient id="paint1_linear_182_1613" x1="63.6987" y1="227.814" x2="189.64" y2="227.814" gradientUnits="userSpaceOnUse">
<stop stop-color="#4F52FF"/>
<stop offset="1" stop-color="#2F3199"/>
</linearGradient>
<linearGradient id="paint2_linear_182_1613" x1="127.035" y1="107.012" x2="124.51" y2="321.532" gradientUnits="userSpaceOnUse">
<stop stop-color="#FFC444"/>
<stop offset="0.9964" stop-color="#F36F56"/>
</linearGradient>
<linearGradient id="paint3_linear_182_1613" x1="126.321" y1="90.1718" x2="124.631" y2="233.736" gradientUnits="userSpaceOnUse">
<stop stop-color="#FFC444"/>
<stop offset="0.9964" stop-color="#F36F56"/>
</linearGradient>
<linearGradient id="paint4_linear_182_1613" x1="135.591" y1="1.43627" x2="121.35" y2="172.494" gradientUnits="userSpaceOnUse">
<stop stop-color="#FFC444"/>
<stop offset="0.9964" stop-color="#F36F56"/>
</linearGradient>
<linearGradient id="paint5_linear_182_1613" x1="126.546" y1="170.084" x2="126.546" y2="170.124" gradientUnits="userSpaceOnUse">
<stop stop-color="#FFC444"/>
<stop offset="0.9964" stop-color="#F36F56"/>
</linearGradient>
<linearGradient id="paint6_linear_182_1613" x1="127.805" y1="137.684" x2="124.52" y2="416.706" gradientUnits="userSpaceOnUse">
<stop stop-color="#FFC444"/>
<stop offset="0.9964" stop-color="#F36F56"/>
</linearGradient>
<linearGradient id="paint7_linear_182_1613" x1="63.699" y1="53.4914" x2="186.836" y2="53.4914" gradientUnits="userSpaceOnUse">
<stop stop-color="#4F52FF"/>
<stop offset="1" stop-color="#2F3199"/>
</linearGradient>
<linearGradient id="paint8_linear_182_1613" x1="127.208" y1="184.622" x2="125.706" y2="312.174" gradientUnits="userSpaceOnUse">
<stop stop-color="#FFC444"/>
<stop offset="0.9964" stop-color="#F36F56"/>
</linearGradient>
<linearGradient id="paint9_linear_182_1613" x1="160.917" y1="-1.37344" x2="105.403" y2="37.8021" gradientUnits="userSpaceOnUse">
<stop stop-color="#311944"/>
<stop offset="1" stop-color="#6B3976"/>
</linearGradient>
<linearGradient id="paint10_linear_182_1613" x1="164.498" y1="-19.3975" x2="165.615" y2="127.525" gradientUnits="userSpaceOnUse">
<stop stop-color="#FF9085"/>
<stop offset="1" stop-color="#FB6FBB"/>
</linearGradient>
<linearGradient id="paint11_linear_182_1613" x1="184.857" y1="84.5642" x2="178.074" y2="79.8479" gradientUnits="userSpaceOnUse">
<stop stop-color="#311944"/>
<stop offset="1" stop-color="#6B3976"/>
</linearGradient>
<linearGradient id="paint12_linear_182_1613" x1="182.576" y1="86.3498" x2="169.839" y2="46.6521" gradientUnits="userSpaceOnUse">
<stop stop-color="#FFC444"/>
<stop offset="0.9964" stop-color="#F36F56"/>
</linearGradient>
<linearGradient id="paint13_linear_182_1613" x1="184.865" y1="68.2544" x2="180.178" y2="68.2544" gradientUnits="userSpaceOnUse">
<stop stop-color="#311944"/>
<stop offset="1" stop-color="#6B3976"/>
</linearGradient>
<linearGradient id="paint14_linear_182_1613" x1="187.58" y1="80.6415" x2="180.437" y2="58.3785" gradientUnits="userSpaceOnUse">
<stop stop-color="#FFC444"/>
<stop offset="0.9964" stop-color="#F36F56"/>
</linearGradient>
<linearGradient id="paint15_linear_182_1613" x1="176.518" y1="41.1979" x2="176.518" y2="65.1193" gradientUnits="userSpaceOnUse">
<stop stop-color="#4042E2"/>
<stop offset="1" stop-color="#23247C"/>
</linearGradient>
<linearGradient id="paint16_linear_182_1613" x1="160.978" y1="35.2375" x2="160.978" y2="78.2322" gradientUnits="userSpaceOnUse">
<stop stop-color="#4042E2"/>
<stop offset="1" stop-color="#23247C"/>
</linearGradient>
<linearGradient id="paint17_linear_182_1613" x1="157.464" y1="40.1523" x2="157.464" y2="54.7089" gradientUnits="userSpaceOnUse">
<stop stop-color="#4042E2"/>
<stop offset="1" stop-color="#23247C"/>
</linearGradient>
<linearGradient id="paint18_linear_182_1613" x1="149.541" y1="-19.3609" x2="150.646" y2="125.989" gradientUnits="userSpaceOnUse">
<stop stop-color="#FF9085"/>
<stop offset="1" stop-color="#FB6FBB"/>
</linearGradient>
<linearGradient id="paint19_linear_182_1613" x1="148.827" y1="18.6093" x2="151.52" y2="5.91483" gradientUnits="userSpaceOnUse">
<stop stop-color="#FFC444"/>
<stop offset="0.9964" stop-color="#F36F56"/>
</linearGradient>
<linearGradient id="paint20_linear_182_1613" x1="150.79" y1="7.33716" x2="147.707" y2="23.8363" gradientUnits="userSpaceOnUse">
<stop stop-color="#FFC444"/>
<stop offset="0.9964" stop-color="#F36F56"/>
</linearGradient>
<linearGradient id="paint21_linear_182_1613" x1="134.666" y1="39.1834" x2="165.445" y2="39.1834" gradientUnits="userSpaceOnUse">
<stop stop-color="#FF9085"/>
<stop offset="1" stop-color="#FB6FBB"/>
</linearGradient>
<linearGradient id="paint22_linear_182_1613" x1="168.42" y1="39.7893" x2="146.309" y2="39.7893" gradientUnits="userSpaceOnUse">
<stop stop-color="#444B8C"/>
<stop offset="0.9964" stop-color="#3E4177"/>
</linearGradient>
<linearGradient id="paint23_linear_182_1613" x1="189.641" y1="34.114" x2="159.292" y2="34.114" gradientUnits="userSpaceOnUse">
<stop stop-color="#444B8C"/>
<stop offset="0.9964" stop-color="#3E4177"/>
</linearGradient>
<linearGradient id="paint24_linear_182_1613" x1="183.275" y1="34.3048" x2="159.292" y2="34.3048" gradientUnits="userSpaceOnUse">
<stop stop-color="#444B8C"/>
<stop offset="0.9964" stop-color="#3E4177"/>
</linearGradient>
<linearGradient id="paint25_linear_182_1613" x1="138.56" y1="-19.2773" x2="139.666" y2="126.072" gradientUnits="userSpaceOnUse">
<stop stop-color="#FF9085"/>
<stop offset="1" stop-color="#FB6FBB"/>
</linearGradient>
<linearGradient id="paint26_linear_182_1613" x1="154.574" y1="35.5927" x2="147.488" y2="42.5298" gradientUnits="userSpaceOnUse">
<stop stop-color="#FFC444"/>
<stop offset="0.9964" stop-color="#F36F56"/>
</linearGradient>
<linearGradient id="paint27_linear_182_1613" x1="27.0007" y1="76.8655" x2="47.8358" y2="111.667" gradientUnits="userSpaceOnUse">
<stop stop-color="#311944"/>
<stop offset="1" stop-color="#893976"/>
</linearGradient>
<linearGradient id="paint28_linear_182_1613" x1="29.3732" y1="80.8942" x2="29.3732" y2="122.688" gradientUnits="userSpaceOnUse">
<stop stop-color="#8672E8"/>
<stop offset="1" stop-color="#4B4082"/>
</linearGradient>
<linearGradient id="paint29_linear_182_1613" x1="34.0643" y1="134.574" x2="28.7001" y2="141.235" gradientUnits="userSpaceOnUse">
<stop stop-color="#FFC444"/>
<stop offset="0.9964" stop-color="#F36F56"/>
</linearGradient>
<linearGradient id="paint30_linear_182_1613" x1="28.8311" y1="230.799" x2="25.2958" y2="233.239" gradientUnits="userSpaceOnUse">
<stop stop-color="#444B8C"/>
<stop offset="0.9964" stop-color="#26264F"/>
</linearGradient>
<linearGradient id="paint31_linear_182_1613" x1="25.3272" y1="233.137" x2="26.0623" y2="227.735" gradientUnits="userSpaceOnUse">
<stop stop-color="#FFC444"/>
<stop offset="0.9964" stop-color="#F36F56"/>
</linearGradient>
<linearGradient id="paint32_linear_182_1613" x1="28.5592" y1="230.405" x2="25.024" y2="232.846" gradientUnits="userSpaceOnUse">
<stop stop-color="#444B8C"/>
<stop offset="0.9964" stop-color="#26264F"/>
</linearGradient>
<linearGradient id="paint33_linear_182_1613" x1="51.8242" y1="232.528" x2="48.6856" y2="235.428" gradientUnits="userSpaceOnUse">
<stop stop-color="#444B8C"/>
<stop offset="0.9964" stop-color="#26264F"/>
</linearGradient>
<linearGradient id="paint34_linear_182_1613" x1="48.6948" y1="235.314" x2="48.6948" y2="229.867" gradientUnits="userSpaceOnUse">
<stop stop-color="#FFC444"/>
<stop offset="0.9964" stop-color="#F36F56"/>
</linearGradient>
<linearGradient id="paint35_linear_182_1613" x1="40.9487" y1="170.949" x2="40.9487" y2="232.318" gradientUnits="userSpaceOnUse">
<stop stop-color="#4042E2"/>
<stop offset="1" stop-color="#23247C"/>
</linearGradient>
<linearGradient id="paint36_linear_182_1613" x1="51.4975" y1="232.174" x2="48.359" y2="235.075" gradientUnits="userSpaceOnUse">
<stop stop-color="#444B8C"/>
<stop offset="0.9964" stop-color="#26264F"/>
</linearGradient>
<linearGradient id="paint37_linear_182_1613" x1="38.9643" y1="137.101" x2="41.4228" y2="144.931" gradientUnits="userSpaceOnUse">
<stop stop-color="#FFC444"/>
<stop offset="0.9964" stop-color="#F36F56"/>
</linearGradient>
<linearGradient id="paint38_linear_182_1613" x1="38.9498" y1="133.622" x2="42.8809" y2="170.457" gradientUnits="userSpaceOnUse">
<stop stop-color="#FFC444"/>
<stop offset="0.9964" stop-color="#F36F56"/>
</linearGradient>
<linearGradient id="paint39_linear_182_1613" x1="38.7736" y1="133.64" x2="42.7047" y2="170.476" gradientUnits="userSpaceOnUse">
<stop stop-color="#FFC444"/>
<stop offset="0.9964" stop-color="#F36F56"/>
</linearGradient>
<linearGradient id="paint40_linear_182_1613" x1="39.1691" y1="133.598" x2="43.1003" y2="170.434" gradientUnits="userSpaceOnUse">
<stop stop-color="#FFC444"/>
<stop offset="0.9964" stop-color="#F36F56"/>
</linearGradient>
<linearGradient id="paint41_linear_182_1613" x1="37.6161" y1="131.348" x2="42.6695" y2="132.801" gradientUnits="userSpaceOnUse">
<stop stop-color="#FFC444"/>
<stop offset="0.9964" stop-color="#F36F56"/>
</linearGradient>
<clipPath id="clip0_182_1613">
<rect width="250" height="250" fill="white"/>
</clipPath>
</defs>
</svg>
